<?xml version="1.0" encoding="utf-8"?>
<!-- Generator: Adobe Illustrator 19.1.0, SVG Export Plug-In . SVG Version: 6.00 Build 0)  -->
<svg version="1.1" id="Layer_1" xmlns="http://www.w3.org/2000/svg" xmlns:xlink="http://www.w3.org/1999/xlink" x="0px" y="0px"
	 viewBox="0 0 110 106.5" enable-background="new 0 0 110 106.5" xml:space="preserve">
<path fill="#00AEEF" d="M103.8,44.2L67,81L60,81L40.5,61.5L84,18l17.4,17.4C94.5,17.4,77,4.6,56.6,4.6c-26.5,0-48,21.5-48,48
	c0,1.2,0,2.5,0.1,3.7L4,61.1l7.2,7.2c6.5,18.8,24.4,32.4,45.4,32.4c26.5,0,48-21.5,48-48C104.6,49.8,104.3,46.9,103.8,44.2z"/>
<line fill="#00AEEF" x1="35.6" y1="75.6" x2="30.3" y2="81"/>
<path d="M47.9,26.1c-0.5,0-1-0.2-1.4-0.6c-0.8-0.8-0.8-2,0-2.8c0.8-0.8,2-0.8,2.8,0l0,0l0,0l0,0c0.4,0.4,0.6,0.9,0.6,1.4
	s-0.2,1-0.6,1.4C48.9,25.9,48.4,26.1,47.9,26.1z M47.9,23.1c-0.3,0-0.5,0.1-0.7,0.3c-0.4,0.4-0.4,1,0,1.4c0.4,0.4,1,0.4,1.4,0
	c0.2-0.2,0.3-0.4,0.3-0.7s-0.1-0.5-0.3-0.7l0,0C48.4,23.2,48.1,23.1,47.9,23.1z"/>
<path d="M26.6,79.8c-0.5,0-1-0.2-1.4-0.6c-0.8-0.8-0.8-2,0-2.8s2-0.8,2.8,0l0,0c0.8,0.8,0.8,2,0,2.8C27.6,79.6,27.1,79.8,26.6,79.8z
	 M26.6,76.8c-0.3,0-0.5,0.1-0.7,0.3c-0.4,0.4-0.4,1,0,1.4c0.4,0.4,1,0.4,1.4,0s0.4-1,0-1.4C27.1,76.9,26.8,76.8,26.6,76.8z"/>
<path d="M10.4,63.6c-0.5,0-1-0.2-1.4-0.6c-0.8-0.8-0.8-2,0-2.8c0.8-0.8,2-0.8,2.8,0h0c0.8,0.8,0.8,2,0,2.8
	C11.4,63.4,10.9,63.6,10.4,63.6z M10.4,60.6c-0.3,0-0.5,0.1-0.7,0.3c-0.4,0.4-0.4,1,0,1.4c0.4,0.4,1,0.4,1.4,0c0.4-0.4,0.4-1,0-1.4
	C10.9,60.7,10.6,60.6,10.4,60.6z"/>
<g>
	<path d="M62.4,67c-1.3,0-2.6-0.5-3.7-1.5c-2-2-2-5.3,0-7.3c2-2,5.3-2,7.3,0c1,1,1.5,2.3,1.5,3.7S67,64.5,66,65.5
		C65,66.5,63.7,67,62.4,67z M62.4,57.7c-1.1,0-2.1,0.4-2.9,1.2c-1.6,1.6-1.6,4.3,0,5.9c1.6,1.6,4.3,1.6,5.9,0
		c0.8-0.8,1.2-1.8,1.2-2.9s-0.4-2.2-1.2-2.9l0,0C64.5,58.1,63.4,57.7,62.4,57.7z"/>
	<path d="M84.3,45.1c-1.3,0-2.6-0.5-3.7-1.5c-2-2-2-5.3,0-7.3c1-1,2.3-1.5,3.7-1.5s2.7,0.5,3.7,1.5l0,0l0,0c2,2,2,5.3,0,7.3
		C86.9,44.6,85.6,45.1,84.3,45.1z M84.3,35.7c-1.1,0-2.2,0.4-2.9,1.2c-1.6,1.6-1.6,4.3,0,5.9c1.6,1.6,4.3,1.6,5.9,0
		c1.6-1.6,1.6-4.3,0-5.9l0,0C86.5,36.2,85.4,35.7,84.3,35.7z"/>
</g>
<path d="M75.8,59.4c-1.6,0-3.3-0.6-4.5-1.9l-4.1-4.1c-1.2-1.2-1.9-2.8-1.9-4.5s0.7-3.3,1.9-4.5c1.2-1.2,2.8-1.9,4.5-1.9
	s3.3,0.7,4.5,1.9l4.1,4.1c1.2,1.2,1.9,2.8,1.9,4.5c0,1.7-0.7,3.3-1.9,4.5C79.1,58.8,77.5,59.4,75.8,59.4z M71.8,44.6
	c-1.2,0-2.3,0.5-3.1,1.3s-1.3,1.9-1.3,3.1s0.5,2.3,1.3,3.1l4.1,4.1c1.7,1.7,4.5,1.7,6.2,0l0,0c0.8-0.8,1.3-1.9,1.3-3.1
	s-0.5-2.3-1.3-3.1l-4.1-4.1C74,45,72.9,44.6,71.8,44.6z"/>
<g>
	<path d="M73.5,52.8L73.5,52.8c-0.3,0.3-0.8,0.3-1.1,0l-0.9-0.9c-0.3-0.3-0.3-0.8,0-1.1l0,0c0.3-0.3,0.8-0.3,1.1,0l0.9,0.9
		C73.8,51.9,73.8,52.4,73.5,52.8z"/>
	<path d="M75.6,50.6L75.6,50.6c-0.3,0.3-0.8,0.3-1.1,0l-0.9-0.9c-0.3-0.3-0.3-0.8,0-1.1l0,0c0.3-0.3,0.8-0.3,1.1,0l0.9,0.9
		C75.9,49.8,75.9,50.3,75.6,50.6z"/>
</g>
<rect x="70.2" y="43.7" transform="matrix(0.9006 0.4347 -0.4347 0.9006 27.9945 -25.9162)" width="1" height="9.1"/>
<path d="M76,55.6c-0.6,0-1.2-0.2-1.6-0.7c-0.2-0.2-0.2-0.5,0-0.7s0.5-0.2,0.7,0c0.5,0.5,1.4,0.5,1.9,0c0.2-0.2,0.4-0.6,0.4-0.9
	s-0.1-0.7-0.4-0.9c-0.2-0.2-0.2-0.5,0-0.7s0.5-0.2,0.7,0c0.9,0.9,0.9,2.4,0,3.3C77.2,55.4,76.6,55.6,76,55.6z"/>
<g>
	<path d="M29.9,74.9l1.8-1.8L31,72.4l-1.3,1.3c-2-0.7-4.2-0.8-6.3-0.3l-9.7-9.7c0.5-2.1,0.4-4.3-0.3-6.3l29.4-29.4
		c2,0.7,4.2,0.8,6.3,0.3l2.1,2.1l0.7-0.7l-2.5-2.5l-0.3,0.1c-2.1,0.5-4.3,0.4-6.2-0.3l-0.3-0.1L12.2,57.1l0.1,0.3
		c0.8,2,0.9,4.2,0.3,6.2l-0.1,0.3l10.5,10.5l0.3-0.1c2.1-0.5,4.3-0.4,6.2,0.3L29.9,74.9z"/>
	<path d="M108,80H96.2c5.3-7.8,8.4-17.2,8.4-27.3c0-2.8-0.3-5.5-0.7-8.1l3.5-3.5l-6.2-6.2C94.1,16.6,76.3,3.6,55.6,3.6
		c-27,0-49,22-49,49c0,1.1,0,2.2,0.1,3.3l-5.1,5.1l7.7,7.7c1.4,4,3.3,7.8,5.6,11.2l-4.2,0c0,0,0,0,0,0c-0.6,0-1,0.4-1,1
		c0,0.6,0.4,1,1,1l5.6,0c9.1,12.2,23.5,19.7,39.3,19.7c16,0,30.3-7.7,39.2-19.7H108c0.6,0,1-0.4,1-1S108.6,80,108,80z M104.6,41
		l-6.3,6.3c-0.6-0.7-1.1-1.5-1.4-2.4l3.2-3.2l-3.6-3.6c0.4-1.2,1-2.4,1.8-3.5L104.6,41z M32.3,57.8l29.4-29.4c2,0.7,4.2,0.8,6.3,0.3
		l1.5,1.5L56.3,43.3c-2.4-1.4-5.6-1-7.6,1c-2.1,2.1-2.4,5.2-1,7.6l-9.5,9.5l11.5,11.5l-1,1c-1.2-0.4-2.4-0.6-3.7-0.6
		c-0.9,0-1.7,0.1-2.6,0.3L32.6,64C33.1,62,33,59.8,32.3,57.8z M95.6,44.7L66.2,74.2c-2-0.7-4.2-0.8-6.2-0.3l-9.7-9.7
		c0.5-2.1,0.4-4.2-0.3-6.2l29.4-29.4c1.2,0.4,2.4,0.6,3.7,0.6c0.9,0,1.7-0.1,2.6-0.3l9.7,9.7C94.8,40.5,94.9,42.7,95.6,44.7z
		 M65.4,75l-2.2,2.2l-2.5-2.5C62.3,74.4,63.9,74.5,65.4,75z M80.1,27.6l2.2-2.2l2.5,2.5C83.2,28.2,81.6,28.1,80.1,27.6z M82.3,24
		l-3.2,3.2c-0.8-0.4-1.6-0.8-2.4-1.4l6.3-6.3l6.3,6.3c-1,0.9-2.2,1.5-3.5,1.8L82.3,24z M78.3,28L49.4,56.8c-0.4-0.8-0.9-1.6-1.5-2.3
		l28-28C76.7,27.1,77.5,27.6,78.3,28z M46.9,60.8l2.2-2.2c0.5,1.5,0.5,3.1,0.3,4.6L46.9,60.8z M49.1,64.4c-0.4,1.2-1,2.4-1.8,3.5
		l-6.3-6.3l6.3-6.3c0.6,0.7,1.1,1.5,1.4,2.4l-3.2,3.2L49.1,64.4z M52.3,46.3l0.5,0.5l-0.7,0.7l-1.2-1.2c-0.2-0.2-0.5-0.2-0.7,0
		s-0.2,0.5,0,0.7l1.2,1.2l-0.7,0.7l-0.5-0.5c-0.2-0.2-0.5-0.2-0.7,0s-0.2,0.5,0,0.7l0.5,0.5l-0.8,0.8c-0.6-1.6-0.3-3.4,1-4.7
		c0.9-0.9,2-1.3,3.1-1.3c0.5,0,1.1,0.1,1.6,0.3l-1.3,1.3L53,45.6c-0.2-0.2-0.5-0.2-0.7,0S52.1,46.2,52.3,46.3z M48,68.6
		c0.9-1,1.5-2.2,1.9-3.4l9,9c-1.2,0.4-2.4,1.1-3.4,1.9L48,68.6z M59.6,74.9l3.6,3.6l3.2-3.2c0.8,0.4,1.6,0.8,2.4,1.4L65.6,80h-6.2
		l-3.2-3.2C57.2,75.9,58.4,75.3,59.6,74.9z M67.2,74.6l28.9-28.9c0.4,0.8,0.9,1.6,1.5,2.3l-28,28C68.8,75.5,68,75,67.2,74.6z
		 M96.1,39.3l2.5,2.5l-2.2,2.2C96,42.4,95.9,40.9,96.1,39.3z M95.6,37.4l-9-9c1.2-0.4,2.4-1.1,3.4-1.9l7.5,7.5
		C96.7,35,96,36.2,95.6,37.4z M55.6,5.6c18,0,33.7,10.2,41.6,25.1L83,16.6l-8.8,8.8l-8.8-8.8l-9.3,9.3l-9.7-9.7L8.6,54
		c0-0.5,0-0.9,0-1.4C8.6,26.7,29.7,5.6,55.6,5.6z M12.9,72.4l7.6,7.6l-3.2,0C15.6,77.6,14.2,75.1,12.9,72.4z M93.8,80h-6
		c-0.6,0-1,0.4-1,1s0.4,1,1,1h4.4c-8.6,10.8-21.9,17.7-36.7,17.7c-14.6,0-28-6.7-36.7-17.7l4.1,0c0,0,0,0,0,0c0.6,0,1-0.4,1-1
		c0-0.3-0.1-0.5-0.3-0.7L11,67.7c0-0.1-0.1-0.2-0.1-0.3l-0.2,0l-6.4-6.4L46.5,19l8.3,8.3L20.5,61.5L35,75.9l-1.1-1.1l-5,5.1h-2
		c-0.6,0-1,0.4-1,1s0.4,1,1,1h14.5c0,0,0,0,0,0s0,0,0,0h4c0.6,0,1-0.4,1-1s-0.4-1-1-1h-3.6L23.4,61.5l42.1-42.1l7.4,7.4l-2.7,2.7
		l-1.9-1.9L68,27.6c-2.1,0.5-4.3,0.4-6.2-0.3l-0.3-0.1L31.1,57.5l0.1,0.3c0.8,2,0.9,4.2,0.3,6.2l-0.1,0.3l10.5,10.5l0.3-0.1
		c2.1-0.5,4.3-0.4,6.2,0.3l0.3,0.1l1.5-1.5l1.9,1.9l-4.5,4.5c-0.4,0.4-0.4,1,0,1.4s1,0.4,1.4,0l4.5-4.5l2.9,2.9h-4.4
		c-0.6,0-1,0.4-1,1s0.4,1,1,1h32.5c0.6,0,1-0.4,1-1s-0.4-1-1-1H68.4l33.7-33.7c0.3,2.1,0.4,4.2,0.4,6.4
		C102.6,62.8,99.3,72.3,93.8,80z M35.3,76.3L39,80h-7.4L35.3,76.3z"/>
</g>
</svg>
