<?xml version="1.0" encoding="utf-8"?>
<!-- Generator: Adobe Illustrator 19.1.0, SVG Export Plug-In . SVG Version: 6.00 Build 0)  -->
<svg version="1.1" id="Layer_1" xmlns="http://www.w3.org/2000/svg" xmlns:xlink="http://www.w3.org/1999/xlink" x="0px" y="0px"
	 viewBox="0 0 110 106.5" enable-background="new 0 0 110 106.5" xml:space="preserve">
<path fill="#00AEEF" d="M89.5,22.7L57.8,54.3l-0.9-0.9l-2.7,2.7l-5.1,2l2-5.1l2.7-2.7l-1.2-1.2L84,17.8C75.9,11.7,65.9,8,54.9,8
	c-26.5,0-48,21.5-48,48c0,26.5,21.5,48,48,48c26.5,0,48-21.5,48-48C102.9,43.1,97.8,31.3,89.5,22.7z"/>
<path d="M6.8,85.4H4.3c-0.6,0-1-0.4-1-1s0.4-1,1-1h2.5c0.6,0,1,0.4,1,1S7.4,85.4,6.8,85.4z"/>
<path d="M84,83.4H26.3c-0.6,0-1,0.4-1,1s0.4,1,1,1H84c0.6,0,1-0.4,1-1S84.6,83.4,84,83.4z"/>
<path d="M107.4,83.4H95.6c5.3-7.8,8.4-17.2,8.4-27.3c0-12.9-5-24.6-13.1-33.3l13.8-13.8l-6.6-6.6l-2.9,2.9l-3.3-2L81.7,13.4l0.7,2
	C74.5,10.1,65.1,7,54.9,7c-27,0-49,22-49,49c0,10.1,3.1,19.5,8.4,27.3h-4.2c-0.6,0-1,0.4-1,1s0.4,1,1,1h5.7
	C24.7,97.3,38.9,105,54.9,105c16,0,30.3-7.7,39.2-19.7h13.2c0.6,0,1-0.4,1-1S107.9,83.4,107.4,83.4z M57.8,52.9l-3.7-3.7l36.4-36.4
	l3.7,3.7L57.8,52.9z M55.5,53.4l-1.8,1.8l-2.8,1.1l1.1-2.8l1.8-1.8L55.5,53.4z M101.8,8.9l-1.2,1.2l-3.7-3.7l1.2-1.2 M95.5,7.8
	l3.7,3.7l-3.5,3.5l-3.7-3.7L95.5,7.8z M84,14l8.2-8.2l1.5,0.9l-9.8,9.8c-0.4-0.3-0.8-0.6-1.2-0.8l1.6-0.5L84,14z M93.1,83.4h-6
	c-0.6,0-1,0.4-1,1s0.4,1,1,1h4.4C83,96.1,69.8,103,54.9,103c-14.8,0-28.1-6.9-36.7-17.7h4.9c0.6,0,1-0.4,1-1s-0.4-1-1-1h-6.4
	C11.2,75.6,7.9,66.2,7.9,56c0-25.9,21.1-47,47-47c10.3,0,19.8,3.3,27.5,8.9L51.2,49.2l1.2,1.2l-2.1,2.1l-2.9,7.4l7.4-2.9l2.1-2.1
	l0.9,0.9l31.6-31.6c7.8,8.4,12.5,19.6,12.5,31.9C101.9,66.2,98.7,75.6,93.1,83.4z"/>
<g>
	<path d="M25.2,63.4c1-0.1,1.9-0.5,2.7-1.2h1.5v14.5h-1.8V64.4c-0.8,0.5-1.6,0.8-2.4,0.8V63.4z"/>
	<path d="M38.5,62.1c1.7,0,3.1,0.6,4.1,1.9c1,1.3,1.5,3.1,1.5,5.6s-0.5,4.3-1.5,5.6c-1,1.3-2.4,1.9-4.1,1.9s-3.1-0.6-4.2-1.9
		c-1-1.3-1.5-3.1-1.5-5.6c0-2.4,0.5-4.3,1.5-5.6C35.4,62.7,36.8,62.1,38.5,62.1z M42.3,69.5c0-1.9-0.3-3.3-1-4.3
		c-0.6-1-1.6-1.5-2.8-1.5s-2.2,0.5-2.8,1.5c-0.6,1-1,2.4-1,4.3s0.3,3.3,1,4.3c0.6,1,1.6,1.5,2.8,1.5s2.2-0.5,2.8-1.5
		C42,72.9,42.3,71.4,42.3,69.5z"/>
	<path d="M46.5,63.4c1-0.1,1.9-0.5,2.7-1.2h1.5v14.5h-1.8V64.4c-0.8,0.5-1.6,0.8-2.4,0.8V63.4z"/>
	<path d="M59.8,62.1c1.7,0,3.1,0.6,4.1,1.9s1.5,3.1,1.5,5.6S65,73.8,64,75.1S61.6,77,59.8,77s-3.1-0.6-4.2-1.9
		c-1-1.3-1.5-3.1-1.5-5.6c0-2.4,0.5-4.3,1.5-5.6C56.7,62.7,58.1,62.1,59.8,62.1z M63.6,69.5c0-1.9-0.3-3.3-1-4.3
		c-0.6-1-1.6-1.5-2.8-1.5s-2.2,0.5-2.8,1.5c-0.6,1-1,2.4-1,4.3s0.3,3.3,1,4.3c0.6,1,1.6,1.5,2.8,1.5s2.2-0.5,2.8-1.5
		C63.3,72.9,63.6,71.4,63.6,69.5z"/>
	<path d="M73.5,62.1c1.7,0,3.1,0.6,4.1,1.9s1.5,3.1,1.5,5.6s-0.5,4.3-1.5,5.6S75.2,77,73.5,77s-3.1-0.6-4.2-1.9
		c-1-1.3-1.5-3.1-1.5-5.6c0-2.4,0.5-4.3,1.5-5.6C70.3,62.7,71.7,62.1,73.5,62.1z M77.2,69.5c0-1.9-0.3-3.3-1-4.3
		c-0.6-1-1.6-1.5-2.8-1.5s-2.2,0.5-2.8,1.5c-0.6,1-1,2.4-1,4.3s0.3,3.3,1,4.3c0.6,1,1.6,1.5,2.8,1.5s2.2-0.5,2.8-1.5
		C76.9,72.9,77.2,71.4,77.2,69.5z"/>
	<path d="M81.4,63.4c1-0.1,1.9-0.5,2.7-1.2h1.5v14.5h-1.8V64.4c-0.8,0.5-1.6,0.8-2.4,0.8V63.4z"/>
</g>
</svg>
