<?xml version="1.0" encoding="utf-8"?>
<!-- Generator: Adobe Illustrator 19.1.0, SVG Export Plug-In . SVG Version: 6.00 Build 0)  -->
<svg version="1.1" id="Layer_1" xmlns="http://www.w3.org/2000/svg" xmlns:xlink="http://www.w3.org/1999/xlink" x="0px" y="0px"
	 viewBox="0 0 110 106.5" enable-background="new 0 0 110 106.5" xml:space="preserve">
<g>
	<path fill="#00AEEF" d="M55,4.2c-26.5,0-48,21.5-48,48c0,26.5,21.5,48,48,48c26.5,0,48-21.5,48-48C103,25.7,81.5,4.2,55,4.2z
		 M94.5,68.7L42.9,79.9c-1.3,0.3-2.6,0-3.7-0.7L19.4,65.4c-1.8-1.2-2.3-3.6-1.2-5.5l12.3-21.3c0.7-1.2,1.8-2,3.1-2.3L85,25.2
		c4.1-0.9,8.1,1.7,9,5.8l6.2,28.7C101.2,63.8,98.6,67.8,94.5,68.7z"/>
	<circle fill="#00AEEF" cx="32.8" cy="59.3" r="4.5"/>
</g>
<path d="M60.1,56.8c-0.3-1.2-1-2.3-2-2.9c-0.3-0.2-0.5-0.3-0.8-0.4c0,0,0,0,0,0c0.6-0.9,0.8-2.1,0.6-3.2c-0.2-1.1-0.9-2-1.8-2.6
	C55,47,53.9,46.8,52.8,47l-0.6,0.1l-0.7-2.8c-0.1-0.5-0.7-0.9-1.2-0.7c-0.5,0.1-0.9,0.7-0.7,1.2l0.7,2.8L48.3,48l-0.6-2.9
	c-0.1-0.5-0.6-0.9-1.2-0.8c-0.5,0.1-0.9,0.6-0.8,1.2l0.6,2.9l-2.8,0.6c-0.5,0.1-0.9,0.7-0.8,1.2c0.1,0.5,0.7,0.9,1.2,0.8l2.7-0.6
	l0.9,4.3L45,55.3c-0.5,0.1-0.9,0.7-0.8,1.2s0.7,0.9,1.2,0.8l2.7-0.6l1.1,5.2l-2.8,0.6c-0.5,0.1-0.9,0.7-0.8,1.2
	c0.1,0.5,0.5,0.8,1,0.8c0.1,0,0.1,0,0.2,0l2.7-0.6l0.6,2.6c0.1,0.5,0.5,0.8,1,0.8c0.1,0,0.1,0,0.2,0c0.5-0.1,0.9-0.6,0.8-1.2
	l-0.6-2.6l1.5-0.3l0.6,2.6c0.1,0.5,0.5,0.8,1,0.8c0.1,0,0.1,0,0.2,0c0.5-0.1,0.9-0.6,0.8-1.2l-0.6-2.6l1.4-0.3
	C59,61.8,60.6,59.3,60.1,56.8z M53.2,49c0.6-0.1,1.2,0,1.6,0.3c0.5,0.3,0.8,0.8,1,1.4c0.1,0.6,0,1.2-0.3,1.6c-0.3,0.5-0.8,0.8-1.4,1
	l-4.5,1L48.8,50L53.2,49z M56.1,60.4l-2.3,0.5c0,0-0.1,0-0.1,0c0,0,0,0-0.1,0l-2.4,0.5l-1.1-5.2l4.8-1.1c0.7-0.2,1.4,0,2,0.4
	c0.6,0.4,1,1,1.2,1.7C58.4,58.6,57.5,60.1,56.1,60.4z"/>
<path d="M75.8,57.4c-0.2,0-0.4,0-0.6,0c-0.6,0-1-0.5-1-1s0.5-1,1-1c0.9,0,1.8,0,2.6-0.2c5.3-1.1,8.8-6.7,9.9-8.7
	c-0.8-0.6-2.3-1.6-4.1-2.4c-0.5-0.2-0.7-0.8-0.5-1.3c0.2-0.5,0.8-0.7,1.3-0.5c3,1.4,5.1,3.1,5.2,3.2l0.6,0.5l-0.3,0.7
	c-0.2,0.4-4.4,8.9-11.7,10.5C77.6,57.3,76.7,57.4,75.8,57.4z"/>
<path d="M77.3,53.3c-0.5,0-0.9-0.3-1-0.8c-0.1-0.5,0.2-1.1,0.8-1.2c0.6-0.1,1.2-0.5,1.5-1.1c0.4-0.5,0.5-1.2,0.3-1.8
	c-0.1-0.5,0.2-1.1,0.8-1.2c0.5-0.1,1.1,0.2,1.2,0.8c0.3,1.2,0,2.3-0.6,3.3s-1.6,1.7-2.8,1.9C77.5,53.3,77.4,53.3,77.3,53.3z"/>
<path d="M84.2,37.1c-0.5-0.3-1.1-0.2-1.4,0.3l-2.2,3.5c-2-0.5-4-0.5-5.8-0.1c-7.3,1.6-11.5,10.1-11.7,10.5l-0.3,0.7l0.6,0.5
	c0.1,0.1,3.1,2.6,7.2,4L68,60.5c-0.3,0.5-0.2,1.1,0.3,1.4c0.2,0.1,0.4,0.2,0.5,0.2c0.3,0,0.7-0.2,0.8-0.5l2.9-4.6c0,0,0,0,0,0l0,0
	l8.9-13.8c0,0,0,0,0,0l0.1-0.2l2.9-4.5C84.8,38,84.7,37.4,84.2,37.1z M74.2,49.5c-0.3-1.3,0.6-2.6,1.9-2.9c0.3-0.1,0.6-0.1,0.9,0
	l-2.4,3.7C74.4,50,74.3,49.7,74.2,49.5z M78.1,44.8c-0.8-0.3-1.6-0.3-2.4-0.2c-2.4,0.5-3.9,2.9-3.4,5.3c0.2,0.8,0.6,1.5,1.2,2.1
	l-1.7,2.7c-2.9-0.9-5.3-2.5-6.4-3.3c1.1-2,4.7-7.5,9.9-8.7c1.3-0.3,2.7-0.3,4.2,0L78.1,44.8z"/>
<g>
	<path d="M107.4,79.6H95.6c5.3-7.8,8.4-17.2,8.4-27.3c0-27-22-49-49-49c-27,0-49,22-49,49c0,8,1.9,15.6,5.4,22.3
		c-2.8,0-5.7-0.9-8.2-2.6c-0.5-0.3-1.1-0.2-1.4,0.3c-0.3,0.5-0.2,1.1,0.3,1.4c2.9,2,6.2,2.9,9.5,2.9c0.3,0,0.6,0,0.8,0
		c0.6,1.1,1.3,2.1,1.9,3.1h-4.3c-0.6,0-1,0.4-1,1s0.4,1,1,1h5.7c8.9,11.9,23.2,19.7,39.2,19.7c16,0,30.3-7.7,39.2-19.7h13.2
		c0.6,0,1-0.4,1-1S107.9,79.6,107.4,79.6z M13.5,74.4C10,67.8,8,60.2,8,52.2c0-25.9,21.1-47,47-47c25.9,0,47,21.1,47,47
		c0,2.6-0.2,5.2-0.6,7.7c0-0.2,0-0.3-0.1-0.5L95,30.8c-0.5-2.2-1.8-4.2-3.7-5.4c-1.9-1.2-4.2-1.7-6.5-1.2L33.3,35.4
		c-1.6,0.3-3,1.3-3.8,2.8L17.3,59.4c-1.3,2.3-0.7,5.3,1.5,6.8l4.2,2.9c-0.2,0.2-0.3,0.4-0.4,0.5C20.1,72.4,16.9,73.9,13.5,74.4z
		 M98.4,64.8c-1,1.5-2.4,2.5-4.1,2.9L42.7,78.9c-1,0.2-2.1,0-2.9-0.6L19.9,64.6c-1.3-0.9-1.8-2.8-0.9-4.2l12.3-21.3
		c0.5-0.9,1.4-1.6,2.5-1.8l51.5-11.2c0.5-0.1,0.9-0.2,1.4-0.2c1.3,0,2.5,0.4,3.6,1.1c1.5,1,2.5,2.4,2.9,4.1l6.2,28.7
		C99.7,61.6,99.3,63.4,98.4,64.8z M55,99.2c-14.8,0-28-6.9-36.7-17.7h4.9c0.6,0,1-0.4,1-1s-0.4-1-1-1h-6.4c-0.8-1.1-1.5-2.2-2.2-3.3
		c3.5-0.6,6.9-2.4,9.5-5.1c0.2-0.2,0.4-0.5,0.6-0.8l13.4,9.2H26.3c-0.6,0-1,0.4-1,1s0.4,1,1,1h57.7c0.6,0,1-0.4,1-1s-0.4-1-1-1H49
		l45.7-9.9c2.1-0.5,3.9-1.7,5.2-3.4c-1.5,4.8-3.8,9.3-6.6,13.3h-6c-0.6,0-1,0.4-1,1s0.4,1,1,1h4.4C83,92.3,69.8,99.2,55,99.2z"/>
	<path d="M35.1,54.3c0.1-0.6,0.1-1.2,0.1-1.9c0-1.4-0.2-2.7-0.5-4.1c-0.1-0.5-0.7-0.9-1.2-0.7c-0.5,0.1-0.9,0.7-0.7,1.2
		c0.3,1.2,0.4,2.4,0.4,3.6c0,0.5,0,0.9-0.1,1.4c-0.5,0-1,0-1.5,0.1c-1.4,0.3-2.6,1.2-3.4,2.4s-1.1,2.7-0.7,4.1
		c0.3,1.4,1.2,2.6,2.4,3.4c0.9,0.6,1.9,0.9,2.9,0.9c0.4,0,0.8,0,1.2-0.1c2.9-0.6,4.8-3.5,4.2-6.5C37.8,56.4,36.6,55,35.1,54.3z
		 M29.4,60c-0.4-1.9,0.8-3.7,2.6-4.1c0.2-0.1,0.5-0.1,0.7-0.1c0,0,0,0,0,0c-0.5,2-1.4,4-2.7,5.7C29.8,61.1,29.5,60.6,29.4,60z
		 M33.5,62.6c-0.6,0.1-1.2,0.1-1.7-0.1c1.4-1.8,2.4-3.9,2.9-6.2c0.7,0.5,1.3,1.2,1.5,2.1C36.6,60.4,35.4,62.2,33.5,62.6z"/>
</g>
</svg>
