<?xml version="1.0" encoding="utf-8"?>
<!-- Generator: Adobe Illustrator 19.1.0, SVG Export Plug-In . SVG Version: 6.00 Build 0)  -->
<svg version="1.1" id="Layer_1" xmlns="http://www.w3.org/2000/svg" xmlns:xlink="http://www.w3.org/1999/xlink" x="0px" y="0px"
	 viewBox="0 0 110 106.5" enable-background="new 0 0 110 106.5" xml:space="preserve">
<path fill="#00AEEF" d="M91.2,24.1C91.2,24.1,91.2,24.1,91.2,24.1c0,1.2-0.9,2.2-1.8,3.4c-2.8,3.7-3.1,8.8-3.1,13.7h0
	c0,0,0,0.7,0,0.7h0c0,4.9,0.4,10,3.1,13.7c0.9,1.2,1.8,2.1,1.8,3.3c0,3.4-4.8,6.1-10.8,6.1s-10.8-2.7-10.8-6.1
	c0-1.2,0.9-2.2,1.8-3.3c2.8-3.7,3.1-8.8,3.1-13.7h0c0,0,0-0.7,0-0.7h0c0-4.9-0.4-10-3.1-13.7c-0.9-1.2-1.8-2.1-1.8-3.3
	c0-2.6,3-4.9,7.1-5.8v-5.9c-6.7-3.5-14.3-5.5-22.3-5.5c-26.5,0-48,21.5-48,48c0,26.5,21.5,48,48,48c26.5,0,48-21.5,48-48
	C102.4,43.2,98.2,32.4,91.2,24.1z M36.3,64.7c0,0,0,0.7,0,0.7h0c0,4.9,0.4,10,3.1,13.7c0.9,1.2,1.8,2.1,1.8,3.3
	c0,3.4-4.8,6.1-10.8,6.1s-10.8-2.7-10.8-6.1c0-1.2,0.9-2.2,1.8-3.3c2.8-3.7,3.1-8.8,3.1-13.7h0c0,0,0-0.7,0-0.7h0
	c0-4.9-0.4-10-3.1-13.7c-0.9-1.2-1.8-2.1-1.8-3.3c0-2.6,3-4.9,7.1-5.8V29.2c0-1.2,1.6-2.1,3.7-2.1c2,0,3.7,0.9,3.7,2.1v12.7
	c4.1,0.9,7.1,3.1,7.1,5.8c0,1.2-0.9,2.2-1.8,3.3C36.7,54.7,36.3,59.8,36.3,64.7L36.3,64.7z M61.3,51.7c0,0,0,0.7,0,0.7h0
	c0,4.9,0.4,10,3.1,13.7c0.9,1.2,1.8,2.1,1.8,3.3c0,3.4-4.8,6.1-10.8,6.1s-10.8-2.7-10.8-6.1c0-1.2,0.9-2.2,1.8-3.3
	c2.8-3.7,3.1-8.8,3.1-13.7h0c0,0,0-0.7,0-0.7h0c0-4.9-0.4-10-3.1-13.7c-0.9-1.2-1.8-2.1-1.8-3.3c0-3.4,4.8-6.1,10.8-6.1
	s10.8,2.7,10.8,6.1c0,1.2-0.9,2.2-1.8,3.3C61.7,41.7,61.3,46.8,61.3,51.7L61.3,51.7z"/>
<path fill="#00AEEF" d="M86.2,18.9c-0.7-0.6-1.4-1.2-2.1-1.7v1.1C84.8,18.5,85.5,18.7,86.2,18.9z"/>
<g>
	<path fill="#FFFFFF" d="M34.7,53.3c-1.2,0.3-2.6,0.4-4,0.4c-1.9,0-3.7-0.3-5.2-0.8"/>
	<path d="M30.8,54.8c-1.9,0-3.8-0.3-5.5-0.8c-0.5-0.2-0.8-0.7-0.7-1.3c0.2-0.5,0.7-0.8,1.3-0.7c2.6,0.8,5.9,0.9,8.6,0.3
		c0.5-0.1,1.1,0.2,1.2,0.8c0.1,0.5-0.2,1.1-0.8,1.2C33.6,54.6,32.2,54.8,30.8,54.8z"/>
</g>
<g>
	<path fill="#FFFFFF" d="M59.7,40.4c-1.2,0.3-2.6,0.4-4,0.4c-1.9,0-3.7-0.3-5.2-0.8"/>
	<path d="M55.8,41.8c-1.9,0-3.8-0.3-5.5-0.8c-0.5-0.2-0.8-0.7-0.7-1.3c0.2-0.5,0.7-0.8,1.3-0.7c2.6,0.8,5.9,0.9,8.6,0.3
		c0.5-0.1,1.1,0.2,1.2,0.8c0.1,0.5-0.2,1.1-0.8,1.2C58.6,41.7,57.2,41.8,55.8,41.8z"/>
</g>
<path fill="#FFFFFF" d="M55.4,14.1c-2,0-3.7,0.9-3.7,2.1v17c0,1.2,1.6,2.1,3.7,2.1c2,0,3.7-0.9,3.7-2.1v-17
	C59.1,15.1,57.5,14.1,55.4,14.1z"/>
<path fill="#FFFFFF" d="M84.7,29.8c-1.2,0.3-2.6,0.4-4,0.4c-1.9,0-3.7-0.3-5.2-0.8"/>
<path d="M80.8,31.2c-1.9,0-3.8-0.3-5.5-0.8c-0.5-0.2-0.8-0.7-0.7-1.3c0.2-0.5,0.7-0.8,1.3-0.7c2.6,0.8,5.9,0.9,8.6,0.3
	c0.5-0.1,1.1,0.2,1.2,0.8c0.1,0.5-0.2,1.1-0.8,1.2C83.6,31.1,82.2,31.2,80.8,31.2z"/>
<path fill="#FFFFFF" d="M80.4,3.6c-2,0-3.7,0.9-3.7,2.1v17c0,1.2,1.6,2.1,3.7,2.1c2,0,3.7-0.9,3.7-2.1v-17
	C84.1,4.5,82.5,3.6,80.4,3.6z"/>
<path d="M80.4,84.9c-2.7,0-4.7-1.3-4.7-3.1c0-1.8,2-3.1,4.7-3.1s4.7,1.3,4.7,3.1C85.1,83.6,83.1,84.9,80.4,84.9z M80.4,80.7
	c-1.7,0-2.7,0.7-2.7,1.1s1,1.1,2.7,1.1s2.7-0.7,2.7-1.1S82.1,80.7,80.4,80.7z"/>
<path d="M55.4,96.9c-2.7,0-4.7-1.3-4.7-3.1c0-1.8,2-3.1,4.7-3.1s4.7,1.3,4.7,3.1C60.1,95.6,58.1,96.9,55.4,96.9z M55.4,92.7
	c-1.7,0-2.7,0.7-2.7,1.1s1,1.1,2.7,1.1c1.7,0,2.7-0.7,2.7-1.1S57.1,92.7,55.4,92.7z"/>
<path d="M92.2,23.7c-0.2-2.4-2.4-4.5-5.6-5.7c-0.5-0.4-1-0.8-1.5-1.2V5.6c0-1.8-2-3.1-4.7-3.1s-4.7,1.3-4.7,3.1v1.8
	c-0.6,0.9-1.3,1.7-2,2.5c-5.9-2.6-12.5-4-19.3-4c-27,0-49,22-49,49s22,49,49,49s49-22,49-49C103.4,43.1,99.2,32.2,92.2,23.7z
	 M85.3,41.9C85.3,41.9,85.3,41.9,85.3,41.9l0,0.3h0c0,4.7,0.4,10.1,3.3,14l0.4,0.5c0.7,0.9,1.2,1.5,1.2,2.3c0,2.8-4.5,5.1-9.8,5.1
	s-9.8-2.3-9.8-5.1c0-0.7,0.5-1.4,1.2-2.3l0.4-0.5c3-4,3.3-9.3,3.3-14l0-1.3h0c0-4.7-0.4-10.1-3.3-14l-0.4-0.5
	c-0.7-0.9-1.2-1.5-1.2-2.3c0-1.9,2.1-3.6,5.1-4.5v3c0,1.8,2,3.1,4.7,3.1s4.7-1.3,4.7-3.1v-3c3,0.9,5.1,2.6,5.1,4.5
	c0,0.7-0.5,1.4-1.2,2.3l-0.4,0.5c-3,4-3.3,9.3-3.3,14h0L85.3,41.9z M77.8,5.6c0-0.4,1-1.1,2.7-1.1s2.7,0.7,2.7,1.1v0.8
	c-1.7,0.2-3.6,0.2-5.3,0.1V5.6z M77.8,8.5c0.7,0.1,1.5,0.1,2.3,0.1c1.1,0,2.1-0.1,3.1-0.2v14.2c0,0.4-1,1.1-2.7,1.1
	s-2.7-0.7-2.7-1.1V8.5z M75.8,10.7v0.2c0,0-0.1,0-0.1-0.1C75.7,10.8,75.7,10.7,75.8,10.7z M54.4,101.9c-25.9,0-47-21.1-47-47
	s21.1-47,47-47c6.3,0,12.2,1.2,17.7,3.5c-3.7,3-8.2,4.4-12,5.1v-0.3c0-1.8-2-3.1-4.7-3.1s-4.7,1.3-4.7,3.1v1.4
	c-5.8,7.5-11.4,10.6-15.7,11.7v-0.2c0-1.8-2-3.1-4.7-3.1s-4.7,1.3-4.7,3.1v11.9c-4.2,1.1-7.1,3.6-7.1,6.6c0,1.4,0.8,2.5,1.6,3.5
	l0.4,0.5c2.5,3.3,2.9,7.9,2.9,12.1h0l0,1c0,0.1,0,0.6,0,0.7l0,1c-0.1,4.2-0.4,8.8-2.9,12.1L20.3,79c-0.8,1-1.6,2.1-1.6,3.5
	c0,4,5.2,7.1,11.8,7.1s11.8-3.1,11.8-7.1c0-1.4-0.8-2.5-1.6-3.5l-0.4-0.5c-2.5-3.4-2.9-8.2-2.9-12.5l0-1.7c0-4.4,0.3-9.2,2.9-12.7
	l0.4-0.5c0.8-1,1.6-2.1,1.6-3.5c0-3-2.9-5.5-7.1-6.6v-9.7c4.3-1,9.9-3.8,15.7-10.6v7.4c-4.2,1.1-7.1,3.6-7.1,6.6
	c0,1.4,0.8,2.5,1.6,3.5l0.4,0.5c2.5,3.3,2.9,7.9,2.9,12.1h0l0,1c0,0.1,0,0.6,0,0.7l0,1c-0.1,4.2-0.4,8.8-2.9,12.1L45.3,66
	c-0.8,1-1.6,2.1-1.6,3.5c0,4,5.2,7.1,11.8,7.1s11.8-3.1,11.8-7.1c0-1.4-0.8-2.5-1.6-3.5l-0.4-0.5c-2.5-3.3-2.9-7.9-2.9-12.1l0,0l0-1
	c0-0.1,0-0.6,0-0.7l0-1h0c0.1-4.2,0.5-8.8,2.9-12.1l0.4-0.5c0.8-1,1.6-2.1,1.6-3.5c0-3-2.9-5.5-7.1-6.6v-9.6
	c4.5-0.7,9.8-2.4,14.1-6.3c0.5,0.2,1.1,0.5,1.6,0.8v4.5c-4.2,1.1-7.1,3.6-7.1,6.6c0,1.4,0.8,2.5,1.6,3.5l0.4,0.5
	c2.5,3.4,2.9,8.2,2.9,12.5l0,1.7c0,4.4-0.3,9.3-2.9,12.7l-0.4,0.5c-0.8,1-1.6,2.1-1.6,3.5c0,4,5.2,7.1,11.8,7.1s11.8-3.1,11.8-7.1
	c0-1.4-0.8-2.5-1.6-3.5L90.2,55c-2.5-3.3-2.9-7.9-2.9-12.1h0l0-1c0-0.1,0-0.6,0-0.7l0-1h0c0.1-4.2,0.5-8.8,2.9-12.1l0.4-0.5
	c0.3-0.4,0.7-0.9,1-1.4c6.2,8,9.9,17.9,9.9,28.7C101.4,80.9,80.4,101.9,54.4,101.9z M60.3,52.5C60.3,52.5,60.3,52.5,60.3,52.5l0,0.3
	h0c0,4.7,0.4,10.1,3.3,14l0.4,0.5c0.7,0.9,1.2,1.5,1.2,2.3c0,2.8-4.5,5.1-9.8,5.1s-9.8-2.3-9.8-5.1c0-0.7,0.5-1.4,1.2-2.3l0.4-0.5
	c3-4,3.3-9.3,3.3-14h0l0-1c0,0,0,0,0,0v-0.2h0c0-4.7-0.4-10.1-3.3-14L46.9,37c-0.7-0.9-1.2-1.5-1.2-2.3c0-1.9,2.1-3.6,5.1-4.5v3
	c0,1.8,2,3.1,4.7,3.1s4.7-1.3,4.7-3.1v-3c3,0.9,5.1,2.6,5.1,4.5c0,0.7-0.5,1.4-1.2,2.3l-0.4,0.5c-3,4-3.3,9.3-3.3,14h0L60.3,52.5z
	 M54,19.1c1.1,0,2.5-0.1,4.1-0.2v14.4c0,0.4-1,1.1-2.7,1.1s-2.7-0.7-2.7-1.1V19C53.1,19.1,53.5,19.1,54,19.1z M52.8,17v-0.8
	c0-0.4,1-1.1,2.7-1.1s2.7,0.7,2.7,1.1v0.6C55.8,17.1,53.8,17.1,52.8,17z M35.3,65.4l0,0.3h0c0,4.7,0.4,10.1,3.3,14l0.4,0.5
	c0.7,0.9,1.2,1.5,1.2,2.3c0,2.8-4.5,5.1-9.8,5.1s-9.8-2.3-9.8-5.1c0-0.7,0.5-1.4,1.2-2.3l0.4-0.5c3-4,3.3-9.3,3.3-14h0l0-1
	c0,0,0,0,0,0v-0.2h0c0-4.7-0.4-10.1-3.3-14l-0.4-0.5c-0.7-0.9-1.2-1.5-1.2-2.3c0-1.9,2.1-3.6,5.1-4.5v3c0,1.8,2,3.1,4.7,3.1
	s4.7-1.3,4.7-3.1v-3c3,0.9,5.1,2.6,5.1,4.5c0,0.7-0.5,1.4-1.2,2.3l-0.4,0.5c-3,4-3.3,9.3-3.3,14h0L35.3,65.4z M30.7,32
	c0.7,0,1.5-0.1,2.4-0.2v14.4c0,0.4-1,1.1-2.7,1.1s-2.7-0.7-2.7-1.1V31.7C28.5,31.8,29.5,32,30.7,32z M27.8,29.6v-0.5
	c0-0.4,1-1.1,2.7-1.1s2.7,0.7,2.7,1.1v0.6C30.5,30.2,28.6,29.8,27.8,29.6z"/>
</svg>
