<?xml version="1.0" encoding="utf-8"?>
<!-- Generator: Adobe Illustrator 19.1.0, SVG Export Plug-In . SVG Version: 6.00 Build 0)  -->
<svg version="1.1" id="Layer_1" xmlns="http://www.w3.org/2000/svg" xmlns:xlink="http://www.w3.org/1999/xlink" x="0px" y="0px"
	 viewBox="0 0 110 106.5" enable-background="new 0 0 110 106.5" xml:space="preserve">
<g>
	<path fill="#00AEEF" d="M55.3,6.2c-26.5,0-48,21.5-48,48c0,26.5,21.5,48,48,48s48-21.5,48-48C103.3,27.7,81.8,6.2,55.3,6.2z
		 M69,82.6h-5.1c0,0-0.1,0-0.1,0v0v0h-4.1c-0.1,0-0.2,0-0.3,0c-1.2-0.1-2.2-0.4-3.1-1.1c-0.9,0.7-2.1,1.1-3.3,1.1h-5.1v0
		c0,0-0.1,0-0.1,0h-4.1V21.1h4.2H48h5.2l3.1,14.2l3.1-14.2l0,0h4.3v0H69V82.6z"/>
	<path fill="#00AEEF" d="M57.7,67.8c0-0.2-0.1-0.4-0.2-0.6c0,0,0,0,0-0.1c-0.1-0.2-0.2-0.4-0.3-0.5c0-0.1-0.1-0.1-0.1-0.2
		c-0.1-0.2-0.2-0.3-0.4-0.4c0-0.1-0.1-0.1-0.2-0.1c-0.1-0.1-0.2-0.2-0.4-0.3c-0.1,0-0.1-0.1-0.2-0.1c0,0-0.1,0-0.1-0.1
		c-1.1,0.7-1.9,1.9-1.9,3.4c0,1.4,0.8,2.7,1.9,3.4c0,0,0.1,0,0.1-0.1c0.1,0,0.1-0.1,0.2-0.1c0.1-0.1,0.3-0.2,0.4-0.3
		c0.1,0,0.1-0.1,0.2-0.1c0.1-0.1,0.2-0.3,0.4-0.4c0-0.1,0.1-0.1,0.1-0.2c0.1-0.2,0.2-0.3,0.3-0.5c0,0,0,0,0-0.1
		c0.1-0.2,0.1-0.4,0.2-0.6c0-0.1,0-0.1,0-0.2c0-0.2,0.1-0.5,0.1-0.7c0,0,0,0,0,0c0-0.2,0-0.5-0.1-0.7C57.7,67.9,57.7,67.8,57.7,67.8
		z"/>
</g>
<path d="M45.5,83.6H26c-0.6,0-1-0.4-1-1s0.4-1,1-1h19.5c0.6,0,1,0.4,1,1S46.1,83.6,45.5,83.6z"/>
<path d="M6.5,83.6H4c-0.6,0-1-0.4-1-1s0.4-1,1-1h2.5c0.6,0,1,0.4,1,1S7.1,83.6,6.5,83.6z"/>
<path d="M107.1,81.6H95.3c5.3-7.8,8.4-17.2,8.4-27.3c0-27-22-49-49-49s-49,22-49,49c0,10.1,3.1,19.5,8.4,27.3H9.8c-0.6,0-1,0.4-1,1
	s0.4,1,1,1h5.7c8.9,11.9,23.2,19.7,39.2,19.7s30.3-7.7,39.2-19.7h13.2c0.6,0,1-0.4,1-1S107.6,81.6,107.1,81.6z M92.8,81.6h-6
	c-0.6,0-1,0.4-1,1s0.4,1,1,1h4.4c-8.6,10.8-21.9,17.7-36.7,17.7S26.6,94.3,18,83.6h4.9c0.6,0,1-0.4,1-1s-0.4-1-1-1h-6.4
	c-5.5-7.7-8.8-17.1-8.8-27.3c0-25.9,21.1-47,47-47s47,21.1,47,47C101.6,64.4,98.4,73.9,92.8,81.6z"/>
<path d="M83.7,81.6H69.4V20.1h-6.2v0H58l-0.1,0.8l-2.1,9.8l-2.3-10.6H42.1v41l-0.7,0.4c-0.5,0.3-0.7,0.9-0.4,1.4
	c0.2,0.3,0.5,0.5,0.9,0.5c0.1,0,0.2,0,0.2,0v20.3h10.3c1.2,0,2.3-0.3,3.3-0.9c0.8,0.5,1.8,0.8,2.8,0.9c0.2,0,0.4,0,0.6,0h4.1h6.2
	h14.3c0.6,0,1-0.4,1-1S84.3,81.6,83.7,81.6z M51.8,22.1L55,36.6l-1.6,8.8c-0.1,0-0.1,0-0.2,0c-0.1,0-0.2,0-0.3,0l-4.2-23.4H51.8z
	 M53.3,71.5C53.3,71.5,53.3,71.5,53.3,71.5l-0.3,0c-1.6,0-2.9-1.3-2.9-2.9s1.3-2.9,2.9-2.9h0.2c0,0,0,0,0,0c-0.6,0.8-1,1.9-1,2.9
	C52.3,69.7,52.7,70.7,53.3,71.5z M52,51.9v2.3c-1.3-0.5-2.3-1.8-2.3-3.3c0-1.2,0.6-2.3,1.6-2.9L52,51.9z M54.3,54.2v-2.3l0.7-4
	c1,0.6,1.7,1.7,1.7,3C56.7,52.4,55.7,53.7,54.3,54.2z M44.1,22.1h2.5l4.3,23.8c-1.9,0.9-3.2,2.8-3.2,5c0,2.3,1.4,4.3,3.4,5.1l-7,4
	V22.1z M47.2,81.6h-3.1V62.2l7.9-4.5v6c-2.2,0.5-3.9,2.4-3.9,4.8s1.7,4.3,3.9,4.8v3.3C52,79.4,49.9,81.6,47.2,81.6z M52.4,81.6H52
	c0.4-0.4,0.8-0.9,1.1-1.5c0.2,0.4,0.5,0.8,0.9,1.2C53.5,81.5,52.9,81.6,52.4,81.6z M62.2,81.6l-3.1,0c-0.2,0-0.4,0-0.7-0.1
	c-0.4-0.1-0.6-0.3-1.1-0.8c-0.1-0.1-0.3-0.3-0.4-0.4l-0.7-0.6l-0.5,0.4c-0.9-0.9-1.5-2.1-1.5-3.5v-3.3c0.3-0.1,0.6-0.2,0.9-0.3l0,0
	l0.5-0.3c0,0,0,0,0,0c0.1,0,0.2-0.1,0.2-0.2c0.1-0.1,0.3-0.2,0.4-0.3c0.1-0.1,0.2-0.1,0.2-0.2c0.1-0.1,0.2-0.2,0.3-0.3
	c0.1-0.1,0.2-0.2,0.2-0.3c0.1-0.1,0.2-0.2,0.3-0.4c0.1-0.1,0.2-0.3,0.2-0.4c0.1-0.1,0.1-0.3,0.2-0.4c0-0.1,0.1-0.2,0.1-0.3
	c0-0.1,0.1-0.3,0.1-0.4c0-0.1,0-0.2,0.1-0.3c0-0.2,0.1-0.5,0.1-0.7c0,0,0,0,0,0c0,0,0,0,0,0c0-0.2,0-0.5-0.1-0.7
	c0-0.1,0-0.2-0.1-0.3c0-0.1-0.1-0.3-0.1-0.4c0-0.1-0.1-0.2-0.1-0.3c-0.1-0.1-0.1-0.3-0.2-0.4c-0.1-0.2-0.2-0.3-0.3-0.4
	c-0.1-0.1-0.2-0.2-0.2-0.4c-0.1-0.1-0.1-0.2-0.2-0.3c-0.1-0.1-0.2-0.2-0.3-0.3c-0.1-0.1-0.2-0.1-0.2-0.2c-0.1-0.1-0.2-0.2-0.4-0.3
	c-0.1-0.1-0.2-0.1-0.2-0.2c0,0,0,0,0,0l-0.5-0.3l0,0c-0.3-0.1-0.6-0.2-0.9-0.3v-7.3l0.5-0.3c0.1,0,0.1-0.1,0.2-0.2
	c2.2-0.7,3.8-2.8,3.8-5.2c0-2.3-1.4-4.2-3.3-5l4.3-23.8h2.5V81.6z M54.3,68.6c0-0.8,0.3-1.6,0.9-2.1c0,0,0,0,0,0
	c0.1,0.1,0.2,0.2,0.2,0.3c0.1,0.1,0.1,0.1,0.2,0.2c0.1,0.1,0.1,0.2,0.1,0.3c0,0.1,0.1,0.2,0.1,0.2c0,0.1,0.1,0.2,0.1,0.3
	c0,0.1,0,0.1,0.1,0.2c0,0.2,0.1,0.4,0.1,0.6c0,0.2,0,0.4-0.1,0.6c0,0.1,0,0.1-0.1,0.2c0,0.1-0.1,0.2-0.1,0.4c0,0.1-0.1,0.2-0.1,0.2
	c0,0.1-0.1,0.2-0.2,0.3c0,0.1-0.1,0.1-0.1,0.2c-0.1,0.1-0.2,0.2-0.2,0.3c0,0,0,0,0,0C54.7,70.2,54.3,69.5,54.3,68.6z M67.4,61.3
	h-0.9c-0.6,0-1,0.4-1,1s0.4,1,1,1h0.9v18.2h-3.2V22.1h3.2V61.3z"/>
</svg>
