<?xml version="1.0" encoding="utf-8"?>
<!-- Generator: Adobe Illustrator 19.1.0, SVG Export Plug-In . SVG Version: 6.00 Build 0)  -->
<svg version="1.1" id="Layer_1" xmlns="http://www.w3.org/2000/svg" xmlns:xlink="http://www.w3.org/1999/xlink" x="0px" y="0px"
	 viewBox="0 0 110 106.5" enable-background="new 0 0 110 106.5" xml:space="preserve">
<path d="M44.5,86.4H25c-0.6,0-1-0.4-1-1s0.4-1,1-1h19.5c0.6,0,1,0.4,1,1S45.1,86.4,44.5,86.4z"/>
<path d="M5.5,86.4H3c-0.6,0-1-0.4-1-1s0.4-1,1-1h2.5c0.6,0,1,0.4,1,1S6.1,86.4,5.5,86.4z"/>
<path d="M82.7,86.4H62.2c-0.6,0-1-0.4-1-1s0.4-1,1-1h20.5c0.6,0,1,0.4,1,1S83.3,86.4,82.7,86.4z"/>
<path fill="#00AEEF" d="M53.6,9c-26.5,0-48,21.5-48,48c0,26.5,21.5,48,48,48c26.5,0,48-21.5,48-48C101.6,30.5,80.1,9,53.6,9z
	 M86.7,48v37.5H21.4V48l-4-12.1h37.5l4,11.2L64.4,36h28.5L86.7,48z"/>
<g>
	<path d="M77.8,74.3c-1.8,0-3.2-1.4-3.2-3.2v-3.9H81v3.9C81,72.9,79.6,74.3,77.8,74.3z M75.6,68.2v2.9c0,1.2,1,2.2,2.2,2.2
		s2.2-1,2.2-2.2v-2.9H75.6z"/>
	<rect x="75.2" y="77.9" width="5.2" height="1"/>
	<rect x="77.3" y="73.8" width="1" height="4.6"/>
</g>
<g>
	<polygon points="65.6,71 64.9,70.3 68.6,66.6 72.2,70.3 71.5,71 68.6,68.1 	"/>
	<rect x="68.1" y="67.4" width="1" height="11.4"/>
</g>
<path d="M56.3,23.6c-0.5,0-1-0.4-1-1l-0.1-2.3c0-0.6,0.4-1,1-1c0.6,0,1,0.4,1,1l0.1,2.3C57.3,23.1,56.9,23.6,56.3,23.6
	C56.3,23.6,56.3,23.6,56.3,23.6z"/>
<path d="M55.7,4c-0.5,0-1-0.4-1-1l-0.1-2c0-0.6,0.4-1,1-1c0.6,0,1,0.4,1,1l0.1,2C56.7,3.5,56.3,4,55.7,4C55.7,4,55.7,4,55.7,4z"/>
<path d="M37.1,32.2c-0.2,0-0.5-0.1-0.7-0.3l-9.1-8.6c-0.4-0.4-0.4-1,0-1.4c0.4-0.4,1-0.4,1.4,0l9.1,8.6c0.4,0.4,0.4,1,0,1.4
	C37.6,32.1,37.3,32.2,37.1,32.2z"/>
<path d="M22.4,18.4c-0.2,0-0.5-0.1-0.7-0.3l-1.1-1c-0.4-0.4-0.4-1,0-1.4c0.4-0.4,1-0.4,1.4,0l1.1,1c0.4,0.4,0.4,1,0,1.4
	C23,18.3,22.7,18.4,22.4,18.4z"/>
<path d="M76,31.1c-0.2,0-0.5-0.1-0.7-0.3c-0.4-0.4-0.4-1,0-1.4l0.5-0.5c0.4-0.4,1-0.4,1.4,0c0.4,0.4,0.4,1,0,1.4l-0.5,0.5
	C76.5,31,76.2,31.1,76,31.1z"/>
<path d="M80.4,26.4c-0.2,0-0.5-0.1-0.7-0.3c-0.4-0.4-0.4-1,0-1.4l2.3-2.4c0.4-0.4,1-0.4,1.4,0c0.4,0.4,0.4,1,0,1.4l-2.3,2.4
	C81,26.3,80.7,26.4,80.4,26.4z"/>
<path d="M87.5,18.9c-0.2,0-0.5-0.1-0.7-0.3c-0.4-0.4-0.4-1,0-1.4l3.3-3.5c0.4-0.4,1-0.4,1.4,0c0.4,0.4,0.4,1,0,1.4l-3.3,3.5
	C88.1,18.8,87.8,18.9,87.5,18.9z"/>
<path d="M67.3,25.6c-0.1,0-0.2,0-0.4-0.1c-0.5-0.2-0.8-0.8-0.6-1.3l2.4-5.9c0.2-0.5,0.8-0.8,1.3-0.6c0.5,0.2,0.8,0.8,0.6,1.3
	l-2.4,5.9C68.1,25.3,67.7,25.6,67.3,25.6z"/>
<path d="M46.2,25.8c-0.4,0-0.8-0.2-0.9-0.6L44.4,23c-0.2-0.5,0-1.1,0.5-1.3c0.5-0.2,1.1,0,1.3,0.5l0.9,2.2c0.2,0.5,0,1.1-0.5,1.3
	C46.5,25.8,46.4,25.8,46.2,25.8z"/>
<path d="M106.1,84.4H94.3c5.3-7.8,8.4-17.2,8.4-27.3c0-20-12.1-37.3-29.3-44.9l2.9-7.3c0.2-0.5,0-1.1-0.6-1.3
	c-0.5-0.2-1.1,0-1.3,0.6l-2.9,7.3C65.9,9.3,59.9,8,53.6,8c-4.4,0-8.7,0.6-12.8,1.7l-2.2-5.2c-0.2-0.5-0.8-0.7-1.3-0.5
	c-0.5,0.2-0.7,0.8-0.5,1.3l2.1,5C19.1,16.6,4.6,35.2,4.6,57c0,10.1,3.1,19.5,8.4,27.3H8.8c-0.6,0-1,0.4-1,1s0.4,1,1,1h5.7
	C23.4,98.3,37.6,106,53.6,106s30.3-7.7,39.2-19.7h13.2c0.6,0,1-0.4,1-1S106.6,84.4,106.1,84.4z M91.8,84.4h-6c-0.6,0-1,0.4-1,1
	s0.4,1,1,1h4.4C81.7,97.1,68.5,104,53.6,104S25.6,97.1,17,86.4h4.9c0.6,0,1-0.4,1-1s-0.4-1-1-1h-6.4C9.9,76.7,6.6,67.2,6.6,57
	c0-21.1,13.9-38.9,33.1-44.9l2,4.6c0.2,0.4,0.5,0.6,0.9,0.6c0.1,0,0.3,0,0.4-0.1c0.5-0.2,0.7-0.8,0.5-1.3l-1.9-4.4
	c3.8-1,7.9-1.6,12-1.6c0.4,0,0.9,0,1.3,0l0.1,3.8c0,0.5,0.5,1,1,1c0,0,0,0,0,0c0.6,0,1-0.5,1-1l-0.1-3.7c4.9,0.3,9.6,1.4,13.9,3.2
	c0,0.4,0.3,0.7,0.6,0.8c0.1,0,0.2,0.1,0.4,0.1c0.2,0,0.4-0.1,0.6-0.2C89,21.3,100.6,37.8,100.6,57C100.6,67.2,97.4,76.7,91.8,84.4z"
	/>
<path d="M63.8,35l-4.7,9.6L55.6,35H16.1l4.4,13.2v38.3h67.2V48.3L94.6,35H63.8z M18.8,37h35.4l3.6,10.1H22.2L18.8,37z M22.4,49.1
	h35.4v35.5H22.4V49.1z M85.7,84.5H59.8V49.1h25.9V84.5z M86.1,47.1H60.1l5-10.1h26.2L86.1,47.1z"/>
<path d="M53.1,76.2H42.9c-0.3,0-0.5-0.2-0.5-0.5s0.2-0.5,0.5-0.5h10.1c0.3,0,0.5,0.2,0.5,0.5S53.3,76.2,53.1,76.2z"/>
<path d="M53.1,73.2h-6.1c-0.3,0-0.5-0.2-0.5-0.5s0.2-0.5,0.5-0.5h6.1c0.3,0,0.5,0.2,0.5,0.5S53.3,73.2,53.1,73.2z"/>
<path d="M44.1,73.2h-7.1c-0.3,0-0.5-0.2-0.5-0.5s0.2-0.5,0.5-0.5h7.1c0.3,0,0.5,0.2,0.5,0.5S44.3,73.2,44.1,73.2z"/>
<path d="M53.1,70.2h-9.1c-0.3,0-0.5-0.2-0.5-0.5s0.2-0.5,0.5-0.5h9.1c0.3,0,0.5,0.2,0.5,0.5S53.3,70.2,53.1,70.2z"/>
</svg>
