<?xml version="1.0" encoding="utf-8"?>
<!-- Generator: Adobe Illustrator 19.1.0, SVG Export Plug-In . SVG Version: 6.00 Build 0)  -->
<svg version="1.1" id="Layer_1" xmlns="http://www.w3.org/2000/svg" xmlns:xlink="http://www.w3.org/1999/xlink" x="0px" y="0px"
	 viewBox="0 0 110 106.5" enable-background="new 0 0 110 106.5" xml:space="preserve">
<path fill="#00AEEF" d="M92.8,26.1L54.2,64.6l-0.9-0.9l-2.7,2.7l-5.1,2l2-5.1l2.7-2.7l-1.2-1.2l39.1-39.1c-8.7-9.2-21.1-15-34.8-15
	c-26.5,0-48,21.5-48,48c0,26.5,21.5,48,48,48c26.5,0,48-21.5,48-48C101.4,43.2,98.2,33.8,92.8,26.1z"/>
<path d="M82.4,80.7H24.7c-0.6,0-1,0.4-1,1s0.4,1,1,1h57.7c0.6,0,1-0.4,1-1S83,80.7,82.4,80.7z"/>
<path d="M105.8,80.7H94c5.3-7.8,8.4-17.2,8.4-27.3c0-10.1-3.1-19.4-8.3-27.2l7.1-7.1l-6.6-6.6l-2.9,2.9l-3.3-2l-2.9,2.9
	c-8.6-7.5-19.8-12-32-12c-27,0-49,22-49,49c0,10.1,3.1,19.5,8.4,27.3H8.5c-0.6,0-1,0.4-1,1s0.4,1,1,1h5.7
	c8.9,11.9,23.2,19.7,39.2,19.7s30.3-7.7,39.2-19.7h13.2c0.6,0,1-0.4,1-1S106.3,80.7,105.8,80.7z M94.6,15.4l3.7,3.7l-1.2,1.2
	l-3.7-3.7L94.6,15.4z M91.9,18.1l3.7,3.7l-3.5,3.5l-3.7-3.7L91.9,18.1z M54.2,63.2l-3.7-3.7L87,23l3.7,3.7L54.2,63.2z M51.9,63.7
	l-1.8,1.8l-2.8,1.1l1.1-2.8l1.8-1.8L51.9,63.7z M88.6,16l1.5,0.9l-2,2c-0.4-0.4-0.8-0.8-1.3-1.2L88.6,16z M91.6,80.7h-6
	c-0.6,0-1,0.4-1,1s0.4,1,1,1H90c-8.6,10.8-21.9,17.7-36.7,17.7s-28.1-6.9-36.7-17.7h4.9c0.6,0,1-0.4,1-1s-0.4-1-1-1h-6.4
	C9.6,73,6.4,63.6,6.4,53.4c0-25.9,21.1-47,47-47c11.7,0,22.4,4.3,30.6,11.4l-5.9,5.9l0.8,2.3l1.9-0.6l-0.4-1.2l5.1-5.1
	c0.4,0.4,0.9,0.8,1.3,1.2L47.7,59.5l1.2,1.2l-2.1,2.1l-2,5.1l0,0l-0.4,0c-0.1,0-0.2,0.1-0.2,0.1c-0.1,0.1-0.2,0.2-0.4,0.3
	c0,0,0,0,0,0L43.5,68l-0.4-0.2l-0.4,0l-0.1,0.1c-0.1,0.1-0.2,0.1-0.3,0.2c-0.2,0.1-0.3,0.3-0.4,0.4c-0.2,0.2-0.4,0.4-0.5,0.7
	c0.1-0.2,0.1-0.4,0.2-0.5c0.1-0.3,0.1-0.6,0-1l-0.2-0.2l-0.4-0.2l-0.4,0c-0.1,0-0.1,0-0.2,0.1c-0.1,0-0.2,0.1-0.3,0.2
	c-0.1,0.1-0.2,0.2-0.3,0.4l-0.2,0.3c-0.2,0.3-0.4,0.6-0.7,0.9c-0.2,0.3-0.4,0.5-0.6,0.8l-0.7,1c-0.2,0.3-0.8,1.1-0.8,1.1
	c-0.1,0.1-0.2,0.3-0.3,0.4l-0.1,0.1c-0.1,0.1-0.2,0.2-0.2,0.3c0-0.7,0-1.4-0.1-2.3c0-0.3-0.1-0.5-0.2-0.7l0-0.1l-0.2-0.2l-0.4-0.2
	L35,69.4c-0.1,0-0.1,0.1-0.2,0.2c-0.1,0.1-0.2,0.1-0.3,0.3c-0.2,0.2-0.3,0.5-0.5,0.8l-0.1,0.2c0-0.1,0-0.2,0-0.3
	c0.1-0.3,0.2-0.6,0.3-1l0.2-0.7c0.1-0.4,0.3-0.8,0.4-1.2c0.2-0.5,0.3-1,0.3-1.6c0-0.3,0-0.6-0.1-0.9L34.9,65l-0.3-0.2l-0.2-0.1
	c-0.1,0-0.1,0-0.2,0c-0.2,0-0.3,0.1-0.4,0.2L33.7,65c-0.2,0.4-0.3,0.8-0.4,1.3c-0.1,0.5-0.3,1.1-0.4,1.7c0,0.2-0.1,0.4-0.1,0.7
	l-0.1,0.5c0,0.2-0.1,0.4-0.1,0.5c-0.1,0.4-0.2,0.7-0.3,1.1L32.2,71c-0.1,0.4-0.7,2.1-0.7,2.1c-0.1,0.3-0.2,0.6-0.3,0.9
	c-0.1,0.5-0.3,0.9-0.4,1.4c-0.1,0.5-0.3,1-0.4,1.5c-0.1,0.5-0.3,1-0.4,1.6c0,0.3-0.1,0.6,0.2,1l0.2,0.2l0.4,0.1l0.4-0.1
	c0.1,0,0.2-0.1,0.3-0.3c0.1-0.2,0.2-0.4,0.3-0.6c0.1-0.2,0.2-0.4,0.2-0.6l0.1-0.4c0.1,0.1,0.1,0.1,0.2,0.2l0.3,0.1l0.3,0l0.3-0.4
	l0-0.3c0-0.2,0-0.4,0-0.5c0-0.3,0-0.7,0-1l0-0.3c0-0.2,0-0.5,0.1-0.6c0-0.1,0.1-0.3,0.2-0.4l0.2-0.4c0.2-0.4,0.4-0.8,0.6-1.2
	c0.2-0.4,0.4-0.7,0.5-0.9c0,0,0-0.1,0-0.1c0,0.1,0,0.1,0,0.2c0,0.6,0,1.2,0,1.9c0,0.1,0,0.3,0.1,0.4c0,0.2,0.2,0.3,0.3,0.5
	c0.2,0.1,0.4,0.2,0.6,0.2l0.1,0l0.1,0c0.3-0.1,0.6-0.2,0.7-0.4l0.1-0.1c0.1-0.1,0.2-0.2,0.3-0.3l0.1-0.2c0.1-0.2,0.3-0.4,0.4-0.5
	c0.1-0.1,0.1-0.2,0.2-0.3c0.2-0.2,0.3-0.4,0.5-0.7l0.9-1.3c0,0.1-0.1,0.2-0.1,0.3c0,0.1,0,0.2-0.1,0.4l0,0.1l0.1,0.3l0.3,0.3
	l0.3,0.1c0.1,0,0.1,0,0.2,0l0.1,0c0.1,0,0.2,0,0.3-0.1c0.2-0.1,0.4-0.3,0.5-0.4l1.7-2.2c0,0,0.1,0.1,0.1,0.1
	c0.2,0.1,0.4,0.2,0.6,0.2c0,0,0.1,0,0.1,0c0.3-0.1,0.5-0.2,0.7-0.3l7-2.8l2.1-2.1l0.9,0.9l38.4-38.4c4.9,7.4,7.7,16.3,7.7,25.8
	C100.4,63.6,97.1,73,91.6,80.7z"/>
</svg>
