<?xml version="1.0" encoding="utf-8"?>
<!-- Generator: Adobe Illustrator 19.1.0, SVG Export Plug-In . SVG Version: 6.00 Build 0)  -->
<svg version="1.1" id="Layer_1" xmlns="http://www.w3.org/2000/svg" xmlns:xlink="http://www.w3.org/1999/xlink" x="0px" y="0px"
	 viewBox="0 0 110 106.5" enable-background="new 0 0 110 106.5" xml:space="preserve">
<path fill="#00AEEF" d="M90.7,40c3.2,0,6.1,1.3,8.1,3.5C93.7,23,75.2,7.7,53.2,7.7c-25.9,0-47,21.1-47,47s21.1,47,47,47
	c25,0,45.5-19.7,46.9-44.4c-2,3.1-5.5,5.1-9.4,5.1c-6.2,0-11.3-5-11.3-11.3S84.5,40,90.7,40z"/>
<path d="M21.4,84.1H8.3c-0.6,0-1-0.4-1-1s0.4-1,1-1h13.1c0.6,0,1,0.4,1,1S22,84.1,21.4,84.1z"/>
<path d="M105.6,84.1H85.4c-0.6,0-1-0.4-1-1s0.4-1,1-1h20.2c0.6,0,1,0.4,1,1S106.1,84.1,105.6,84.1z"/>
<g>
	<path d="M22.7,63.7c-5.1,0-9.8-3.2-11.6-8c-0.2-0.5,0.1-1.1,0.6-1.3c0.5-0.2,1.1,0.1,1.3,0.6c1.5,4,5.5,6.7,9.8,6.7
		c5.8,0,10.5-4.7,10.5-10.5s-4.7-10.5-10.5-10.5c-4.3,0-8.2,2.7-9.8,6.7c-0.2,0.5-0.8,0.8-1.3,0.6c-0.5-0.2-0.8-0.8-0.6-1.3
		c1.8-4.8,6.5-8,11.6-8c6.9,0,12.5,5.6,12.5,12.5S29.6,63.7,22.7,63.7z"/>
	<path d="M20.8,52.2h-15c-0.6,0-1-0.4-1-1s0.4-1,1-1h15c0.6,0,1,0.4,1,1S21.4,52.2,20.8,52.2z"/>
	<path d="M17.9,55.6c-0.3,0-0.5-0.1-0.7-0.3c-0.4-0.4-0.4-1,0-1.4l2.7-2.7l-2.7-2.7c-0.4-0.4-0.4-1,0-1.4s1-0.4,1.4,0l3.4,3.4
		c0.4,0.4,0.4,1,0,1.4l-3.4,3.4C18.4,55.5,18.1,55.6,17.9,55.6z"/>
</g>
<path d="M90.7,63.5c-6.8,0-12.3-5.5-12.3-12.3c0-6.8,5.5-12.3,12.3-12.3s12.3,5.5,12.3,12.3C102.9,58,97.4,63.5,90.7,63.5z M90.7,41
	c-5.7,0-10.3,4.6-10.3,10.3S85,61.5,90.7,61.5s10.3-4.6,10.3-10.3S96.3,41,90.7,41z"/>
<path d="M88.6,56c-0.2,0-0.4-0.1-0.6-0.2l-3.5-2.9c-0.4-0.3-0.5-1-0.1-1.4c0.4-0.4,1-0.5,1.4-0.1l2.8,2.3l6.9-6.9
	c0.4-0.4,1-0.4,1.4,0s0.4,1,0,1.4l-7.5,7.5C89.2,55.9,88.9,56,88.6,56z"/>
<g>
	<path d="M72.1,50.5l-3.4-3.4c-0.4-0.4-1-0.4-1.4,0s-0.4,1,0,1.4l1.7,1.7H56c-0.6,0-1,0.4-1,1s0.4,1,1,1h13l-1.7,1.7
		c-0.4,0.4-0.4,1,0,1.4c0.2,0.2,0.5,0.3,0.7,0.3s0.5-0.1,0.7-0.3l3.4-3.4C72.5,51.6,72.5,50.9,72.1,50.5z"/>
	<g>
		<path d="M54.5,63.7c-6.9,0-12.5-5.6-12.5-12.5s5.6-12.5,12.5-12.5c4.9,0,9.4,2.9,11.4,7.4c0.2,0.5,0,1.1-0.5,1.3
			c-0.5,0.2-1.1,0-1.3-0.5c-1.7-3.8-5.4-6.2-9.5-6.2c-5.8,0-10.5,4.7-10.5,10.5s4.7,10.5,10.5,10.5c3.9,0,7.5-2.2,9.3-5.7
			c0.2-0.5,0.9-0.7,1.3-0.4c0.5,0.3,0.7,0.9,0.4,1.3C63.5,61.1,59.2,63.7,54.5,63.7z"/>
	</g>
</g>
<path d="M84.7,17.3c-0.5-0.2-1.1,0.2-1.2,0.7L65.2,82.1H30L51.7,7c0.2-0.5-0.2-1.1-0.7-1.2c-0.5-0.2-1.1,0.2-1.2,0.7L28,82.1h-3.5
	c-0.6,0-1,0.4-1,1s0.4,1,1,1h57.7c0.6,0,1-0.4,1-1s-0.4-1-1-1h-15l18.1-63.5C85.5,18,85.2,17.5,84.7,17.3z"/>
</svg>
