<?xml version="1.0" encoding="utf-8"?>
<!-- Generator: Adobe Illustrator 19.1.0, SVG Export Plug-In . SVG Version: 6.00 Build 0)  -->
<svg version="1.1" id="Layer_1" xmlns="http://www.w3.org/2000/svg" xmlns:xlink="http://www.w3.org/1999/xlink" x="0px" y="0px"
	 viewBox="0 0 110 106.5" enable-background="new 0 0 110 106.5" xml:space="preserve">
<g>
	<path fill="#00AEEF" d="M89.5,22.7L57.8,54.3l-0.9-0.9l-2.7,2.7l-5.1,2l2-5.1l2.7-2.7l-1.2-1.2L84,17.8C75.9,11.7,65.9,8,54.9,8
		c-26.5,0-48,21.5-48,48c0,26.5,21.5,48,48,48c26.5,0,48-21.5,48-48C102.9,43.1,97.8,31.3,89.5,22.7z"/>
	<path d="M6.8,85.4H4.3c-0.6,0-1-0.4-1-1s0.4-1,1-1h2.5c0.6,0,1,0.4,1,1S7.4,85.4,6.8,85.4z"/>
	<path d="M84,83.4H26.3c-0.6,0-1,0.4-1,1s0.4,1,1,1H84c0.6,0,1-0.4,1-1S84.6,83.4,84,83.4z"/>
	<path d="M43.1,33c0.9-0.8,1.5-2,1.5-3.4c0-2.5-2.1-4.6-4.6-4.6l-0.8,0v-3.4h-2v3.4l-2.4,0v-3.4h-2v3.4l-3.3,0l0,2l3.3,0v5.2l-3.3,0
		l0,2l3.3,0v6.3l-3.3,0l0,2l3.3,0v3.1h2v-3.1l2,0v3.1h2v-3.1l1.7,0c2.8,0,5.1-2.3,5.1-5.1C45.5,35.5,44.5,33.9,43.1,33z M40,27
		c1.4,0,2.6,1.2,2.6,2.6c0,1.4-1.2,2.6-2.6,2.6h-5.3v-5.1L40,27z M40.4,40.5l-5.6,0v-6.3l5.6,0c1.7,0,3.1,1.4,3.1,3.1
		S42.1,40.5,40.4,40.5z"/>
	<path d="M107.4,83.4H95.6c5.3-7.8,8.4-17.2,8.4-27.3c0-12.9-5-24.6-13.1-33.3l13.8-13.8l-6.6-6.6l-2.9,2.9l-3.3-2L81.7,13.4l0.7,2
		C74.5,10.1,65.1,7,54.9,7c-27,0-49,22-49,49c0,10.1,3.1,19.5,8.4,27.3h-4.2c-0.6,0-1,0.4-1,1s0.4,1,1,1h5.7
		C24.7,97.3,38.9,105,54.9,105c16,0,30.3-7.7,39.2-19.7h13.2c0.6,0,1-0.4,1-1S107.9,83.4,107.4,83.4z M57.8,52.9l-3.7-3.7l36.4-36.4
		l3.7,3.7L57.8,52.9z M55.5,53.4l-1.8,1.8l-2.8,1.1l1.1-2.8l1.8-1.8L55.5,53.4z M101.8,8.9l-1.2,1.2l-3.7-3.7l1.2-1.2 M95.5,7.8
		l3.7,3.7l-3.5,3.5l-3.7-3.7L95.5,7.8z M84,14l8.2-8.2l1.5,0.9l-9.8,9.8c-0.4-0.3-0.8-0.6-1.2-0.8l1.6-0.5L84,14z M93.1,83.4h-6
		c-0.6,0-1,0.4-1,1s0.4,1,1,1h4.4C83,96.1,69.8,103,54.9,103c-14.8,0-28.1-6.9-36.7-17.7h4.9c0.6,0,1-0.4,1-1s-0.4-1-1-1h-6.4
		C11.2,75.6,7.9,66.2,7.9,56c0-25.9,21.1-47,47-47c10.3,0,19.8,3.3,27.5,8.9L51.2,49.2l1.2,1.2l-2.1,2.1l-2.9,7.4l7.4-2.9l2.1-2.1
		l0.9,0.9l31.6-31.6c7.8,8.4,12.5,19.6,12.5,31.9C101.9,66.2,98.7,75.6,93.1,83.4z"/>
	<g>
		<path d="M30,62c1.7,0,3.1,0.6,4.1,1.9s1.5,3.1,1.5,5.6s-0.5,4.3-1.5,5.6S31.8,77,30,77s-3.1-0.6-4.2-1.9c-1-1.3-1.5-3.1-1.5-5.6
			c0-2.4,0.5-4.3,1.5-5.6C26.9,62.7,28.3,62,30,62z M33.8,69.5c0-1.9-0.3-3.3-1-4.3c-0.6-1-1.6-1.5-2.8-1.5s-2.2,0.5-2.8,1.5
			c-0.6,1-1,2.4-1,4.3s0.3,3.3,1,4.3c0.6,1,1.6,1.5,2.8,1.5s2.2-0.5,2.8-1.5C33.5,72.8,33.8,71.4,33.8,69.5z"/>
		<path d="M46.7,72c0-1.8-1.2-2.7-3.6-2.7h-3.9l0.6-7h8v1.7h-6.3l-0.4,4.2c0.8-0.1,1.6-0.2,2.3-0.2c1.6,0,2.8,0.3,3.7,1
			c0.9,0.7,1.4,1.8,1.4,3.2c0,1.4-0.5,2.6-1.4,3.5c-1,0.9-2.2,1.4-3.7,1.4c-1.5,0-2.7-0.4-3.7-1.1c-1-0.8-1.4-1.8-1.4-3.1h1.8
			c0,1.3,0.6,2.1,1.9,2.5c0.4,0.1,0.8,0.2,1.3,0.2c1,0,1.8-0.3,2.4-0.9C46.4,73.8,46.7,73,46.7,72z"/>
		<path d="M56.7,62c1.7,0,3.1,0.6,4.1,1.9c1,1.3,1.5,3.1,1.5,5.6s-0.5,4.3-1.5,5.6c-1,1.3-2.4,1.9-4.1,1.9s-3.1-0.6-4.2-1.9
			c-1-1.3-1.5-3.1-1.5-5.6c0-2.4,0.5-4.3,1.5-5.6C53.6,62.7,54.9,62,56.7,62z M60.5,69.5c0-1.9-0.3-3.3-1-4.3
			c-0.6-1-1.6-1.5-2.8-1.5s-2.2,0.5-2.8,1.5c-0.6,1-1,2.4-1,4.3s0.3,3.3,1,4.3c0.6,1,1.6,1.5,2.8,1.5s2.2-0.5,2.8-1.5
			C60.1,72.8,60.5,71.4,60.5,69.5z"/>
		<path d="M73.9,62.3v1.7l-6.6,12.8h-2.4L71.8,64h-7.7v-1.7H73.9z"/>
		<path d="M78.9,69.4c-1.9-0.9-2.9-2.1-2.9-3.6c0-1.2,0.5-2.1,1.4-2.8c1-0.7,2.2-1.1,3.8-1.1c1.6,0,2.9,0.4,3.9,1.1
			c1,0.8,1.5,1.7,1.5,2.9c0,0.8-0.3,1.5-0.8,2.1s-1.3,1-2.3,1.2l0.4,0.1c1.1,0.4,1.9,0.9,2.4,1.4c0.6,0.5,0.9,1.3,0.9,2.2
			c0,1.2-0.5,2.1-1.6,2.8S83.2,77,81.5,77c-1.8,0-3.2-0.4-4.3-1.2c-1.1-0.8-1.6-1.8-1.6-2.9c0-1,0.3-1.7,0.9-2.3
			C77.1,70,77.9,69.6,78.9,69.4z M80.7,70.1c-1,0.1-1.7,0.4-2.3,0.9c-0.6,0.5-0.9,1.1-0.9,1.9c0,0.7,0.4,1.3,1.1,1.8
			c0.7,0.5,1.7,0.7,2.9,0.7s2.1-0.2,2.8-0.6c0.7-0.4,1-0.9,1-1.4s-0.2-1-0.6-1.4c-0.4-0.3-0.9-0.6-1.5-0.9L80.7,70.1z M78,66.1
			c0,0.4,0.2,0.8,0.5,1.1c0.3,0.3,0.8,0.6,1.4,0.8l1.7,0.6c0.9,0,1.7-0.3,2.3-0.7c0.6-0.5,0.9-1,0.9-1.8s-0.3-1.3-0.9-1.8
			c-0.6-0.5-1.4-0.7-2.4-0.7s-1.8,0.2-2.5,0.7C78.3,64.8,78,65.4,78,66.1z"/>
	</g>
</g>
</svg>
