<?xml version="1.0" encoding="utf-8"?>
<!-- Generator: Adobe Illustrator 19.1.0, SVG Export Plug-In . SVG Version: 6.00 Build 0)  -->
<svg version="1.1" id="Layer_1" xmlns="http://www.w3.org/2000/svg" xmlns:xlink="http://www.w3.org/1999/xlink" x="0px" y="0px"
	 viewBox="0 0 110 106.5" enable-background="new 0 0 110 106.5" xml:space="preserve">
<path fill="#00AEEF" d="M82.1,80.5H60.9H50.6h-5H15.4c8.7,11.9,22.8,19.7,38.7,19.7s30-7.7,38.7-19.7H82.1z"/>
<path fill="#00AEEF" d="M102.1,52.2c0-26.5-21.5-48-48-48c-26.5,0-48,21.5-48,48c0,9.8,2.9,18.9,8,26.5V49h31.5h5h10.3h21.2h15.3
	v23.9C100.4,66.6,102.1,59.6,102.1,52.2z M78.5,48.4H63.2H31.7V16.9h31.5h15.3V48.4z"/>
<path d="M45,81.5H25.4c-0.6,0-1-0.4-1-1s0.4-1,1-1H45c0.6,0,1,0.4,1,1S45.5,81.5,45,81.5z"/>
<path d="M6,81.5H3.5c-0.6,0-1-0.4-1-1s0.4-1,1-1H6c0.6,0,1,0.4,1,1S6.5,81.5,6,81.5z"/>
<path d="M83.2,81.5H62.7c-0.6,0-1-0.4-1-1s0.4-1,1-1h20.5c0.6,0,1,0.4,1,1S83.7,81.5,83.2,81.5z"/>
<g>
	<path d="M29.1,67.7c-0.3,0-0.5-0.1-0.7-0.3l-1.9-2c-0.4-0.4-0.4-1,0-1.4c0.4-0.4,1-0.4,1.4,0l1.2,1.2l3.5-3.2
		c0.4-0.4,1-0.4,1.4,0.1c0.4,0.4,0.4,1-0.1,1.4l-4.2,3.9C29.6,67.6,29.4,67.7,29.1,67.7z"/>
	<path d="M30.2,73.7c-4.9,0-8.9-4-8.9-8.9s4-8.9,8.9-8.9s8.9,4,8.9,8.9S35.1,73.7,30.2,73.7z M30.2,57.8c-3.8,0-6.9,3.1-6.9,6.9
		c0,3.8,3.1,6.9,6.9,6.9s6.9-3.1,6.9-6.9C37.1,60.9,34,57.8,30.2,57.8z"/>
</g>
<g>
	<path d="M65.7,67.7c-0.3,0-0.5-0.1-0.7-0.3l-1.9-2c-0.4-0.4-0.4-1,0-1.4c0.4-0.4,1-0.4,1.4,0l1.2,1.2l3.5-3.2
		c0.4-0.4,1-0.4,1.4,0.1s0.4,1-0.1,1.4l-4.2,3.9C66.2,67.6,65.9,67.7,65.7,67.7z"/>
	<path d="M66.7,73.7c-4.9,0-8.9-4-8.9-8.9s4-8.9,8.9-8.9s8.9,4,8.9,8.9S71.7,73.7,66.7,73.7z M66.7,57.8c-3.8,0-6.9,3.1-6.9,6.9
		c0,3.8,3.1,6.9,6.9,6.9s6.9-3.1,6.9-6.9C73.7,60.9,70.6,57.8,66.7,57.8z"/>
</g>
<path d="M106.5,79.5h-8.1V73c3-6.3,4.7-13.4,4.7-20.8c0-27-22-49-49-49s-49,22-49,49c0,9.9,2.9,19,8,26.7v0.6H9.2c-0.6,0-1,0.4-1,1
	s0.4,1,1,1h5.7c8.9,11.9,23.2,19.7,39.2,19.7s30.2-7.7,39.2-19.7h13.2c0.6,0,1-0.4,1-1S107.1,79.5,106.5,79.5z M7.1,52.2
	c0-25.9,21.1-47,47-47s47,21.1,47,47c0,5.5-1,10.7-2.7,15.6V48H79.5V15.9H30.7V48H13.1v27C9.3,68.3,7.1,60.5,7.1,52.2z M32.7,47.4
	V17.9h29.5v29.5H32.7z M49.6,50v29.5h-3V50H49.6z M15.1,79.5V50h29.5v29.5H22.3H15.1z M51.6,50h29.5v29.5H51.6V50z M64.2,47.4V17.9
	h13.3v29.5H64.2z M54.1,99.2c-14.8,0-28-6.9-36.7-17.7h4.9h27.3h12.3h24.5h4.4C82.2,92.3,68.9,99.2,54.1,99.2z M96.4,79.5H86.3h-3.2
	V50h13.3V79.5z"/>
<g>
	<path d="M46.8,35.6c-0.3,0-0.5-0.1-0.7-0.3l-1.9-2c-0.4-0.4-0.4-1,0-1.4c0.4-0.4,1-0.4,1.4,0l1.2,1.2l3.5-3.2
		c0.4-0.4,1-0.4,1.4,0.1c0.4,0.4,0.4,1-0.1,1.4l-4.2,3.9C47.3,35.5,47,35.6,46.8,35.6z"/>
	<path d="M47.9,41.6c-4.9,0-8.9-4-8.9-8.9s4-8.9,8.9-8.9s8.9,4,8.9,8.9S52.8,41.6,47.9,41.6z M47.9,25.7c-3.8,0-6.9,3.1-6.9,6.9
		s3.1,6.9,6.9,6.9s6.9-3.1,6.9-6.9S51.7,25.7,47.9,25.7z"/>
</g>
</svg>
