<?xml version="1.0" encoding="utf-8"?>
<!-- Generator: Adobe Illustrator 19.1.0, SVG Export Plug-In . SVG Version: 6.00 Build 0)  -->
<svg version="1.1" id="Layer_1" xmlns="http://www.w3.org/2000/svg" xmlns:xlink="http://www.w3.org/1999/xlink" x="0px" y="0px"
	 viewBox="0 0 110 106.5" enable-background="new 0 0 110 106.5" xml:space="preserve">
<path fill="#00AEEF" d="M60.2,8.9v7.4h-2.6v7.6c5.3,0.4,10.2,2.2,14.3,5c0.9-1.1,1.9-2.5,2.2-2.9l-1.4-1l2.9-3.9l5.5,4l-2.9,3.9
	L77,28.1l-2.5,2.7c6.8,5.6,11.2,14.1,11.2,23.6C85.6,71.3,71.9,85,55,85c-16.9,0-30.6-13.7-30.6-30.6c0-16.1,12.4-29.2,28.1-30.5
	v-7.6h-3.1V9C25.6,11.8,7,32.1,7,56.7c0,26.5,21.5,48,48,48s48-21.5,48-48C103,31.9,84.3,11.5,60.2,8.9z"/>
<rect x="74.1" y="22.8" transform="matrix(0.8097 0.5868 -0.5868 0.8097 30.1942 -39.3148)" fill="#FFFFFF" width="3.3" height="8.1"/>
<path d="M55.1,79.6c-14,0-25.3-11.4-25.3-25.3c0-14,11.4-25.3,25.3-25.3s25.3,11.4,25.3,25.3C80.4,68.2,69,79.6,55.1,79.6z
	 M55.1,30.9c-12.9,0-23.3,10.5-23.3,23.3c0,12.9,10.5,23.3,23.3,23.3s23.3-10.5,23.3-23.3C78.4,41.4,67.9,30.9,55.1,30.9z"/>
<path fill="#00AEEF" d="M59.7,8.9c-1.5-0.1-3-0.2-4.6-0.2S52,8.7,50.4,8.9H59.7z"/>
<path d="M55.1,67c-2.1,0-3.8-1.7-3.8-3.8v-5.9c-2.7-1.4-4.4-4.2-4.4-7.3c0-4.5,3.7-8.2,8.2-8.2c4.5,0,8.2,3.7,8.2,8.2
	c0,3.1-1.7,5.9-4.4,7.3v5.9C58.8,65.3,57.2,67,55.1,67z M55.1,43.8c-3.4,0-6.2,2.8-6.2,6.2c0,2.5,1.5,4.8,3.8,5.7l0.6,0.3v7.2
	c0,1,0.8,1.8,1.8,1.8s1.8-0.8,1.8-1.8v-7.2l0.6-0.3c2.3-1,3.8-3.2,3.8-5.7C61.3,46.6,58.5,43.8,55.1,43.8z"/>
<path d="M107.5,84H95.7c5.3-7.8,8.4-17.2,8.4-27.3c0-23.5-16.7-43.2-38.8-47.9C64,4.3,59.9,1,55,1c-4.9,0-9,3.3-10.3,7.8
	C22.7,13.5,6,33.2,6,56.7C6,66.8,9.1,76.2,14.4,84h-4.2c-0.6,0-1,0.4-1,1s0.4,1,1,1h5.7C24.8,97.9,39,105.7,55,105.7
	S85.3,97.9,94.3,86h13.2c0.6,0,1-0.4,1-1S108,84,107.5,84z M63.7,11.7c0,3.5-2.1,6.6-5.1,7.9v-2.2h2.6v-7.3c0.8,0.1,1.6,0.2,2.4,0.4
	C63.6,10.9,63.7,11.3,63.7,11.7z M74.5,27.5l1.1,0.8l-1,1.3c-0.3-0.3-0.7-0.5-1-0.8L74.5,27.5z M74.1,24.8l1.7-2.3l3.9,2.8L78,27.5
	L74.1,24.8z M74.9,32.5c6,5.4,9.7,13.2,9.7,21.9C84.6,70.8,71.4,84,55,84c-16.3,0-29.6-13.3-29.6-29.6c0-16.3,13.3-29.6,29.6-29.6
	c5.8,0,11.1,1.7,15.7,4.5L74.9,32.5z M51.5,17.3v2.2c-1.2-0.5-2.2-1.3-3-2.2H51.5z M50.4,15.3V9.9c0,0,0.1,0,0.1,0h1.3v5.4H50.4z
	 M56.5,17.3v2.8c-0.5,0.1-1,0.1-1.5,0.1c-0.5,0-1-0.1-1.5-0.1v-2.8H56.5z M53.9,15.3V9.9h2v5.4H53.9z M55,22.3c0.5,0,1,0,1.5-0.1
	v0.6c-0.5,0-1,0-1.5,0s-1,0-1.5,0v-0.6C54,22.3,54.5,22.3,55,22.3z M57.9,15.3V9.9h1.3v5.4H57.9z M55,3c3.6,0,6.7,2.2,8,5.3
	c-0.6-0.1-1.2-0.2-1.8-0.3V7.9h-1.6c-1.5-0.1-3-0.2-4.6-0.2c-1.5,0-3.1,0.1-4.6,0.2h-2.1v0.2c-0.5,0.1-0.9,0.1-1.4,0.2
	C48.3,5.2,51.4,3,55,3z M46.4,10.5c0.7-0.1,1.3-0.2,2-0.3v7.1c-1.3-1.5-2.1-3.5-2.1-5.6C46.4,11.3,46.4,10.9,46.4,10.5z M93.2,84h-6
	c-0.6,0-1,0.4-1,1s0.4,1,1,1h4.4c-8.6,10.8-21.9,17.7-36.7,17.7S27,96.8,18.4,86h4.9c0.6,0,1-0.4,1-1s-0.4-1-1-1h-6.4
	C11.3,76.3,8,66.9,8,56.7c0-22.2,15.5-40.9,36.3-45.8c0,0.3,0,0.5,0,0.8c0,4.6,3,8.6,7.1,10.1V23c-15.8,1.8-28.1,15.2-28.1,31.4
	c0,13.5,8.5,25.1,20.5,29.6H26.4c-0.6,0-1,0.4-1,1s0.4,1,1,1h57.7c0.6,0,1-0.4,1-1s-0.4-1-1-1H66.2c11.9-4.5,20.5-16.1,20.5-29.6
	c0-9.3-4.1-17.7-10.5-23.5l1.1-1.5l1.3,0.9l4-5.6l-7.1-5.1l-4,5.6l1.5,1.1l-1,1.4c-3.9-2.5-8.5-4.1-13.3-4.7v-1.3
	c4.2-1.5,7.1-5.4,7.1-10.1c0-0.3,0-0.5,0-0.8C86.5,15.7,102,34.4,102,56.7C102,66.9,98.8,76.3,93.2,84z"/>
<path fill="none" stroke="#000000" stroke-width="2" stroke-miterlimit="10" d="M78.5,21.1"/>
<path fill="none" stroke="#000000" stroke-width="2" stroke-miterlimit="10" d="M75.2,25.2"/>
</svg>
