<?xml version="1.0" encoding="UTF-8" standalone="no"?>
<svg
   xmlns:dc="http://purl.org/dc/elements/1.1/"
   xmlns:cc="http://creativecommons.org/ns#"
   xmlns:rdf="http://www.w3.org/1999/02/22-rdf-syntax-ns#"
   xmlns:svg="http://www.w3.org/2000/svg"
   xmlns="http://www.w3.org/2000/svg"
   viewBox="0 0 466.66666 466.66666"
   height="466.66666"
   width="466.66666"
   xml:space="preserve"
   id="svg2"
   version="1.1"><metadata
     id="metadata8"><rdf:RDF><cc:Work
         rdf:about=""><dc:format>image/svg+xml</dc:format><dc:type
           rdf:resource="http://purl.org/dc/dcmitype/StillImage" /></cc:Work></rdf:RDF></metadata><defs
     id="defs6" /><g
     transform="matrix(1.3333333,0,0,-1.3333333,0,466.66667)"
     id="g10"><g
       transform="scale(0.1)"
       id="g12"><path
         id="path14"
         style="fill:#63bbeb;fill-opacity:1;fill-rule:nonzero;stroke:none"
         d="m 833.129,2064.51 c 0,0 -1.668,-3.86 -3.899,-10.87 -2.253,-7 -5.472,-17 -9.335,-29 -4.157,-11.91 -7.7,-26.19 -11.825,-41.4 -4.41,-15.14 -7.832,-31.6 -11.363,-48.03 -3.914,-16.36 -6.285,-33.01 -8.941,-48.54 -2.911,-15.5 -4.231,-30.16 -5.778,-42.67 -1.515,-12.51 -2.75,-22.95 -3.066,-30.3 -0.504,-7.34 -0.793,-11.53 -0.793,-11.53 l 14.961,-1.06 c 0,0 0.285,4.13 0.781,11.35 0.309,7.25 1.524,17.52 3.024,29.85 1.523,12.31 2.816,26.76 5.683,42.02 2.621,15.29 4.945,31.69 8.809,47.8 3.476,16.18 6.843,32.39 11.191,47.3 4.063,14.97 7.543,29.04 11.645,40.77 3.8,11.81 6.968,21.66 9.187,28.55 2.195,6.9 3.84,10.71 3.84,10.71 l -14.121,5.05" /><path
         id="path16"
         style="fill:#479ada;fill-opacity:1;fill-rule:nonzero;stroke:none"
         d="m 2751.39,1724.77 c 0,0 0.39,8.04 -0.17,22.1 -0.46,14.06 -0.48,34.18 -2.71,58.21 -3.38,48.08 -12.39,112 -28.72,174.23 -15.95,62.34 -38.89,122.65 -59.14,166.41 -10.6,21.65 -19.21,39.83 -26.04,52.13 -6.84,12.28 -10.75,19.31 -10.75,19.31 l -13.07,-7.38 c 0,0 3.86,-6.91 10.6,-19.01 6.73,-12.1 15.2,-30.01 25.63,-51.33 19.95,-43.09 42.54,-102.49 58.25,-163.88 16.08,-61.29 24.95,-124.25 28.28,-171.61 2.2,-23.66 2.21,-43.47 2.67,-57.32 0.56,-13.85 0.17,-21.76 0.17,-21.76 l 15,-0.1" /><path
         id="path18"
         style="fill:#2d6ba5;fill-opacity:1;fill-rule:nonzero;stroke:none"
         d="m 2612.28,2237.47 c 0,0 -4.25,6.82 -11.7,18.75 -3.79,5.92 -8.08,13.32 -13.57,21.43 -5.59,8.05 -11.9,17.12 -18.77,27.02 -27.98,39.26 -68.81,89.21 -115.08,133.93 -46.08,44.86 -96.67,84.98 -136.9,111.58 -19.91,13.59 -37.3,23.72 -49.1,31.37 -12.27,6.9 -19.27,10.83 -19.27,10.83 l -7.37,-13.06 c 0,0 6.9,-3.88 18.98,-10.66 11.61,-7.55 28.74,-17.52 48.35,-30.9 39.63,-26.2 89.47,-65.73 134.85,-109.91 45.57,-44.04 85.78,-93.24 113.32,-131.89 6.78,-9.75 12.99,-18.68 18.49,-26.61 5.41,-7.98 9.63,-15.27 13.37,-21.1 7.33,-11.75 11.52,-18.47 11.52,-18.47 l 12.88,7.69" /><path
         id="path20"
         style="fill:#235583;fill-opacity:1;fill-rule:nonzero;stroke:none"
         d="m 2227.48,2603.8 c 0,0 -1.76,0.97 -5.07,2.77 -3.37,1.68 -8.32,4.13 -14.63,7.25 -12.58,6.28 -30.48,15.44 -52.77,24.68 -44.15,19.31 -104.96,40.98 -167.69,55.27 -62.64,14.66 -126.73,22.26 -174.91,24.43 -24.09,0.72 -44.2,1.36 -58.25,1.07 -14.07,-0.38 -22.1,-0.59 -22.1,-0.59 l 0.48,-14.99 c 0,0 7.91,0.21 21.76,0.58 13.85,0.29 33.65,-0.35 57.38,-1.05 47.45,-2.14 110.57,-9.62 172.25,-24.06 61.78,-14.07 121.65,-35.42 165.13,-54.43 21.95,-9.09 39.57,-18.12 51.97,-24.3 6.2,-3.07 11.08,-5.48 14.4,-7.13 3.26,-1.78 4.99,-2.73 4.99,-2.73 l 7.06,13.23" /><path
         id="path22"
         style="fill:#3883c6;fill-opacity:1;fill-rule:nonzero;stroke:none"
         d="m 1708.69,2717.82 c 0,0 -8.01,-0.61 -22.04,-1.65 -7.01,-0.63 -15.56,-0.92 -25.28,-2.13 -9.73,-1.2 -20.7,-2.54 -32.66,-4.01 -47.76,-6.56 -110.99,-19.48 -172.09,-39.62 -61.25,-19.71 -119.94,-46.53 -162.36,-69.42 -10.53,-5.87 -20.19,-11.24 -28.75,-16.01 -8.55,-4.78 -15.62,-9.59 -21.64,-13.22 -11.94,-7.44 -18.76,-11.7 -18.76,-11.7 l 8.17,-12.57 c 0,0 6.72,4.19 18.48,11.51 5.93,3.57 12.89,8.32 21.31,13.02 8.43,4.69 17.94,9.99 28.31,15.77 41.77,22.53 99.56,48.95 159.88,68.36 60.18,19.83 122.45,32.56 169.49,39.01 11.79,1.45 22.59,2.78 32.17,3.96 9.57,1.2 18,1.47 24.9,2.09 13.81,1.04 21.71,1.63 21.71,1.63 l -0.84,14.98" /><path
         id="path24"
         style="fill:#63bbeb;fill-opacity:1;fill-rule:nonzero;stroke:none"
         d="m 787.07,1580.68 c 0,0 3.461,-20.16 6.926,-40.33 4.422,-19.98 8.84,-39.96 8.84,-39.96 l 14.586,3.5 c 0,0 -4.352,19.67 -8.707,39.35 -3.41,19.86 -6.82,39.72 -6.82,39.72 l -14.825,-2.28" /><path
         id="path26"
         style="fill:#63bbeb;fill-opacity:1;fill-rule:nonzero;stroke:none"
         d="m 873.938,2161.43 c 0,0 -2.274,-4.58 -5.68,-11.45 -3.324,-6.92 -7.211,-16.39 -11.352,-25.74 -3.984,-9.42 -8.379,-18.68 -11.011,-25.88 -2.707,-7.18 -4.512,-11.97 -4.512,-11.97 l 13.996,-5.39 c 0,0 1.777,4.71 4.441,11.78 2.59,7.1 6.922,16.21 10.844,25.49 4.078,9.21 7.902,18.53 11.176,25.34 3.359,6.77 5.598,11.28 5.598,11.28 l -13.5,6.54" /><path
         id="path28"
         style="fill:#3883c6;fill-opacity:1;fill-rule:nonzero;stroke:none"
         d="m 808.68,1477.75 c 0,0 2.347,-8.64 6.461,-23.75 1.867,-7.62 5.203,-16.55 8.445,-26.96 3.508,-10.33 6.797,-22.22 11.824,-34.68 18.012,-50.57 47.738,-116.1 85.43,-177.04 37.25,-61.21 82.24,-117.34 118.96,-156.48 9.3,-9.69 17.52,-18.86 25.34,-26.47 7.88,-7.54 14.76,-14.11 20.42,-19.53 5.67,-5.4 10.13,-9.65 13.16,-12.54 3.18,-2.741 4.88,-4.21 4.88,-4.21 l 10.01,11.17 c 0,0 -1.67,1.44 -4.8,4.14 -2.99,2.86 -7.38,7.04 -12.97,12.36 -5.57,5.33 -12.35,11.81 -20.11,19.23 -7.7,7.5 -15.8,16.54 -24.95,26.07 -36.17,38.55 -80.471,93.82 -117.147,154.1 -37.117,60 -66.391,124.53 -84.129,174.34 -4.957,12.27 -8.188,23.98 -11.641,34.15 -3.195,10.25 -6.484,19.04 -8.32,26.55 -4.051,14.88 -6.363,23.39 -6.363,23.39 l -14.5,-3.84" /><path
         id="path30"
         style="fill:#63bbeb;fill-opacity:1;fill-rule:nonzero;stroke:none"
         d="m 1121.3,980.809 c 0,0 6.65,-5.707 16.64,-14.278 10.38,-8.082 24.21,-18.859 38.05,-29.64 14.35,-10.082 28.71,-20.161 39.47,-27.719 10.96,-7.274 18.48,-11.793 18.48,-11.793 l 8.05,12.652 c 0,0 -7.4,4.449 -18.2,11.61 -10.6,7.449 -24.73,17.379 -38.87,27.308 -13.63,10.61 -27.26,21.231 -37.49,29.192 -9.83,8.441 -16.39,14.07 -16.39,14.07 l -9.74,-11.402" /><path
         id="path32"
         style="fill:#63bbeb;fill-opacity:1;fill-rule:nonzero;stroke:none"
         d="m 776.531,1685.33 c 0,0 0.106,-5.11 0.774,-12.76 0.57,-7.65 1.332,-17.85 2.093,-28.06 0.547,-10.22 2.063,-20.35 2.946,-27.97 0.937,-7.62 1.558,-12.69 1.558,-12.69 l 14.875,1.93 c 0,0 -0.613,5 -1.535,12.5 -0.871,7.51 -2.367,17.48 -2.898,27.55 -0.754,10.05 -1.504,20.1 -2.067,27.64 -0.66,7.53 -0.765,12.57 -0.765,12.57 l -14.981,-0.71" /><path
         id="path34"
         style="fill:#3883c6;fill-opacity:1;fill-rule:nonzero;stroke:none"
         d="m 776.52,1778.84 c 0,0 -0.258,-4.37 -0.344,-10.95 -0.141,-6.58 -0.321,-15.34 -0.504,-24.11 -0.246,-8.77 -0.391,-17.54 -0.063,-24.11 0.176,-6.58 0.297,-10.96 0.297,-10.96 l 14.992,0.35 c 0,0 -0.113,4.32 -0.289,10.79 -0.328,6.48 -0.183,15.11 0.059,23.75 0.18,8.63 0.363,17.27 0.496,23.74 0.082,6.48 0.336,10.79 0.336,10.79 l -14.98,0.71" /><path
         id="path36"
         style="fill:#3883c6;fill-opacity:1;fill-rule:nonzero;stroke:none"
         d="m 918.609,2243.56 c 0,0 -2.328,-3.72 -5.82,-9.29 -3.211,-5.74 -7.492,-13.39 -11.777,-21.05 -4.285,-7.65 -8.567,-15.3 -11.782,-21.04 -2.945,-5.88 -4.91,-9.8 -4.91,-9.8 l 13.34,-6.86 c 0,0 1.934,3.86 4.832,9.65 3.168,5.65 7.387,13.19 11.606,20.72 4.214,7.54 8.433,15.07 11.593,20.73 3.442,5.48 5.735,9.14 5.735,9.14 l -12.817,7.8" /><path
         id="path38"
         style="fill:#235583;fill-opacity:1;fill-rule:nonzero;stroke:none"
         d="m 1511.27,776.039 c 0,0 2.6,-0.699 7.48,-2.008 4.87,-1.332 12.01,-3.332 21.26,-5.179 9.22,-2 20.41,-4.43 33.25,-7.223 12.9,-2.481 27.56,-4.68 43.49,-7.41 63.86,-10.239 150.54,-14.481 236.47,-6.719 85.99,7.57 170.27,28.34 231.35,49.422 30.47,10.777 55.63,20.488 72.78,28.34 8.65,3.769 15.45,6.718 20.08,8.738 4.66,1.949 7.01,3.289 7.01,3.289 l -6.38,13.582 c 0,0 -2.31,-1.32 -6.9,-3.25 -4.57,-1.98 -11.26,-4.891 -19.78,-8.59 -16.88,-7.75 -41.67,-17.301 -71.68,-27.922 -60.15,-20.75 -143.16,-41.211 -227.84,-48.668 -84.64,-7.64 -170.01,-3.472 -232.89,6.61 -15.69,2.699 -30.14,4.859 -42.84,7.301 -12.64,2.75 -23.66,5.136 -32.73,7.109 -9.12,1.82 -16.14,3.789 -20.94,5.109 -4.81,1.289 -7.37,1.981 -7.37,1.981 l -3.82,-14.512" /><path
         id="path40"
         style="fill:#2d6ba5;fill-opacity:1;fill-rule:nonzero;stroke:none"
         d="m 2605.21,1214.2 c 0,0 2.63,4.18 7.22,11.49 4.48,7.38 10.31,18.25 17.6,31.13 14.56,25.76 31.67,61.38 46.99,97.73 7.44,18.26 14.25,36.8 20.57,54.17 5.54,17.64 11.24,33.96 15.22,48.21 3.84,14.29 7.04,26.2 9.28,34.53 1.15,4.16 1.99,7.45 2.42,9.72 0.49,2.26 0.76,3.46 0.76,3.46 l -14.61,3.43 c 0,0 -0.25,-1.18 -0.74,-3.41 -0.42,-2.24 -1.25,-5.47 -2.39,-9.57 -2.2,-8.21 -5.35,-19.93 -9.13,-34.01 -3.92,-14.03 -9.54,-30.09 -14.99,-47.46 -6.23,-17.11 -12.93,-35.36 -20.25,-53.35 -15.1,-35.79 -31.93,-70.87 -46.28,-96.23 -7.18,-12.68 -12.92,-23.39 -17.33,-30.66 -4.52,-7.2 -7.11,-11.31 -7.11,-11.31 l 12.77,-7.87" /><path
         id="path42"
         style="fill:#142a3a;fill-opacity:1;fill-rule:nonzero;stroke:none"
         d="m 2345.19,932.422 c 0,0 18.15,13.566 44.72,34.726 25.92,21.934 60.26,51.642 90.9,85.082 16.06,16 30.13,33.83 44.22,49.71 13.27,16.58 25.46,32.23 35.67,45.79 9.75,13.92 17.87,25.52 23.56,33.63 2.91,4.02 4.96,7.33 6.36,9.59 1.41,2.25 2.16,3.45 2.16,3.45 l -12.58,8.16 c 0,0 -0.74,-1.18 -2.13,-3.39 -1.37,-2.23 -3.39,-5.49 -6.26,-9.44 -5.6,-8 -13.6,-19.42 -23.21,-33.12 -10.06,-13.37 -22.07,-28.78 -35.13,-45.11 -13.89,-15.64 -27.74,-33.21 -43.56,-48.97 -30.17,-32.94 -64,-62.19 -89.52,-83.792 -26.18,-20.828 -44.04,-34.199 -44.04,-34.199 l 8.84,-12.117" /><path
         id="path44"
         style="fill:#235583;fill-opacity:1;fill-rule:nonzero;stroke:none"
         d="m 1253.74,884.941 c 0,0 3.32,-2.281 9.44,-5.742 6.14,-3.429 14.91,-8.34 25.43,-14.23 5.29,-2.887 10.9,-6.239 17.04,-9.399 6.19,-3.07 12.72,-6.3 19.47,-9.648 6.75,-3.34 13.73,-6.801 20.82,-10.32 7.24,-3.18 14.6,-6.411 21.96,-9.641 7.37,-3.211 14.74,-6.422 22,-9.57 7.31,-3.02 14.66,-5.602 21.69,-8.309 14.11,-5.301 27.19,-10.5 38.76,-13.922 11.48,-3.691 21.04,-6.769 27.74,-8.93 6.66,-2.25 10.6,-3.121 10.6,-3.121 l 4.16,14.411 c 0,0 -3.87,0.851 -10.43,3.082 -6.6,2.117 -16.01,5.148 -27.32,8.789 -11.39,3.359 -24.27,8.488 -38.17,13.699 -6.92,2.672 -14.16,5.211 -21.36,8.18 -7.14,3.109 -14.4,6.269 -21.66,9.429 -7.24,3.18 -14.49,6.36 -21.62,9.492 -6.98,3.469 -13.85,6.868 -20.5,10.168 -6.65,3.289 -13.08,6.481 -19.17,9.5 -6.05,3.11 -11.58,6.411 -16.79,9.262 -10.36,5.801 -18.99,10.629 -25.04,14.008 -6.03,3.402 -9.3,5.652 -9.3,5.652 l -7.75,-12.84" /><path
         id="path46"
         style="fill:#131a1e;fill-opacity:1;fill-rule:nonzero;stroke:none"
         d="m 2215.88,852.84 c 0,0 7.3,3.379 17.75,9.41 10.44,6.012 24.77,13.359 38.43,21.84 13.6,8.57 27.37,16.871 37.42,23.531 9.9,6.879 16.5,11.457 16.5,11.457 l -8.54,12.332 c 0,0 -6.5,-4.519 -16.25,-11.289 -9.89,-6.562 -23.46,-14.73 -36.85,-23.172 -13.45,-8.347 -27.56,-15.578 -37.84,-21.5 -10.29,-5.937 -17.48,-9.269 -17.48,-9.269 l 6.86,-13.34" /><path
         id="path48"
         style="fill:#63bbeb;fill-opacity:1;fill-rule:nonzero;stroke:none"
         d="m 2730.22,1527.5 c 0,0 0.59,2.67 1.6,7.36 1.07,4.68 2.51,11.37 3.74,19.51 2.62,16.23 6.72,37.78 8.83,59.62 2.98,21.73 4.23,43.63 5.34,60.03 0.64,8.2 1.02,15.04 1.01,19.84 0.1,4.79 0.15,7.53 0.15,7.53 l -14.99,0.45 c 0,0 -0.05,-2.7 -0.15,-7.42 0.01,-4.73 -0.36,-11.47 -0.99,-19.54 -1.1,-16.16 -2.32,-37.72 -5.27,-59.12 -2.06,-21.51 -6.12,-42.73 -8.69,-58.72 -1.2,-8.01 -2.62,-14.6 -3.68,-19.21 -1,-4.61 -1.58,-7.25 -1.58,-7.25 l 14.68,-3.08" /><path
         id="path50"
         style="fill:#5bace3;fill-opacity:1;fill-rule:nonzero;stroke:none"
         d="m 1205.75,2546.96 c 0,0 -58.46,-39.13 -109.75,-87.17 -25.89,-23.69 -50.13,-49.08 -67.79,-68.57 -17.2,-19.91 -28.667,-33.18 -28.667,-33.18 l 11.597,-9.52 c 0,0 11.3,13.08 28.24,32.69 17.39,19.2 41.27,44.2 66.76,67.53 50.52,47.32 108.08,85.84 108.08,85.84 l -8.47,12.38" /><path
         id="path52"
         style="fill:#63bbeb;fill-opacity:1;fill-rule:nonzero;stroke:none"
         d="m 2618.88,2255.22 c 0,0 -3.23,5.2 -8.9,14.28 -5.44,9.24 -14.1,21.86 -24.67,36.88 -20.66,30.36 -51.23,68.75 -84.4,104.75 -8.41,8.89 -16.82,17.79 -25.1,26.54 -8.7,8.33 -17.27,16.53 -25.56,24.46 -4.16,3.95 -8.25,7.84 -12.26,11.64 -4.17,3.61 -8.26,7.14 -12.24,10.58 -7.96,6.87 -15.49,13.37 -22.44,19.37 -14.17,11.66 -26.46,20.79 -34.84,27.46 -4.23,3.28 -7.56,5.86 -9.82,7.62 -2.35,1.65 -3.6,2.52 -3.6,2.52 l 8.85,12.11 c 0,0 1.27,-0.89 3.66,-2.57 2.3,-1.78 5.67,-4.4 9.96,-7.73 8.51,-6.75 20.98,-16.02 35.36,-27.86 7.05,-6.08 14.69,-12.68 22.77,-19.65 4.04,-3.49 8.18,-7.07 12.42,-10.74 4.07,-3.86 8.22,-7.8 12.44,-11.81 8.41,-8.05 17.11,-16.37 25.94,-24.82 8.4,-8.89 16.94,-17.92 25.48,-26.94 33.67,-36.53 64.69,-75.52 85.67,-106.33 10.72,-15.25 19.51,-28.05 25.04,-37.43 5.75,-9.22 9.04,-14.49 9.04,-14.49 l -12.8,-7.84" /><path
         id="path54"
         style="fill:#479ada;fill-opacity:1;fill-rule:nonzero;stroke:none"
         d="m 2617.99,1206.33 c 0,0 1.57,2.52 4.33,6.92 2.87,4.33 6.62,10.73 10.89,18.55 4.35,7.76 9.42,16.83 14.85,26.54 5.56,9.65 10.39,20.51 15.8,31.08 11.02,21.04 19.74,43.16 27.03,59.41 3.69,8.1 5.92,15.2 7.87,20.01 1.84,4.86 2.88,7.64 2.88,7.64 l 14.03,-5.31 c 0,0 -1.06,-2.82 -2.92,-7.75 -1.99,-4.88 -4.25,-12.09 -8,-20.32 -7.39,-16.49 -16.25,-38.94 -27.43,-60.3 -5.49,-10.73 -10.4,-21.75 -16.04,-31.55 -5.51,-9.86 -10.66,-19.06 -15.07,-26.94 -4.33,-7.94 -8.15,-14.43 -11.05,-18.83 -2.8,-4.46 -4.4,-7.01 -4.4,-7.01 l -12.77,7.86" /><path
         id="path56"
         style="fill:#63bbeb;fill-opacity:1;fill-rule:nonzero;stroke:none"
         d="m 2710.02,1398.69 c 0,0 0.98,2.6 2.43,7.25 1.49,4.64 3.63,11.26 6.18,19.2 2.45,7.98 5.8,17.14 8.48,27.22 2.71,10.08 5.6,20.83 8.48,31.57 3.13,10.69 5.14,21.65 7.44,31.83 2.17,10.2 4.37,19.69 5.94,27.89 2.75,16.46 4.58,27.44 4.58,27.44 l 14.81,-2.39 c 0,0 -1.86,-11.14 -4.65,-27.85 -1.6,-8.32 -3.83,-17.95 -6.03,-28.3 -2.33,-10.33 -4.38,-21.45 -7.55,-32.31 -2.93,-10.9 -5.86,-21.81 -8.61,-32.04 -2.72,-10.23 -6.12,-19.53 -8.6,-27.63 -2.6,-8.07 -4.76,-14.79 -6.28,-19.49 -1.47,-4.72 -2.47,-7.36 -2.47,-7.36 l -14.15,4.97" /><path
         id="path58"
         style="fill:#2d6ba5;fill-opacity:1;fill-rule:nonzero;stroke:none"
         d="m 2757.21,1594.54 c 0,0 1.21,10.31 3.03,25.78 2.22,15.44 3.25,36.2 4.75,56.91 1.22,20.74 1.12,41.53 1.57,57.1 -0.42,15.57 -0.7,25.95 -0.7,25.95 l 15,0.44 c 0,0 0.28,-10.54 0.7,-26.34 -0.45,-15.8 -0.35,-36.9 -1.59,-57.94 -1.51,-21.03 -2.58,-42.1 -4.82,-57.76 -1.85,-15.71 -3.08,-26.17 -3.08,-26.17 l -14.86,2.03" /><path
         id="path60"
         style="fill:#479ada;fill-opacity:1;fill-rule:nonzero;stroke:none"
         d="m 2335.6,2554.95 c 0,0 -3.03,2.12 -8.35,5.85 -5.25,3.81 -12.91,9.04 -22.43,14.82 -9.44,5.89 -20.45,12.76 -32.25,20.13 -12.14,6.79 -25.08,14.04 -38.03,21.29 -26.36,13.6 -52.97,26.78 -73.58,35.23 -20.29,9.17 -34.29,14.12 -34.29,14.12 l 5.44,13.98 c 0,0 14.21,-5.03 34.8,-14.33 20.92,-8.58 47.93,-21.95 74.69,-35.77 13.14,-7.35 26.28,-14.71 38.6,-21.61 11.98,-7.47 23.15,-14.45 32.73,-20.43 9.66,-5.86 17.43,-11.16 22.77,-15.04 5.39,-3.78 8.48,-5.94 8.48,-5.94 l -8.58,-12.3" /><path
         id="path62"
         style="fill:#479ada;fill-opacity:1;fill-rule:nonzero;stroke:none"
         d="m 2765.12,1784 c 0,0 -0.55,7.4 -1.51,20.35 -0.49,6.47 -1.07,14.33 -1.75,23.35 -0.89,8.99 -2.28,19.1 -3.59,30.15 -5.51,44.13 -16.22,102.69 -33.31,159.58 -16.79,56.96 -39.66,111.92 -59.12,151.92 -4.93,9.97 -9.45,19.12 -13.46,27.22 -4.36,7.92 -8.17,14.82 -11.31,20.5 -6.32,11.35 -9.93,17.83 -9.93,17.83 l 12.98,7.52 c 0,0 3.66,-6.57 10.08,-18.09 3.18,-5.76 7.04,-12.77 11.48,-20.81 4.06,-8.22 8.66,-17.5 13.66,-27.63 19.75,-40.6 42.96,-96.38 60,-154.2 17.34,-57.73 28.22,-117.16 33.81,-161.95 1.33,-11.21 2.73,-21.47 3.64,-30.6 0.69,-9.15 1.29,-17.13 1.78,-23.7 0.97,-13.14 1.53,-20.64 1.53,-20.64 l -14.98,-0.8" /><path
         id="path64"
         style="fill:#5bace3;fill-opacity:1;fill-rule:nonzero;stroke:none"
         d="m 1474.55,2692 c 0,0 -10.58,-3.44 -26.46,-8.59 -16.02,-4.74 -36.71,-12.98 -57.54,-20.81 -20.57,-8.45 -41.01,-17.32 -56.1,-24.43 -14.96,-7.4 -24.94,-12.33 -24.94,-12.33 l -6.78,13.38 c 0,0 10.12,5.01 25.31,12.51 15.32,7.22 36.06,16.22 56.95,24.8 21.14,7.95 42.14,16.31 58.4,21.13 16.11,5.22 26.86,8.7 26.86,8.7 l 4.3,-14.36" /><path
         id="path66"
         style="fill:#63bbeb;fill-opacity:1;fill-rule:nonzero;stroke:none"
         d="m 1672.35,2730.14 c 0,0 -2.78,-0.21 -7.63,-0.58 -4.83,-0.6 -11.73,-1.44 -20.02,-2.46 -8.28,-1.03 -17.94,-2.22 -28.29,-3.51 -10.29,-1.77 -21.25,-3.65 -32.22,-5.53 -11,-1.69 -21.88,-4.03 -32.05,-6.37 -10.19,-2.26 -19.69,-4.36 -27.84,-6.16 -16.12,-4.33 -26.86,-7.23 -26.86,-7.23 l -3.97,14.47 c 0,0 10.91,2.93 27.26,7.33 8.27,1.83 17.92,3.97 28.26,6.26 10.32,2.37 21.36,4.74 32.53,6.46 11.13,1.91 22.26,3.82 32.69,5.61 10.51,1.3 20.31,2.52 28.72,3.57 8.4,1.03 15.41,1.89 20.31,2.48 4.93,0.38 7.74,0.6 7.74,0.6 l 1.37,-14.94" /><path
         id="path68"
         style="fill:#5bace3;fill-opacity:1;fill-rule:nonzero;stroke:none"
         d="m 1288.44,2614.92 c 0,0 -5.35,-2.98 -14.7,-8.19 -9.4,-5.15 -22.8,-12.53 -38.23,-22.51 -31.64,-18.7 -71.37,-47.51 -109.42,-78.28 -9.3,-7.95 -18.61,-15.9 -27.77,-23.73 -9.16,-7.83 -17.49,-16.3 -25.91,-24.08 -17.03,-15.42 -31.29,-31.45 -44.11,-44.59 -12.71,-13.24 -22.2,-25.29 -29.355,-33.25 -7,-8.11 -11,-12.74 -11,-12.74 l -11.593,9.51 c 0,0 4.054,4.71 11.156,12.93 7.258,8.08 16.892,20.3 29.792,33.75 13,13.34 27.48,29.59 44.76,45.24 8.55,7.91 17.01,16.49 26.3,24.45 9.3,7.94 18.74,16.01 28.19,24.09 38.62,31.24 78.96,60.47 111.06,79.45 15.66,10.12 29.27,17.62 38.8,22.85 9.5,5.29 14.93,8.31 14.93,8.31 l 7.1,-13.21" /><path
         id="path70"
         style="fill:#2d6ba5;fill-opacity:1;fill-rule:nonzero;stroke:none"
         d="m 1955.91,2715.94 c 0,0 -2.53,0.61 -7.02,1.3 -4.48,0.75 -10.89,1.82 -18.57,3.1 -7.69,1.26 -16.65,2.73 -26.26,4.31 -9.67,1.14 -19.99,2.35 -30.3,3.56 -20.59,2.9 -41.4,3.36 -56.91,4.72 -7.77,0.68 -14.27,0.63 -18.81,0.76 -4.54,0.1 -7.14,0.15 -7.14,0.15 l 0.4,14.99 c 0,0 2.64,-0.05 7.25,-0.15 4.61,-0.13 11.2,-0.09 19.08,-0.77 15.75,-1.37 36.87,-1.86 57.76,-4.79 10.47,-1.23 20.94,-2.46 30.76,-3.62 9.75,-1.6 18.85,-3.09 26.65,-4.37 7.8,-1.3 14.3,-2.38 18.85,-3.15 4.56,-0.69 7.12,-1.32 7.12,-1.32 l -2.86,-14.72" /><path
         id="path72"
         style="fill:#479ada;fill-opacity:1;fill-rule:nonzero;stroke:none"
         d="m 1767.17,2734.34 c 0,0 -4.45,0.28 -11.12,-0.01 -6.68,-0.18 -15.58,-0.42 -24.48,-0.66 -17.81,-0.14 -35.55,-1.76 -35.55,-1.76 l -1.01,14.97 c 0,0 18,1.64 36.08,1.78 9.03,0.25 18.06,0.49 24.84,0.67 6.77,0.29 11.29,0.01 11.29,0.01 l -0.05,-15" /><path
         id="path74"
         style="fill:#479ada;fill-opacity:1;fill-rule:nonzero;stroke:none"
         d="m 2104.46,2674.77 c 0,0 -1.91,0.72 -5.25,1.98 -3.31,1.34 -8.16,2.92 -14,4.77 -11.68,3.64 -27.11,9.02 -42.8,13.49 -15.77,4.21 -31.54,8.41 -43.37,11.56 -11.96,2.6 -19.93,4.33 -19.93,4.33 l 3.21,14.65 c 0,0 8.09,-1.75 20.24,-4.39 12,-3.2 28.01,-7.47 44.01,-11.74 15.93,-4.54 31.59,-9.99 43.45,-13.69 5.93,-1.88 10.85,-3.48 14.21,-4.85 3.39,-1.27 5.33,-2 5.33,-2 l -5.1,-14.11" /><path
         id="path76"
         style="fill:#63bbeb;fill-opacity:1;fill-rule:nonzero;stroke:none"
         d="m 1329.51,827.012 c 0,0 2.16,-1.071 5.94,-2.953 3.73,-1.969 9.24,-4.411 15.89,-7.258 6.64,-2.879 14.38,-6.25 22.67,-9.852 4.14,-1.801 8.43,-3.66 12.79,-5.551 4.44,-1.679 8.95,-3.378 13.46,-5.078 18.03,-6.851 36.04,-13.769 49.93,-17.859 13.77,-4.43 22.96,-7.391 22.96,-7.391 l -4.34,-14.359 c 0,0 -9.32,3 -23.3,7.5 -14.09,4.16 -32.38,11.168 -50.68,18.129 -4.58,1.73 -9.16,3.461 -13.67,5.16 -4.42,1.922 -8.77,3.801 -12.98,5.621 -8.42,3.668 -16.27,7.078 -23.01,10.008 -6.75,2.891 -12.34,5.383 -16.13,7.371 -3.84,1.898 -6.03,2.988 -6.03,2.988 l 6.5,13.524" /><path
         id="path78"
         style="fill:#63bbeb;fill-opacity:1;fill-rule:nonzero;stroke:none"
         d="m 1495.99,764.609 c 0,0 3.58,-0.961 9.85,-2.64 6.3,-1.559 15.16,-4.36 26.04,-6.699 10.87,-2.36 23.56,-5.122 37.15,-8.071 13.64,-2.738 28.33,-4.847 42.95,-7.39 29.35,-4.25 58.86,-7.707 81.09,-8.86 11.1,-0.719 20.34,-1.508 26.83,-1.738 6.49,-0.141 10.2,-0.223 10.2,-0.223 L 1729.61,714 c 0,0 -3.77,0.078 -10.35,0.219 -6.58,0.242 -15.97,1.043 -27.24,1.769 -22.55,1.172 -52.5,4.684 -82.29,8.992 -14.84,2.571 -29.75,4.719 -43.59,7.508 -13.8,2.992 -26.68,5.782 -37.72,8.184 -11.04,2.379 -20.03,5.207 -26.43,6.797 -6.36,1.711 -10,2.691 -10,2.691 l 4,14.449" /><path
         id="path80"
         style="fill:#479ada;fill-opacity:1;fill-rule:nonzero;stroke:none"
         d="m 1753.83,728.5 c 0,0 4.26,-0.09 11.73,-0.25 7.46,0.199 18.12,0.48 30.91,0.809 12.81,0.089 27.7,1.132 43.64,2.421 7.97,0.661 16.23,1.09 24.58,1.969 8.34,1.031 16.8,2.071 25.27,3.102 16.98,1.758 33.78,4.801 49.54,7.539 15.82,2.422 30.36,5.82 42.85,8.601 12.49,2.801 22.95,4.911 30.1,7.079 7.2,1.96 11.32,3.07 11.32,3.07 l 3.88,-14.481 c 0,0 -4.18,-1.14 -11.49,-3.129 -7.26,-2.191 -17.87,-4.339 -30.54,-7.179 -12.68,-2.821 -27.44,-6.27 -43.5,-8.731 -15.99,-2.781 -33.03,-5.859 -50.27,-7.648 -8.59,-1.051 -17.19,-2.102 -25.64,-3.141 -8.48,-0.902 -16.86,-1.34 -24.95,-2 -16.18,-1.32 -31.29,-2.371 -44.29,-2.461 -12.98,-0.34 -23.8,-0.621 -31.37,-0.82 -7.58,0.16 -11.91,0.25 -11.91,0.25 l 0.14,15" /><path
         id="path82"
         style="fill:#63bbeb;fill-opacity:1;fill-rule:nonzero;stroke:none"
         d="m 2418.89,972.191 c 0,0 3.38,2.891 8.46,7.231 5.2,4.199 11.56,10.43 18.05,16.527 6.47,6.111 12.93,12.231 17.79,16.821 4.87,4.57 8.02,7.71 8.02,7.71 l 10.59,-10.62 c 0,0 -3.19,-3.19 -8.14,-7.83 -4.92,-4.651 -11.49,-10.858 -18.05,-17.069 -6.58,-6.191 -13.05,-12.512 -18.32,-16.781 -5.15,-4.399 -8.59,-7.34 -8.59,-7.34 l -9.81,11.351" /><path
         id="path84"
         style="fill:#5bace3;fill-opacity:1;fill-rule:nonzero;stroke:none"
         d="m 2046.68,769.078 c 0,0 5.02,1.313 12.4,3.801 7.41,2.41 17.29,5.609 27.17,8.82 9.95,3.012 19.6,6.871 26.89,9.602 7.28,2.758 12.14,4.597 12.14,4.597 l 5.4,-13.988 c 0,0 -4.93,-1.871 -12.32,-4.672 -7.41,-2.777 -17.2,-6.687 -27.3,-9.75 -10.02,-3.246 -20.05,-6.5 -27.57,-8.937 -7.49,-2.539 -12.59,-3.871 -12.59,-3.871 l -4.22,14.398" /><path
         id="path86"
         style="fill:#3883c6;fill-opacity:1;fill-rule:nonzero;stroke:none"
         d="m 2487.61,1037.64 c 0,0 2.05,2.14 5.64,5.89 3.52,3.82 8.87,8.98 14.71,15.7 5.82,6.73 12.6,14.59 19.88,23.01 3.63,4.22 7.39,8.57 11.2,12.99 3.59,4.61 7.24,9.29 10.89,13.97 7.27,9.37 14.55,18.75 21.38,27.54 6.38,9.11 12.34,17.62 17.45,24.91 5.07,7.31 9.44,13.31 12.26,17.67 2.76,4.4 4.34,6.91 4.34,6.91 l 12.58,-8.17 c 0,0 -1.6,-2.55 -4.4,-7.01 -2.87,-4.42 -7.3,-10.52 -12.45,-17.94 -5.18,-7.4 -11.23,-16.03 -17.71,-25.27 -6.92,-8.92 -14.31,-18.44 -21.69,-27.95 -3.7,-4.75 -7.41,-9.5 -11.05,-14.17 -3.87,-4.49 -7.68,-8.91 -11.37,-13.18 -7.38,-8.55 -14.27,-16.52 -20.17,-23.36 -5.93,-6.81 -11.35,-12.05 -14.93,-15.92 -3.64,-3.81 -5.72,-5.99 -5.72,-5.99 l -10.84,10.37" /><path
         id="path88"
         style="fill:#63bbeb;fill-opacity:1;fill-rule:nonzero;stroke:none"
         d="m 2334.53,906.75 c 0,0 4.27,2.969 10.66,7.41 3.2,2.231 6.92,4.828 10.91,7.621 3.86,2.969 7.97,6.141 12.08,9.321 8.23,6.339 16.45,12.679 22.62,17.437 3.12,2.34 5.63,4.391 7.33,5.91 1.72,1.473 2.71,2.321 2.71,2.321 l 9.54,-11.579 c 0,0 -1,-0.851 -2.75,-2.351 -1.73,-1.539 -4.27,-3.621 -7.44,-6 -6.26,-4.828 -14.61,-11.258 -22.95,-17.699 -4.18,-3.219 -8.35,-6.442 -12.27,-9.461 -4.05,-2.828 -7.83,-5.469 -11.07,-7.731 -6.49,-4.519 -10.82,-7.519 -10.82,-7.519 l -8.55,12.32" /><path
         id="path90"
         style="fill:#3883c6;fill-opacity:1;fill-rule:nonzero;stroke:none"
         d="m 2147.38,804.57 c 0,0 19.05,8.289 38.09,16.571 18.64,9.179 37.27,18.359 37.27,18.359 l 6.86,-13.34 c 0,0 -18.91,-9.308 -37.83,-18.629 -19.33,-8.41 -38.66,-16.832 -38.66,-16.832 l -5.73,13.871" /><path
         id="path92"
         style="fill:#63bbeb;fill-opacity:1;fill-rule:nonzero;stroke:none"
         d="m 2243.68,850.68 c 0,0 4.53,2.531 11.34,6.32 6.72,3.93 16.07,8.52 24.76,14.23 17.62,10.989 35.25,21.981 35.25,21.981 l 8.25,-12.531 c 0,0 -17.89,-11.149 -35.78,-22.321 -8.82,-5.777 -18.31,-10.449 -25.13,-14.437 -6.91,-3.852 -11.52,-6.41 -11.52,-6.41 l -7.17,13.168" /><path
         id="path94"
         style="fill:#2d6ba5;fill-opacity:1;fill-rule:nonzero;stroke:none"
         d="m 1301.41,824.191 c 0,0 -12.44,5.86 -33.28,17.868 -10.47,5.921 -23.4,12.742 -37.42,21.921 -14.16,8.93 -30.37,18.668 -47.03,30.821 -8.41,5.949 -17.29,11.988 -26.26,18.539 -8.76,6.832 -17.82,13.879 -27.14,21.129 -9.45,7.09 -18.69,14.941 -28,23.121 -9.29,8.199 -19.16,16.16 -28.51,25.031 -38,34.799 -75.391,75.289 -109.645,118.269 -34.453,42.86 -64.445,89.18 -89.535,134.15 -13.012,22.27 -23.465,44.91 -34.039,66.02 -4.727,10.83 -9.324,21.35 -13.77,31.54 -2.207,5.1 -4.375,10.11 -6.504,15.03 -1.898,5.01 -3.765,9.93 -5.589,14.75 -3.649,9.64 -7.145,18.88 -10.469,27.66 -3.192,8.84 -5.735,17.38 -8.383,25.32 -2.582,7.97 -5,15.42 -7.234,22.32 -2.098,6.93 -3.707,13.39 -5.329,19.18 -3.156,11.6 -5.632,20.72 -7.324,26.93 -1.691,6.22 -2.289,9.61 -2.289,9.61 l 14.59,3.49 c 0,0 0.582,-3.34 2.254,-9.46 1.664,-6.12 4.105,-15.1 7.215,-26.54 1.597,-5.7 3.183,-12.07 5.25,-18.9 2.203,-6.79 4.586,-14.13 7.129,-21.98 2.609,-7.83 5.113,-16.25 8.257,-24.95 3.278,-8.66 6.719,-17.76 10.317,-27.26 1.797,-4.74 3.633,-9.59 5.504,-14.53 2.097,-4.85 4.234,-9.79 6.41,-14.81 4.383,-10.03 8.91,-20.4 13.566,-31.07 10.426,-20.8 20.711,-43.11 33.536,-65.04 24.718,-44.31 54.261,-89.94 88.207,-132.16 33.745,-42.34 70.585,-82.23 108.035,-116.53 9.2,-8.738 18.93,-16.582 28.09,-24.66 9.17,-8.07 18.28,-15.809 27.6,-22.789 9.18,-7.141 18.1,-14.102 26.74,-20.82 8.84,-6.45 17.59,-12.399 25.88,-18.27 16.41,-11.98 32.38,-21.562 46.34,-30.371 13.81,-9.051 26.55,-15.762 36.86,-21.59 20.53,-11.84 32.8,-17.609 32.8,-17.609 l -6.83,-13.36" /><path
         id="path96"
         style="fill:#3883c6;fill-opacity:1;fill-rule:nonzero;stroke:none"
         d="m 768.457,1516.92 c 0,0 -1.488,6.8 -4.09,18.71 -2.031,12.02 -4.933,29.18 -8.418,49.78 -5.812,41.37 -10.742,96.97 -10.402,152.7 -0.223,55.76 6.055,111.3 12.469,152.55 3.363,20.63 6.214,37.8 9.101,49.66 2.586,11.91 4.067,18.72 4.067,18.72 l 14.621,-3.35 c 0,0 -1.457,-6.7 -4.004,-18.44 -2.848,-11.68 -5.653,-28.6 -8.965,-48.92 -6.32,-40.64 -12.512,-95.36 -12.289,-150.31 -0.332,-54.91 4.527,-109.7 10.246,-150.46 3.434,-20.3 6.293,-37.21 8.297,-49.05 2.566,-11.73 4.031,-18.44 4.031,-18.44 l -14.664,-3.15" /><path
         id="path98"
         style="fill:#3883c6;fill-opacity:1;fill-rule:nonzero;stroke:none"
         d="m 776.801,1982.46 c 0,0 1.804,6.73 4.969,18.5 1.628,5.88 3.394,13.07 5.816,21.2 2.602,8.08 5.535,17.2 8.734,27.15 5.953,20.04 15.207,42.64 24.453,67.06 5.207,11.98 10.59,24.35 16.063,36.93 5.434,12.59 12.086,24.86 18.129,37.41 25.426,49.55 54.398,97.34 79.297,130.91 11.648,17.36 23.015,30.59 30.316,40.34 7.492,9.61 11.774,15.1 11.774,15.1 l 11.593,-9.51 c 0,0 -4.215,-5.41 -11.593,-14.88 -7.196,-9.61 -18.407,-22.65 -29.879,-39.76 -24.543,-33.08 -53.075,-80.17 -78.125,-128.98 -5.953,-12.37 -12.516,-24.45 -17.864,-36.86 -5.39,-12.38 -10.695,-24.58 -15.828,-36.38 -9.097,-24.06 -18.23,-46.31 -24.086,-66.06 -3.152,-9.8 -6.043,-18.78 -8.605,-26.75 -2.387,-8.01 -4.125,-15.1 -5.731,-20.88 -3.117,-11.6 -4.894,-18.23 -4.894,-18.23 l -14.539,3.69" /></g></g></svg>