<?xml version="1.0" encoding="UTF-8" standalone="no"?>
<svg
   xmlns:dc="http://purl.org/dc/elements/1.1/"
   xmlns:cc="http://creativecommons.org/ns#"
   xmlns:rdf="http://www.w3.org/1999/02/22-rdf-syntax-ns#"
   xmlns:svg="http://www.w3.org/2000/svg"
   xmlns="http://www.w3.org/2000/svg"
   viewBox="0 0 466.66666 466.66666"
   height="466.66666"
   width="466.66666"
   xml:space="preserve"
   id="svg2"
   version="1.1"><metadata
     id="metadata8"><rdf:RDF><cc:Work
         rdf:about=""><dc:format>image/svg+xml</dc:format><dc:type
           rdf:resource="http://purl.org/dc/dcmitype/StillImage" /></cc:Work></rdf:RDF></metadata><defs
     id="defs6" /><g
     transform="matrix(1.3333333,0,0,-1.3333333,0,466.66667)"
     id="g10"><g
       transform="scale(0.1)"
       id="g12"><path
         id="path14"
         style="fill:#f5a860;fill-opacity:1;fill-rule:nonzero;stroke:none"
         d="m 2104.98,1066.6 c 0,0 2.91,1.32 7.73,4.11 4.84,2.77 11.74,6.73 20.03,11.49 8.41,4.56 17.68,10.76 27.75,17.18 10.2,6.23 20.52,13.71 30.88,21.13 10.54,7.17 20.37,15.3 29.78,22.65 9.54,7.2 17.76,14.75 25.01,20.97 7.24,6.24 13.25,11.46 17.18,15.43 4.03,3.85 6.33,6.05 6.33,6.05 l -10.35,10.86 c 0,0 -2.26,-2.16 -6.2,-5.94 -3.85,-3.88 -9.75,-9 -16.84,-15.11 -7.11,-6.1 -15.16,-13.5 -24.51,-20.56 -9.23,-7.2 -18.85,-15.17 -29.18,-22.19 -10.16,-7.26 -20.26,-14.6 -30.26,-20.71 -9.87,-6.29 -18.95,-12.37 -27.19,-16.83 -8.12,-4.66 -14.89,-8.54 -19.62,-11.26 -4.73,-2.74 -7.58,-4.03 -7.58,-4.03 l 7.04,-13.24" /><path
         id="path16"
         style="fill:#d48844;fill-opacity:1;fill-rule:nonzero;stroke:none"
         d="m 1202.89,2235.82 c 0,0 -4.33,-4.3 -11.19,-12.47 -6.91,-8.12 -17.16,-19.41 -28.17,-34.02 -22.64,-28.68 -50.2,-69.11 -72.8,-112.34 -22.87,-43.08 -40.78,-88.6 -51.75,-123.46 -5.11,-17.55 -9.56,-32.13 -12,-42.51 -2.44,-10.38 -3.83,-16.31 -3.83,-16.31 l 14.63,-3.34 c 0,0 1.36,5.81 3.74,15.98 2.39,10.17 6.76,24.46 11.76,41.65 10.75,34.17 28.31,78.77 50.71,121 22.15,42.36 49.17,81.98 71.35,110.1 10.79,14.32 20.85,25.37 27.62,33.33 6.72,8.01 10.96,12.23 10.96,12.23 l -11.03,10.16" /><path
         id="path18"
         style="fill:#935e33;fill-opacity:1;fill-rule:nonzero;stroke:none"
         d="m 1019.28,1877.41 c 0,0 -1.09,-5.99 -3.01,-16.48 -0.9,-5.25 -2.26,-11.59 -3.32,-18.94 -0.97,-7.36 -2.07,-15.67 -3.27,-24.73 -4.34,-36.27 -6.94,-85.12 -3.81,-133.79 2.94,-48.67 10.83,-96.97 19.81,-132.42 4.23,-17.78 8.82,-32.33 11.52,-42.64 3.37,-10.12 5.29,-15.9 5.29,-15.9 l 14.24,4.7 c 0,0 -1.88,5.67 -5.18,15.58 -2.65,10.11 -7.14,24.37 -11.29,41.79 -8.8,34.73 -16.54,82.11 -19.42,129.8 -3.06,47.7 -0.52,95.56 3.74,131.1 1.17,8.88 2.24,17.02 3.19,24.24 1.04,7.2 2.38,13.4 3.26,18.55 1.88,10.28 2.95,16.15 2.95,16.15 l -14.7,2.99" /><path
         id="path20"
         style="fill:#754b2b;fill-opacity:1;fill-rule:nonzero;stroke:none"
         d="m 1048.1,1475.7 c 0,0 0.49,-1.44 1.42,-4.14 1.04,-2.66 2.57,-6.57 4.51,-11.53 3.85,-9.94 9.21,-24.21 16.99,-40.76 14.91,-33.36 37.94,-76.53 65.81,-116.55 27.64,-40.18 59.7,-77.14 85.6,-102.94 13.14,-12.7 24.08,-23.31 32.11,-30.32 8.08,-6.97 12.69,-10.95 12.69,-10.95 l 9.74,11.42 c 0,0 -4.53,3.9 -12.44,10.72 -7.87,6.87 -18.59,17.28 -31.48,29.72 -25.38,25.29 -56.79,61.51 -83.88,100.88 -27.31,39.22 -49.88,81.51 -64.48,114.2 -7.63,16.21 -12.87,30.19 -16.65,39.93 -1.9,4.87 -3.4,8.69 -4.42,11.3 -0.91,2.64 -1.39,4.05 -1.39,4.05 l -14.13,-5.03" /><path
         id="path22"
         style="fill:#b3733c;fill-opacity:1;fill-rule:nonzero;stroke:none"
         d="m 1280.77,1147.08 c 0,0 4.8,-3.76 13.2,-10.33 8.24,-6.78 20.65,-15.62 35.62,-26.12 30.12,-20.69 72.16,-45.71 116.7,-65.59 44.39,-20.21 90.98,-35.11 126.44,-43.92 17.77,-4.28 32.62,-7.679 43.16,-9.331 10.49,-1.918 16.49,-3.008 16.49,-3.008 l 2.41,14.799 c 0,0 -5.87,1.08 -16.14,2.96 -10.34,1.61 -24.88,4.95 -42.3,9.13 -34.74,8.64 -80.4,23.24 -123.9,43.04 -43.64,19.49 -84.84,44.01 -114.37,64.29 -14.67,10.28 -26.83,18.94 -34.9,25.6 -8.24,6.44 -12.94,10.12 -12.94,10.12 l -9.47,-11.64" /><path
         id="path24"
         style="fill:#f5a860;fill-opacity:1;fill-rule:nonzero;stroke:none"
         d="m 2377.67,1314.35 c 0,0 8.35,13.07 16.69,26.15 7.72,13.45 15.43,26.91 15.43,26.91 l -13.14,7.23 c 0,0 -7.56,-13.18 -15.12,-26.37 -8.18,-12.82 -16.36,-25.63 -16.36,-25.63 l 12.5,-8.29" /><path
         id="path26"
         style="fill:#f5a860;fill-opacity:1;fill-rule:nonzero;stroke:none"
         d="m 2032.65,1033.09 c 0,0 3.61,1.41 9.03,3.52 5.39,2.18 12.4,5.51 19.5,8.64 14.27,6.09 28.01,13.29 28.01,13.29 l -6.72,13.41 c 0,0 -13.46,-7.06 -27.45,-13.03 -6.95,-3.06 -13.82,-6.32 -19.1,-8.46 -5.31,-2.07 -8.85,-3.45 -8.85,-3.45 l 5.58,-13.92" /><path
         id="path28"
         style="fill:#b3733c;fill-opacity:1;fill-rule:nonzero;stroke:none"
         d="m 2418.07,1383.08 c 0,0 3.09,6.04 8.5,16.62 2.84,5.22 5.52,11.93 9.02,19.42 3.3,7.58 7.52,15.92 11.06,25.47 15.71,37.55 32.48,89.45 42.44,142.85 10.35,53.32 13.76,107.74 13.15,148.42 -0.27,10.18 -0.2,19.51 -0.7,27.77 -0.58,8.25 -1.08,15.44 -1.49,21.37 -0.42,5.92 -0.75,10.57 -0.98,13.75 -0.38,3.16 -0.58,4.84 -0.58,4.84 l -14.93,-1.52 c 0,0 0.2,-1.65 0.58,-4.75 0.22,-3.11 0.54,-7.67 0.95,-13.48 0.41,-5.8 0.9,-12.85 1.47,-20.94 0.49,-8.09 0.41,-17.24 0.68,-27.21 0.6,-39.87 -2.74,-93.19 -12.88,-145.44 -9.76,-52.31 -26.19,-103.17 -41.59,-139.97 -3.46,-9.36 -7.61,-17.53 -10.84,-24.96 -3.43,-7.34 -6.05,-13.92 -8.84,-19.03 -5.3,-10.36 -8.33,-16.29 -8.33,-16.29 l 13.31,-6.92" /><path
         id="path30"
         style="fill:#f5a860;fill-opacity:1;fill-rule:nonzero;stroke:none"
         d="m 2496.36,1821.19 c 0,0 -0.82,6.6 -2.04,16.49 -1.7,9.83 -3.96,22.94 -6.22,36.04 -2.9,12.98 -5.8,25.95 -7.98,35.68 -2.43,9.67 -4.34,16.04 -4.34,16.04 l -14.47,-3.94 c 0,0 1.87,-6.24 4.25,-15.71 2.14,-9.54 4.98,-22.26 7.83,-34.97 2.21,-12.85 4.43,-25.7 6.09,-35.33 1.2,-9.7 2,-16.17 2,-16.17 l 14.88,1.87" /><path
         id="path32"
         style="fill:#f5a860;fill-opacity:1;fill-rule:nonzero;stroke:none"
         d="m 2330.18,1250.3 c 0,0 2.55,2.92 6.08,7.55 3.58,4.58 8.36,10.69 13.14,16.8 4.91,6.01 9.23,12.46 12.62,17.19 3.36,4.74 5.6,7.91 5.6,7.91 l -12.3,8.58 c 0,0 -2.2,-3.1 -5.49,-7.75 -3.33,-4.63 -7.56,-10.96 -12.37,-16.85 -4.69,-5.99 -9.37,-11.97 -12.88,-16.46 -3.46,-4.54 -5.96,-7.4 -5.96,-7.4 l 11.56,-9.57" /><path
         id="path34"
         style="fill:#b3733c;fill-opacity:1;fill-rule:nonzero;stroke:none"
         d="m 2282.47,1197.87 c 0,0 2.38,2.32 5.78,5.97 3.44,3.61 8.01,8.43 12.59,13.26 4.61,4.79 9.17,9.63 12.33,13.48 3.26,3.78 5.43,6.3 5.43,6.3 l -11.33,9.83 c 0,0 -2.12,-2.47 -5.31,-6.17 -3.11,-3.78 -7.57,-8.52 -12.09,-13.22 -4.49,-4.72 -8.97,-9.45 -12.34,-12.99 -3.33,-3.58 -5.66,-5.85 -5.66,-5.85 l 10.6,-10.61" /><path
         id="path36"
         style="fill:#b3733c;fill-opacity:1;fill-rule:nonzero;stroke:none"
         d="m 1965.71,1009.84 c 0,0 3.2,0.89 8,2.24 4.73,1.57 11.03,3.68 17.34,5.78 6.3,2.11 12.61,4.21 17.34,5.79 4.65,1.79 7.75,2.99 7.75,2.99 l -5.25,14.05 c 0,0 -3.04,-1.17 -7.59,-2.93 -4.64,-1.55 -10.82,-3.6 -17,-5.67 -6.17,-2.06 -12.35,-4.12 -16.99,-5.67 -4.7,-1.32 -7.84,-2.19 -7.84,-2.19 l 4.24,-14.39" /><path
         id="path38"
         style="fill:#754b2b;fill-opacity:1;fill-rule:nonzero;stroke:none"
         d="m 2382.21,2134.97 c 0,0 -1.1,1.72 -3.17,4.94 -2.05,3.23 -5.03,8 -9.28,13.76 -4.14,5.82 -9.18,12.89 -14.95,21 -5.97,7.97 -13.06,16.69 -20.6,26.35 -30.58,38.32 -77.01,84.93 -129.15,124.42 -52.07,39.63 -109.92,70.99 -154.91,90.34 -22.59,9.5 -41.65,16.9 -55.27,21.24 -6.77,2.31 -12.09,4.12 -15.72,5.35 -3.61,1.28 -5.61,1.73 -5.61,1.73 l -4.41,-14.33 c 0,0 1.96,-0.44 5.49,-1.7 3.56,-1.21 8.77,-2.98 15.4,-5.24 13.35,-4.25 32.02,-11.51 54.16,-20.82 44.09,-18.97 100.79,-49.7 151.82,-88.54 51.1,-38.71 96.61,-84.38 126.57,-121.93 7.39,-9.47 14.35,-18.01 20.19,-25.82 5.66,-7.95 10.59,-14.88 14.66,-20.59 4.16,-5.64 7.08,-10.31 9.09,-13.48 2.02,-3.16 3.1,-4.84 3.1,-4.84 l 12.59,8.16" /><path
         id="path40"
         style="fill:#935e33;fill-opacity:1;fill-rule:nonzero;stroke:none"
         d="m 1545.34,2447.48 c 0,0 -3.6,-1 -9.9,-2.76 -6.28,-1.85 -15.09,-4.97 -25.75,-8.47 -21.31,-7.01 -49.07,-18.25 -76.22,-30.81 -13.48,-6.44 -26.76,-13.36 -39.16,-19.88 -12.11,-7.06 -23.63,-13.3 -33.13,-19.26 -9.44,-6.05 -17.31,-11.09 -22.82,-14.63 -5.57,-3.44 -8.51,-5.76 -8.51,-5.76 l 8.49,-12.37 c 0,0 2.88,2.28 8.34,5.65 5.39,3.46 13.11,8.41 22.36,14.34 9.31,5.83 20.6,11.94 32.46,18.87 12.16,6.38 25.16,13.16 38.38,19.47 26.59,12.3 53.79,23.33 74.67,30.19 10.45,3.43 19.08,6.49 25.23,8.31 6.18,1.72 9.71,2.7 9.71,2.7 l -4.15,14.41" /><path
         id="path42"
         style="fill:#372319;fill-opacity:1;fill-rule:nonzero;stroke:none"
         d="m 1834.9,2472.79 c 0,0 -17.1,1.64 -42.79,3.34 -25.72,0.93 -60.14,1.8 -94.37,-1.31 -17.17,-0.78 -34.16,-3.6 -50.16,-5.31 -15.9,-2.53 -30.72,-5.08 -43.37,-7.48 -12.56,-2.82 -23.04,-5.18 -30.37,-6.83 -3.68,-0.76 -6.51,-1.57 -8.45,-2.13 -1.94,-0.54 -2.97,-0.83 -2.97,-0.83 l 3.81,-14.51 c 0,0 1.01,0.29 2.91,0.82 1.89,0.54 4.67,1.34 8.28,2.08 7.19,1.62 17.45,3.93 29.77,6.7 12.4,2.35 26.93,4.85 42.51,7.33 15.69,1.67 32.34,4.45 49.17,5.2 33.55,3.06 67.28,2.2 92.48,1.29 25.17,-1.67 41.93,-3.27 41.93,-3.27 l 1.62,14.91" /><path
         id="path44"
         style="fill:#754b2b;fill-opacity:1;fill-rule:nonzero;stroke:none"
         d="m 2471.02,1942.52 c 0,0 -0.7,2.97 -2.36,8.03 -1.69,5.06 -4.1,12.28 -7,20.95 -2.71,8.74 -6.5,18.7 -10.75,29.31 -2.07,5.32 -4.22,10.82 -6.4,16.41 -2.44,5.48 -4.92,11.05 -7.39,16.61 -2.5,5.56 -5,11.12 -7.45,16.59 -2.56,5.42 -5.37,10.62 -7.92,15.73 -5.21,10.17 -9.89,19.75 -14.64,27.57 -4.55,7.93 -8.34,14.54 -10.99,19.16 -2.58,4.67 -4.34,7.16 -4.34,7.16 l -12.78,-7.85 c 0,0 1.73,-2.44 4.25,-7.02 2.6,-4.53 6.32,-11 10.77,-18.77 4.66,-7.66 9.24,-17.06 14.34,-27.02 2.51,-5 5.26,-10.1 7.77,-15.41 2.4,-5.36 4.85,-10.81 7.29,-16.26 2.43,-5.45 4.86,-10.9 7.25,-16.27 2.13,-5.48 4.23,-10.86 6.27,-16.08 4.16,-10.39 7.88,-20.15 10.53,-28.72 2.84,-8.49 5.2,-15.57 6.86,-20.53 1.63,-4.96 2.32,-7.87 2.32,-7.87 l 14.37,4.28" /><path
         id="path46"
         style="fill:#1f1712;fill-opacity:1;fill-rule:nonzero;stroke:none"
         d="m 1948,2451.43 c 0,0 -5.82,1.82 -14.76,3.78 -8.92,1.95 -20.7,5.14 -32.68,7.36 -12,2.13 -23.96,4.51 -32.99,5.9 -9.06,1.2 -15.1,2 -15.1,2 l -1.98,-14.87 c 0,0 5.92,-0.78 14.8,-1.95 8.85,-1.37 20.56,-3.7 32.32,-5.79 11.74,-2.17 23.28,-5.3 32.03,-7.22 8.75,-1.9 14.45,-3.7 14.45,-3.7 l 3.91,14.49" /><path
         id="path48"
         style="fill:#f5a860;fill-opacity:1;fill-rule:nonzero;stroke:none"
         d="m 1315.41,2335.62 c 0,0 -27.14,-19.26 -52.07,-41.26 -12.77,-10.66 -24.64,-22.3 -33.63,-30.93 -4.54,-4.27 -8.24,-7.91 -10.69,-10.61 -2.5,-2.63 -3.93,-4.14 -3.93,-4.14 l 10.79,-10.42 c 0,0 1.4,1.48 3.85,4.06 2.4,2.65 6.02,6.22 10.48,10.4 8.81,8.45 20.44,19.87 32.95,30.31 24.44,21.56 51.03,40.43 51.03,40.43 l -8.78,12.16" /><path
         id="path50"
         style="fill:#f39b4c;fill-opacity:1;fill-rule:nonzero;stroke:none"
         d="m 1649.91,986.25 c 0,0 52.74,-7.898 106.01,-7.129 26.6,0.07 53.15,1.93 72.99,3.848 19.8,2.39 33.01,3.98 33.01,3.98 l -2.18,14.841 c 0,0 -12.94,-1.56 -32.35,-3.899 -19.45,-1.871 -45.47,-3.7 -71.54,-3.77 -52.2,-0.75 -103.87,6.979 -103.87,6.979 l -2.07,-14.85" /><path
         id="path52"
         style="fill:#f5a860;fill-opacity:1;fill-rule:nonzero;stroke:none"
         d="m 1002.96,1871.51 c 0,0 -0.84,-4.59 -2.31,-12.61 -1.67,-7.99 -3.259,-19.54 -5.009,-33.42 -3.922,-27.69 -6.391,-64.99 -6.157,-102.28 -0.289,-37.33 4.047,-74.47 7.508,-102.19 2.008,-13.83 4.248,-25.28 5.558,-33.33 1.29,-8.05 2.35,-12.59 2.35,-12.59 l -14.697,-2.99 c 0,0 -1.082,4.62 -2.402,12.84 -1.336,8.2 -3.617,19.87 -5.66,33.97 -3.536,28.25 -7.942,66.11 -7.657,104.18 -0.242,38.02 2.286,76.05 6.278,104.3 1.785,14.15 3.41,25.92 5.109,34.07 1.496,8.19 2.352,12.87 2.352,12.87 l 14.737,-2.82" /><path
         id="path54"
         style="fill:#d48844;fill-opacity:1;fill-rule:nonzero;stroke:none"
         d="m 1541.19,2461.9 c 0,0 -2.17,-0.61 -5.98,-1.67 -3.84,-0.97 -9.23,-2.65 -15.65,-4.87 -12.88,-4.25 -30.08,-9.83 -46.8,-16.75 -17,-6.2 -33.25,-14.19 -45.69,-19.6 -6.23,-2.68 -11.13,-5.54 -14.69,-7.24 -3.53,-1.8 -5.54,-2.83 -5.54,-2.83 l -6.8,13.37 c 0,0 2.05,1.05 5.64,2.88 3.64,1.74 8.63,4.65 14.99,7.38 12.68,5.53 29.26,13.67 46.59,20 17.06,7.04 34.59,12.75 47.73,17.07 6.54,2.26 12.04,3.97 15.95,4.97 3.88,1.08 6.1,1.7 6.1,1.7 l 4.15,-14.41" /><path
         id="path56"
         style="fill:#f5a860;fill-opacity:1;fill-rule:nonzero;stroke:none"
         d="m 1390.73,2400.72 c 0,0 -1.89,-0.96 -5.09,-2.84 -3.21,-1.84 -7.81,-4.48 -13.32,-7.64 -11.19,-6.07 -25.47,-15.2 -39.7,-24.43 -14.22,-9.21 -27.78,-19.42 -38.14,-26.77 -9.99,-7.87 -16.65,-13.11 -16.65,-13.11 l -9.35,11.73 c 0,0 6.79,5.34 16.98,13.36 10.56,7.51 24.39,17.91 38.9,27.31 14.5,9.41 29.07,18.71 40.47,24.91 5.63,3.22 10.31,5.91 13.59,7.79 3.27,1.91 5.19,2.9 5.19,2.9 l 7.12,-13.21" /><path
         id="path58"
         style="fill:#935e33;fill-opacity:1;fill-rule:nonzero;stroke:none"
         d="m 1263.75,2314.59 c 0,0 -5.97,-5.19 -14.93,-12.97 -9.17,-7.56 -20.39,-18.72 -31.85,-29.62 -11.32,-11.06 -21.92,-22.82 -30.16,-31.36 -7.74,-8.98 -12.91,-14.97 -12.91,-14.97 l -11.38,9.76 c 0,0 5.26,6.11 13.17,15.27 8.38,8.71 19.2,20.7 30.73,31.97 11.69,11.12 23.14,22.49 32.48,30.2 9.13,7.94 15.22,13.23 15.22,13.23 l 9.63,-11.51" /><path
         id="path60"
         style="fill:#d48844;fill-opacity:1;fill-rule:nonzero;stroke:none"
         d="m 1008.87,1557.45 c 0,0 9.54,-44.28 25.1,-86.79 7.87,-21.18 16.11,-42.25 23.39,-57.57 6.72,-15.57 12.07,-25.53 12.07,-25.53 l -13.43,-6.69 c 0,0 -5.45,10.17 -12.31,26.04 -7.42,15.63 -15.83,37.11 -23.85,58.71 -15.86,43.35 -25.594,88.49 -25.594,88.49 l 14.624,3.34" /><path
         id="path62"
         style="fill:#d48844;fill-opacity:1;fill-rule:nonzero;stroke:none"
         d="m 1162.15,2211.92 c 0,0 -3.48,-4.45 -9.57,-12.23 -3.05,-3.9 -6.75,-8.63 -10.99,-14.05 -4,-5.61 -8.51,-11.93 -13.43,-18.83 -19.53,-27.68 -43.51,-66.16 -63.05,-106.96 -19.75,-40.7 -35.03,-83.38 -44.58,-115.89 -2.34,-8.15 -4.48,-15.62 -6.38,-22.24 -1.59,-6.7 -2.99,-12.54 -4.14,-17.35 -2.25,-9.62 -3.54,-15.13 -3.54,-15.13 l -14.661,3.17 c 0,0 1.312,5.61 3.609,15.43 1.172,4.9 2.594,10.86 4.227,17.69 1.935,6.75 4.115,14.37 6.495,22.68 9.74,33.15 25.33,76.67 45.47,118.16 19.92,41.6 44.37,80.84 64.27,109.06 5.02,7.03 9.62,13.48 13.7,19.19 4.32,5.53 8.09,10.35 11.2,14.33 6.21,7.93 9.76,12.47 9.76,12.47 l 11.61,-9.5" /><path
         id="path64"
         style="fill:#f39b4c;fill-opacity:1;fill-rule:nonzero;stroke:none"
         d="m 1423.65,1038.81 c 0,0 7.72,-3.49 19.3,-8.73 11.46,-5.54 27.34,-11.51 43.09,-17.77 15.92,-5.79 31.98,-11.27 44.12,-15.001 12.22,-3.508 20.37,-5.84 20.37,-5.84 l -3.99,-14.457 c 0,0 -8.31,2.379 -20.77,5.949 -12.38,3.809 -28.76,9.398 -45,15.301 -16.06,6.378 -32.24,12.478 -43.93,18.118 -11.81,5.34 -19.68,8.91 -19.68,8.91 l 6.49,13.52" /><path
         id="path66"
         style="fill:#f5a860;fill-opacity:1;fill-rule:nonzero;stroke:none"
         d="m 1292.67,1118.73 c 0,0 1.67,-1.31 4.6,-3.58 3.02,-2.15 7.35,-5.21 12.53,-8.88 5.2,-3.67 11.25,-7.95 17.74,-12.53 6.7,-4.28 13.84,-8.84 20.98,-13.4 14.16,-9.35 29.26,-17.12 40.17,-23.65 11.3,-5.82 18.83,-9.7 18.83,-9.7 l -6.8,-13.37 c 0,0 -7.68,3.96 -19.2,9.9 -11.13,6.64 -26.52,14.58 -40.95,24.1 -7.28,4.65 -14.56,9.31 -21.39,13.67 -6.62,4.67 -12.79,9.03 -18.09,12.77 -5.29,3.74 -9.69,6.87 -12.78,9.05 -2.98,2.32 -4.68,3.65 -4.68,3.65 l 9.04,11.97" /><path
         id="path68"
         style="fill:#f39b4c;fill-opacity:1;fill-rule:nonzero;stroke:none"
         d="m 1568,986.82 c 0,0 4.54,-1.07 12.48,-2.929 7.94,-1.911 19.27,-4.629 33.08,-6.922 27.4,-5.68 64.55,-9.821 101.76,-12 37.27,-1.93 74.6,-0.367 102.46,1.922 13.95,0.941 25.47,2.859 33.58,3.679 8.1,0.981 12.73,1.539 12.73,1.539 l 2.17,-14.839 c 0,0 -4.71,-0.571 -12.97,-1.571 -8.27,-0.84 -20.01,-2.789 -34.23,-3.758 -28.41,-2.332 -66.46,-3.921 -104.47,-1.953 -37.94,2.211 -75.83,6.453 -103.78,12.242 -14.07,2.34 -25.64,5.102 -33.72,7.051 -8.1,1.899 -12.73,2.989 -12.73,2.989 l 3.64,14.55" /><path
         id="path70"
         style="fill:#935e33;fill-opacity:1;fill-rule:nonzero;stroke:none"
         d="m 1140.23,1272.1 c 0,0 1.1,-1.64 3.28,-4.34 2.14,-2.71 5.2,-6.6 8.87,-11.26 3.68,-4.65 7.98,-10.08 12.59,-15.89 4.86,-5.6 10.05,-11.57 15.24,-17.54 10.11,-12.18 21.59,-23.12 29.64,-31.84 4.03,-4.36 7.71,-7.66 10.2,-10.06 2.51,-2.39 3.94,-3.75 3.94,-3.75 l -10.38,-10.82 c 0,0 -1.47,1.39 -4.02,3.82 -2.54,2.45 -6.3,5.82 -10.41,10.27 -8.2,8.88 -19.9,20.04 -30.22,32.45 -5.29,6.09 -10.58,12.18 -15.54,17.89 -4.69,5.93 -9.08,11.46 -12.83,16.2 -3.74,4.75 -6.86,8.71 -9.05,11.49 -2.21,2.74 -3.34,4.42 -3.34,4.42 l 12.03,8.96" /><path
         id="path72"
         style="fill:#d48844;fill-opacity:1;fill-rule:nonzero;stroke:none"
         d="m 1237.11,1164.98 c 0,0 2.36,-2.44 6.27,-5.7 3.85,-3.32 8.99,-7.75 14.12,-12.18 10.11,-9.05 20.93,-17.23 20.93,-17.23 l -9.32,-11.75 c 0,0 -11.03,8.34 -21.34,17.57 -5.24,4.51 -10.47,9.03 -14.4,12.41 -3.98,3.33 -6.39,5.81 -6.39,5.81 l 10.13,11.07" /><path
         id="path74"
         style="fill:#d48844;fill-opacity:1;fill-rule:nonzero;stroke:none"
         d="m 1077.65,1371.45 c 0,0 0.71,-1.39 1.94,-3.81 1.18,-2.45 3.1,-5.83 5.44,-9.86 4.72,-8.04 10.65,-18.98 17.19,-29.55 6.73,-10.45 13.46,-20.9 18.5,-28.74 5.41,-7.6 9.02,-12.66 9.02,-12.66 l -12.24,-8.68 c 0,0 -3.68,5.17 -9.19,12.92 -5.14,7.99 -12,18.65 -18.87,29.31 -6.67,10.77 -12.72,21.92 -17.53,30.13 -2.39,4.11 -4.34,7.55 -5.55,10.06 -1.26,2.47 -1.98,3.88 -1.98,3.88 l 13.27,7" /><path
         id="path76"
         style="fill:#f5a860;fill-opacity:1;fill-rule:nonzero;stroke:none"
         d="m 2461.47,2015.01 c 0,0 -0.67,1.71 -1.84,4.71 -1.09,3.02 -2.94,7.22 -5.23,12.24 -4.72,9.95 -10.06,23.68 -17.05,36.62 -6.65,13.1 -13.25,26.23 -18.98,35.66 -5.48,9.55 -9.14,15.92 -9.14,15.92 l 12.87,7.71 c 0,0 3.73,-6.5 9.33,-16.25 5.83,-9.61 12.57,-23 19.35,-36.36 7.12,-13.2 12.58,-27.19 17.39,-37.34 2.33,-5.12 4.21,-9.4 5.33,-12.49 1.19,-3.05 1.88,-4.79 1.88,-4.79 l -13.91,-5.63" /><path
         id="path78"
         style="fill:#f5a860;fill-opacity:1;fill-rule:nonzero;stroke:none"
         d="m 2399.68,2135.51 c 0,0 -1.53,2.38 -4.2,6.54 -2.74,4.11 -6.3,10.23 -11.23,17.13 -4.91,6.9 -10.65,14.96 -16.8,23.59 -6.27,8.53 -13.46,17.26 -20.4,26.18 -14.36,17.44 -29.2,34.52 -41.13,46.56 -5.89,6.1 -10.69,11.28 -14.22,14.74 -3.59,3.4 -5.64,5.35 -5.64,5.35 l 10.45,10.75 c 0,0 2.09,-1.98 5.75,-5.45 3.6,-3.52 8.5,-8.81 14.5,-15.02 12.16,-12.29 27.3,-29.69 41.94,-47.48 7.07,-9.09 14.4,-17.99 20.8,-26.7 6.27,-8.8 12.12,-17.01 17.13,-24.05 5.02,-7.04 8.66,-13.27 11.46,-17.46 2.72,-4.25 4.27,-6.67 4.27,-6.67 l -12.68,-8.01" /><path
         id="path80"
         style="fill:#d48844;fill-opacity:1;fill-rule:nonzero;stroke:none"
         d="m 2272.95,2288.04 c 0,0 -2.36,2.24 -6.48,6.15 -4.31,3.72 -10.46,9.03 -17.83,15.39 -7.26,6.52 -16.18,13.57 -25.83,21.01 -4.82,3.72 -9.7,7.71 -14.85,11.5 -5.22,3.69 -10.52,7.45 -15.83,11.2 -10.46,7.72 -21.48,14.62 -31.76,21.15 -10.16,6.75 -20.09,12.29 -28.55,17.13 -8.47,4.83 -15.45,8.99 -20.58,11.44 -5.07,2.59 -7.96,4.07 -7.96,4.07 l 6.88,13.33 c 0,0 2.95,-1.51 8.11,-4.15 5.24,-2.5 12.35,-6.74 20.99,-11.67 8.62,-4.93 18.75,-10.58 29.1,-17.45 10.49,-6.67 21.72,-13.71 32.39,-21.57 5.41,-3.83 10.81,-7.66 16.13,-11.43 5.26,-3.85 10.23,-7.92 15.15,-11.71 9.83,-7.59 18.93,-14.78 26.33,-21.42 7.52,-6.5 13.79,-11.91 18.17,-15.7 4.21,-3.98 6.61,-6.26 6.61,-6.26 l -10.19,-11.01" /><path
         id="path82"
         style="fill:#f5a860;fill-opacity:1;fill-rule:nonzero;stroke:none"
         d="m 1773.38,2491.72 c 0,0 -13.55,0.75 -27.11,0.21 -6.78,-0.13 -13.56,-0.26 -18.65,-0.36 -5.08,-0.07 -8.47,-0.23 -8.47,-0.23 l -0.69,14.98 c 0,0 3.45,0.16 8.64,0.24 5.18,0.1 12.1,0.24 19.01,0.37 13.82,0.54 27.65,-0.21 27.65,-0.21 l -0.38,-15" /><path
         id="path84"
         style="fill:#f39b4c;fill-opacity:1;fill-rule:nonzero;stroke:none"
         d="m 2087.18,2415.31 c 0,0 -3.5,1.84 -8.94,4.22 -5.4,2.45 -12.61,5.71 -19.82,8.96 -7.15,3.41 -14.56,6.18 -20.07,8.38 -5.52,2.18 -9.2,3.63 -9.2,3.63 l 5.43,13.99 c 0,0 3.75,-1.49 9.38,-3.71 5.61,-2.24 13.17,-5.07 20.46,-8.54 7.35,-3.32 14.7,-6.65 20.21,-9.14 5.55,-2.42 9.12,-4.3 9.12,-4.3 l -6.57,-13.49" /><path
         id="path86"
         style="fill:#b3733c;fill-opacity:1;fill-rule:nonzero;stroke:none"
         d="m 1701.12,2490.09 c 0,0 -9.04,-0.47 -22.53,-1.73 -6.74,-0.82 -14.59,-1.76 -23,-2.78 -4.21,-0.51 -8.55,-1.03 -12.97,-1.57 -4.39,-0.75 -8.84,-1.52 -13.29,-2.29 -8.91,-1.55 -17.81,-3.1 -26.16,-4.55 -8.27,-1.86 -15.99,-3.59 -22.6,-5.08 -6.61,-1.52 -12.15,-2.66 -15.97,-3.67 -3.81,-1.06 -5.99,-1.67 -5.99,-1.67 l -3.81,14.51 c 0,0 2.22,0.62 6.11,1.7 3.9,1.03 9.54,2.19 16.28,3.74 6.74,1.52 14.61,3.29 23.04,5.18 8.51,1.48 17.59,3.06 26.66,4.64 4.54,0.78 9.09,1.56 13.55,2.33 4.51,0.55 8.94,1.09 13.22,1.61 8.58,1.03 16.58,2 23.45,2.82 13.75,1.29 22.96,1.77 22.96,1.77 l 1.05,-14.96" /><path
         id="path88"
         style="fill:#f5a860;fill-opacity:1;fill-rule:nonzero;stroke:none"
         d="m 1854.45,2485.33 c 0,0 -3.92,0.52 -9.81,1.3 -5.87,0.9 -13.73,1.71 -21.63,2.25 -7.88,0.64 -15.77,1.28 -21.68,1.76 -2.96,0.29 -5.43,0.41 -7.16,0.43 -1.73,0.06 -2.72,0.09 -2.72,0.09 l 0.74,14.98 c 0,0 1,-0.03 2.77,-0.09 1.76,-0.02 4.28,-0.15 7.29,-0.44 6.03,-0.49 14.07,-1.14 22.11,-1.79 8.06,-0.55 16.08,-1.38 22.07,-2.3 5.99,-0.79 9.99,-1.32 9.99,-1.32 l -1.97,-14.87" /><path
         id="path90"
         style="fill:#b3733c;fill-opacity:1;fill-rule:nonzero;stroke:none"
         d="m 2012.26,2446.95 c 0,0 -14.98,5.1 -29.96,10.19 -15.2,4.39 -30.4,8.77 -30.4,8.77 l 3.9,14.48 c 0,0 15.51,-4.47 31.01,-8.94 15.27,-5.2 30.55,-10.39 30.55,-10.39 l -5.1,-14.11" /><path
         id="path92"
         style="fill:#f5a860;fill-opacity:1;fill-rule:nonzero;stroke:none"
         d="m 1934.37,2470.35 c 0,0 -3.85,0.9 -9.62,2.25 -5.81,1.23 -13.42,3.44 -21.25,4.68 -15.56,2.84 -31.13,5.69 -31.13,5.69 l 2.34,14.81 c 0,0 15.87,-2.9 31.74,-5.79 7.98,-1.27 15.75,-3.52 21.66,-4.77 5.9,-1.38 9.82,-2.3 9.82,-2.3 l -3.56,-14.57" /><path
         id="path94"
         style="fill:#935e33;fill-opacity:1;fill-rule:nonzero;stroke:none"
         d="m 2482.08,2003.46 c 0,0 4.03,-9.72 9.64,-27.26 2.87,-8.74 6.67,-19.26 9.88,-31.67 3.42,-12.35 7.58,-26.21 10.74,-41.67 7.57,-30.63 12.98,-67.1 16.97,-106.29 3.58,-39.26 3.89,-81.44 1.14,-123.4 -2.58,-42 -9.46,-83.66 -18.43,-122.04 -4.1,-19.3 -9.84,-37.49 -14.74,-54.89 -5.97,-17.05 -10.79,-33.48 -16.94,-48.02 -2.9,-7.34 -5.68,-14.37 -8.32,-21.05 -2.75,-6.64 -5.71,-12.79 -8.3,-18.65 -5.18,-11.72 -9.91,-21.84 -14.26,-29.95 -4.19,-8.19 -7.49,-14.62 -9.73,-19.01 -2.24,-4.39 -3.65,-6.62 -3.65,-6.62 l -13.14,7.24 c 0,0 1.38,2.18 3.58,6.48 2.2,4.31 5.43,10.62 9.54,18.65 4.27,7.96 8.91,17.88 13.99,29.38 2.54,5.74 5.44,11.77 8.14,18.29 2.59,6.55 5.31,13.45 8.16,20.64 6.03,14.25 10.75,30.37 16.61,47.09 4.79,17.06 10.44,34.9 14.46,53.83 8.79,37.64 15.54,78.49 18.07,119.68 2.69,41.14 2.39,82.5 -1.12,121.02 -3.93,38.44 -9.21,74.23 -16.65,104.27 -3.1,15.17 -7.18,28.75 -10.53,40.87 -3.14,12.17 -6.88,22.49 -9.69,31.06 -5.5,17.2 -9.45,26.73 -9.45,26.73 l 14.03,5.29" /><path
         id="path96"
         style="fill:#b3733c;fill-opacity:1;fill-rule:nonzero;stroke:none"
         d="m 2426.91,1336.95 c 0,0 -2.66,-4.61 -7.32,-12.69 -5.04,-7.85 -12.24,-19.05 -20.88,-32.51 -18.01,-26.4 -43.86,-60.4 -72.75,-91.77 -28.6,-31.66 -60.75,-59.86 -85.63,-79.9 -12.52,-9.94 -22.98,-18.19 -30.72,-23.41 -7.6,-5.41 -11.94,-8.5 -11.94,-8.5 l -8.57,12.31 c 0,0 4.26,3.03 11.71,8.34 7.6,5.12 17.85,13.21 30.14,22.96 24.39,19.65 55.93,47.3 83.97,78.37 28.34,30.76 53.69,64.11 71.37,90.01 8.47,13.19 15.53,24.19 20.47,31.88 4.57,7.92 7.18,12.45 7.18,12.45 l 12.97,-7.54" /><path
         id="path98"
         style="fill:#b3733c;fill-opacity:1;fill-rule:nonzero;stroke:none"
         d="m 2182.42,1077.8 c 0,0 -4.48,-2.88 -12.34,-7.91 -3.94,-2.48 -8.65,-5.64 -14.21,-9 -5.63,-3.23 -11.99,-6.88 -18.92,-10.86 -13.7,-8.28 -30.57,-16.31 -48.38,-25.36 -9.12,-4.1 -18.54,-8.33 -28.11,-12.63 -9.56,-4.33 -19.65,-7.84 -29.53,-11.83 -39.91,-14.948 -80.92,-27.069 -112.3,-33.249 -15.53,-3.82 -28.78,-5.461 -37.93,-7.211 -9.19,-1.578 -14.44,-2.48 -14.44,-2.48 l -2.17,14.839 c 0,0 5.15,0.891 14.16,2.442 8.98,1.719 21.98,3.32 37.21,7.078 30.78,6.051 71,17.941 110.14,32.601 9.69,3.91 19.58,7.35 28.95,11.6 9.39,4.22 18.63,8.37 27.57,12.38 17.46,8.89 34.01,16.75 47.44,24.87 6.8,3.9 13.03,7.48 18.56,10.65 5.45,3.29 10.06,6.39 13.93,8.83 7.7,4.94 12.1,7.76 12.1,7.76 l 8.27,-12.52" /></g></g></svg>