<?xml version="1.0" encoding="UTF-8" standalone="no"?>
<svg
   xmlns:dc="http://purl.org/dc/elements/1.1/"
   xmlns:cc="http://creativecommons.org/ns#"
   xmlns:rdf="http://www.w3.org/1999/02/22-rdf-syntax-ns#"
   xmlns:svg="http://www.w3.org/2000/svg"
   xmlns="http://www.w3.org/2000/svg"
   viewBox="0 0 466.66666 466.66666"
   height="466.66666"
   width="466.66666"
   xml:space="preserve"
   id="svg2"
   version="1.1"><metadata
     id="metadata8"><rdf:RDF><cc:Work
         rdf:about=""><dc:format>image/svg+xml</dc:format><dc:type
           rdf:resource="http://purl.org/dc/dcmitype/StillImage" /></cc:Work></rdf:RDF></metadata><defs
     id="defs6" /><g
     transform="matrix(1.3333333,0,0,-1.3333333,0,466.66667)"
     id="g10"><g
       transform="scale(0.1)"
       id="g12"><path
         id="path14"
         style="fill:#bd5d6a;fill-opacity:1;fill-rule:nonzero;stroke:none"
         d="m 2343.33,1418.44 c 0,0 1.49,2.42 3.66,6.88 2.19,4.45 5.31,10.81 9.05,18.44 3.94,7.55 7.69,16.74 11.93,26.48 4.41,9.68 8.3,20.33 12.25,30.95 7.9,21.25 14.5,42.98 18.71,59.45 2.23,8.2 4.07,15.04 4.99,19.92 1.05,4.85 1.65,7.62 1.65,7.62 l -14.65,3.21 c 0,0 -0.59,-2.71 -1.61,-7.45 -0.9,-4.77 -2.7,-11.45 -4.89,-19.47 -4.1,-16.1 -10.55,-37.34 -18.28,-58.11 -3.86,-10.38 -7.66,-20.79 -11.98,-30.25 -4.14,-9.52 -7.8,-18.51 -11.65,-25.88 -3.66,-7.46 -6.71,-13.67 -8.84,-18.03 -2.12,-4.36 -3.58,-6.72 -3.58,-6.72 l 13.24,-7.04" /><path
         id="path16"
         style="fill:#9b404a;fill-opacity:1;fill-rule:nonzero;stroke:none"
         d="m 1096.11,1831.9 c 0,0 -1.05,-5.32 -2.04,-14.76 -1.06,-9.43 -3.01,-22.86 -3.86,-39.11 -2.42,-32.42 -2.63,-75.96 2.21,-119.09 4.58,-43.16 14.02,-85.64 23.28,-116.82 4.96,-15.48 8.93,-28.45 12.3,-37.32 3.37,-8.87 5.3,-13.94 5.3,-13.94 l 13.99,5.41 c 0,0 -1.89,4.95 -5.18,13.62 -3.29,8.67 -7.17,21.35 -12.03,36.48 -9.05,30.47 -18.27,72 -22.75,114.19 -4.73,42.16 -4.53,84.72 -2.16,116.42 0.83,15.89 2.74,29.02 3.77,38.23 0.97,9.23 2,14.44 2,14.44 l -14.83,2.25" /><path
         id="path18"
         style="fill:#6c2f34;fill-opacity:1;fill-rule:nonzero;stroke:none"
         d="m 1139.05,1476.18 c 0,0 2.17,-4.97 5.98,-13.66 1.95,-4.32 4.1,-9.67 6.97,-15.62 2.95,-5.91 6.27,-12.58 9.9,-19.86 14.85,-28.92 37.24,-66.24 63.77,-100.58 26.39,-34.43 56.25,-66.14 80.51,-87.81 11.97,-11.01 22.59,-19.46 29.72,-25.72 7.52,-5.79 11.81,-9.1 11.81,-9.1 l 9.18,11.87 c 0,0 -4.2,3.23 -11.55,8.89 -6.96,6.12 -17.35,14.38 -29.05,25.14 -23.72,21.18 -52.92,52.2 -78.72,85.85 -25.93,33.58 -47.81,70.05 -62.33,98.32 -3.54,7.11 -6.79,13.63 -9.67,19.41 -2.82,5.81 -4.91,11.04 -6.82,15.27 -3.72,8.49 -5.85,13.34 -5.85,13.34 l -13.85,-5.74" /><path
         id="path20"
         style="fill:#55262a;fill-opacity:1;fill-rule:nonzero;stroke:none"
         d="m 1360.22,1194.22 c 0,0 1.08,-0.81 3.11,-2.34 2.09,-1.45 5.15,-3.57 9.06,-6.26 7.79,-5.42 18.84,-13.27 32.82,-21.61 27.59,-17.18 66.06,-37.56 106.54,-53.21 40.38,-15.88 82.41,-27.19 114.35,-33.33 16.02,-2.82 29.37,-5.21 38.78,-6.38 9.43,-1.12 14.81,-1.76 14.81,-1.76 l 1.69,14.91 c 0,0 -5.27,0.62 -14.48,1.71 -9.2,1.14 -22.26,3.49 -37.91,6.24 -31.22,6 -72.32,17.06 -111.78,32.58 -39.57,15.29 -77.16,35.21 -104.13,52.01 -13.66,8.14 -24.46,15.82 -32.07,21.11 -3.82,2.64 -6.82,4.71 -8.86,6.12 -1.98,1.49 -3.04,2.29 -3.04,2.29 l -8.89,-12.08" /><path
         id="path22"
         style="fill:#83373f;fill-opacity:1;fill-rule:nonzero;stroke:none"
         d="m 1695.37,1067.63 c 0,0 5.41,-0.38 14.87,-1.04 9.46,-0.91 23.01,-1.25 39.27,-1.54 32.52,-0.28 75.97,2.19 118.72,9.69 42.8,7.19 84.58,19.38 115.11,30.53 15.24,5.69 27.88,10.57 36.48,14.6 8.69,3.81 13.66,5.98 13.66,5.98 l -6.28,13.63 c 0,0 -4.85,-2.13 -13.34,-5.84 -8.4,-3.95 -20.76,-8.71 -35.65,-14.28 -29.85,-10.89 -70.69,-22.81 -112.52,-29.84 -41.78,-7.33 -84.27,-9.74 -116.05,-9.47 -15.9,0.28 -29.15,0.61 -38.39,1.5 -9.26,0.65 -14.55,1.02 -14.55,1.02 l -1.33,-14.94" /><path
         id="path24"
         style="fill:#bd5d6a;fill-opacity:1;fill-rule:nonzero;stroke:none"
         d="m 2421.17,1736.88 c 0,0 -0.35,13.8 -0.7,27.6 -1.01,13.76 -2.01,27.52 -2.01,27.52 l -14.94,-1.35 c 0,0 0.98,-13.46 1.97,-26.91 0.34,-13.49 0.68,-26.98 0.68,-26.98 l 15,0.12" /><path
         id="path26"
         style="fill:#bd5d6a;fill-opacity:1;fill-rule:nonzero;stroke:none"
         d="m 2306.66,1357.73 c 0,0 1.97,2.84 4.91,7.09 2.89,4.29 6.41,10.23 10.08,16.07 7.5,11.6 14.04,23.75 14.04,23.75 l -13.07,7.36 c 0,0 -6.39,-11.88 -13.72,-23.21 -3.6,-5.71 -7.03,-11.52 -9.85,-15.71 -2.88,-4.16 -4.8,-6.93 -4.8,-6.93 l 12.41,-8.42" /><path
         id="path28"
         style="fill:#83373f;fill-opacity:1;fill-rule:nonzero;stroke:none"
         d="m 2416.76,1807.68 c 0,0 -0.73,6 -2,16.49 -1.56,10.44 -3.85,25.38 -7.53,43.11 -7.1,35.5 -20.56,82.13 -39.78,126.47 -18.91,44.48 -43.47,86.32 -64.17,116.02 -5.26,7.37 -9.86,14.29 -14.33,20.13 -4.53,5.8 -8.48,10.86 -11.73,15.02 -3.26,4.16 -5.82,7.43 -7.57,9.66 -1.85,2.14 -2.84,3.28 -2.84,3.28 l -11.52,-9.61 c 0,0 0.97,-1.12 2.78,-3.21 1.71,-2.18 4.21,-5.37 7.39,-9.44 3.18,-4.07 7.05,-9.01 11.48,-14.68 4.37,-5.71 8.86,-12.48 14.01,-19.69 20.23,-29.03 44.23,-69.92 62.71,-113.39 18.79,-43.33 31.95,-88.9 38.88,-123.61 3.6,-17.33 5.84,-31.93 7.37,-42.14 1.24,-10.25 1.95,-16.11 1.95,-16.11 l 14.9,1.7" /><path
         id="path30"
         style="fill:#bd5d6a;fill-opacity:1;fill-rule:nonzero;stroke:none"
         d="m 2256.48,2169.78 c 0,0 -3.88,4.46 -9.71,11.15 -6.14,6.41 -14.33,14.95 -22.52,23.49 -8.6,8.12 -17.19,16.25 -23.64,22.34 -6.61,5.92 -11.19,9.67 -11.19,9.67 l -9.8,-11.36 c 0,0 4.48,-3.66 10.94,-9.45 6.3,-5.95 14.71,-13.9 23.12,-21.84 8,-8.35 16.01,-16.71 22.01,-22.97 5.7,-6.54 9.5,-10.9 9.5,-10.9 l 11.29,9.87" /><path
         id="path32"
         style="fill:#bd5d6a;fill-opacity:1;fill-rule:nonzero;stroke:none"
         d="m 2418.01,1666.01 c 0,0 0.43,3.42 0.73,8.59 0.36,5.16 0.85,12.05 1.33,18.93 0.63,6.88 0.61,13.78 0.76,18.96 0.12,5.17 0.19,8.62 0.19,8.62 l -15,0.24 c 0,0 -0.07,-3.38 -0.19,-8.44 -0.14,-5.05 -0.11,-11.81 -0.73,-18.53 -0.48,-6.73 -0.95,-13.46 -1.31,-18.51 -0.29,-5.05 -0.7,-8.4 -0.7,-8.4 l 14.92,-1.46" /><path
         id="path34"
         style="fill:#83373f;fill-opacity:1;fill-rule:nonzero;stroke:none"
         d="m 2408.92,1603.59 c 0,0 0.6,2.9 1.29,7.28 0.74,4.38 1.71,10.21 2.69,16.04 1.02,5.83 1.97,11.67 2.39,16.09 0.52,4.4 0.87,7.34 0.87,7.34 l -14.89,1.82 c 0,0 -0.34,-2.87 -0.85,-7.18 -0.41,-4.32 -1.34,-10.03 -2.34,-15.72 -0.95,-5.71 -1.9,-11.41 -2.62,-15.69 -0.68,-4.28 -1.26,-7.11 -1.26,-7.11 l 14.72,-2.87" /><path
         id="path36"
         style="fill:#83373f;fill-opacity:1;fill-rule:nonzero;stroke:none"
         d="m 2268.86,1307.27 c 0,0 1.91,2.25 4.78,5.63 2.71,3.52 6.31,8.21 9.91,12.9 3.61,4.69 7.21,9.38 9.91,12.9 2.54,3.63 4.23,6.06 4.23,6.06 l -12.21,8.71 c 0,0 -1.65,-2.37 -4.13,-5.93 -2.64,-3.43 -6.17,-8.02 -9.69,-12.6 -3.52,-4.58 -7.04,-9.17 -9.68,-12.61 -2.81,-3.3 -4.68,-5.5 -4.68,-5.5 l 11.56,-9.56" /><path
         id="path38"
         style="fill:#55262a;fill-opacity:1;fill-rule:nonzero;stroke:none"
         d="m 2016.14,2344.41 c 0,0 -1.67,0.72 -4.8,2.07 -3.12,1.36 -7.69,3.39 -13.69,5.52 -5.95,2.24 -13.19,4.95 -21.48,8.06 -8.37,2.91 -17.94,5.8 -28.31,9.18 -41.62,13.05 -99.06,24.31 -157.17,27.5 -58.13,3.31 -116.4,-2.35 -159.22,-10.47 -21.39,-4.23 -39.13,-8.25 -51.34,-11.83 -6.14,-1.67 -10.96,-2.98 -14.25,-3.88 -3.3,-0.85 -5,-1.51 -5,-1.51 l 4.36,-14.36 c 0,0 1.65,0.66 4.88,1.49 3.22,0.87 7.93,2.15 13.93,3.78 11.93,3.5 29.28,7.43 50.18,11.57 41.85,7.93 98.82,13.47 155.65,10.23 56.81,-3.12 112.96,-14.12 153.65,-26.88 10.13,-3.31 19.49,-6.13 27.67,-8.98 8.11,-3.04 15.18,-5.69 21,-7.87 5.86,-2.08 10.32,-4.07 13.38,-5.4 3.05,-1.32 4.68,-2.03 4.68,-2.03 l 5.88,13.81" /><path
         id="path40"
         style="fill:#6c2f34;fill-opacity:1;fill-rule:nonzero;stroke:none"
         d="m 1243.36,2158.44 c 0,0 -2.16,-2.53 -5.93,-6.96 -3.71,-4.49 -8.66,-11.18 -14.78,-19.07 -12.23,-15.77 -27.11,-37.88 -40.88,-60.65 -6.74,-11.46 -13.08,-23.17 -19,-34.15 -5.41,-11.24 -10.8,-21.57 -14.85,-30.69 -3.95,-9.17 -7.24,-16.8 -9.55,-22.15 -2.39,-5.31 -3.4,-8.49 -3.4,-8.49 l 13.95,-5.5 c 0,0 0.99,3.11 3.33,8.3 2.25,5.22 5.47,12.69 9.34,21.64 3.95,8.92 9.22,19.01 14.51,30 5.78,10.73 11.98,22.17 18.57,33.38 13.46,22.25 27.99,43.86 39.95,59.27 5.98,7.71 10.82,14.25 14.44,18.64 3.69,4.33 5.8,6.8 5.8,6.8 l -11.5,9.63" /><path
         id="path42"
         style="fill:#281717;fill-opacity:1;fill-rule:nonzero;stroke:none"
         d="m 1444.34,2321.2 c 0,0 -13.43,-7.29 -33.23,-18.82 -19.43,-12.12 -45.25,-28.6 -68.95,-47.94 -12.28,-9.12 -23.4,-19.65 -34.35,-28.87 -10.47,-9.78 -20.13,-19.04 -28.27,-27.1 -7.86,-8.34 -14.41,-15.29 -19,-20.15 -4.62,-4.83 -6.95,-7.87 -6.95,-7.87 l 11.27,-9.9 c 0,0 2.27,2.98 6.79,7.7 4.49,4.75 10.89,11.55 18.58,19.7 7.96,7.88 17.41,16.93 27.64,26.49 10.72,9.02 21.58,19.33 33.59,28.23 23.17,18.92 48.41,35.02 67.4,46.86 19.35,11.27 32.47,18.41 32.47,18.41 l -6.99,13.26" /><path
         id="path44"
         style="fill:#55262a;fill-opacity:1;fill-rule:nonzero;stroke:none"
         d="m 2177.41,2246.66 c 0,0 -1.99,1.84 -5.74,4.75 -3.76,2.89 -9.14,7.02 -15.59,11.97 -6.34,5.1 -14.1,10.56 -22.51,16.27 -4.18,2.89 -8.5,5.88 -12.89,8.91 -4.52,2.83 -9.12,5.7 -13.72,8.58 -36.71,23.16 -76.34,41.02 -76.34,41.02 l -6.2,-13.66 c 0,0 38.73,-17.46 74.61,-40.09 4.49,-2.81 8.99,-5.62 13.41,-8.38 4.29,-2.97 8.51,-5.89 12.6,-8.72 8.22,-5.57 15.8,-10.91 22,-15.9 6.3,-4.84 11.56,-8.87 15.23,-11.7 3.67,-2.83 5.62,-4.64 5.62,-4.64 l 9.52,11.59" /><path
         id="path46"
         style="fill:#1a1413;fill-opacity:1;fill-rule:nonzero;stroke:none"
         d="m 1538.38,2361.73 c 0,0 -5.2,-1.55 -12.76,-4.55 -7.55,-3 -17.83,-6.51 -27.77,-10.84 -9.91,-4.39 -19.91,-8.59 -27.27,-12.06 -7.27,-3.62 -12.13,-6.04 -12.13,-6.04 l 6.68,-13.43 c 0,0 4.74,2.36 11.85,5.91 7.19,3.39 16.97,7.48 26.65,11.78 9.72,4.24 19.76,7.66 27.15,10.59 7.38,2.94 12.47,4.45 12.47,4.45 l -4.87,14.19" /><path
         id="path48"
         style="fill:#bd5d6a;fill-opacity:1;fill-rule:nonzero;stroke:none"
         d="m 1129.43,1961.51 c 0,0 -10.43,-27.71 -17.87,-56.35 -7.96,-28.49 -12.85,-57.7 -12.85,-57.7 l 14.77,-2.6 c 0,0 4.79,28.55 12.57,56.41 7.27,27.99 17.46,55.07 17.46,55.07 l -14.08,5.17" /><path
         id="path50"
         style="fill:#b34955;fill-opacity:1;fill-rule:nonzero;stroke:none"
         d="m 2047.68,1132.71 c 0,0 42.82,20.42 81.73,47.5 19.58,13.29 38.24,27.87 51.92,39.16 13.42,11.62 22.36,19.36 22.36,19.36 l -10.1,11.09 c 0,0 -8.75,-7.57 -21.87,-18.93 -13.38,-11.04 -31.62,-25.29 -50.76,-38.29 -38.03,-26.46 -79.88,-46.42 -79.88,-46.42 l 6.6,-13.47" /><path
         id="path52"
         style="fill:#bd5d6a;fill-opacity:1;fill-rule:nonzero;stroke:none"
         d="m 1128.42,1463.05 c 0,0 1.67,-3.81 4.59,-10.48 2.75,-6.74 7.34,-16.07 12.97,-27.2 10.91,-22.44 27.7,-51.25 46.47,-78.7 18.41,-27.74 40.14,-53.04 56.53,-71.81 8.38,-9.22 15.75,-16.57 20.73,-21.87 4.97,-5.31 8.03,-8.13 8.03,-8.13 l -10.52,-10.7 c 0,0 -3.11,2.88 -8.2,8.31 -5.09,5.41 -12.61,12.92 -21.18,22.34 -16.75,19.17 -38.94,45.03 -57.76,73.38 -19.19,28.05 -36.34,57.51 -47.5,80.44 -5.76,11.38 -10.44,20.91 -13.26,27.81 -2.98,6.81 -4.69,10.7 -4.69,10.7 l 13.79,5.91" /><path
         id="path54"
         style="fill:#9b404a;fill-opacity:1;fill-rule:nonzero;stroke:none"
         d="m 1231.86,2168.07 c 0,0 -20.98,-24.57 -38.99,-51.35 -9.47,-13.07 -17.5,-27.09 -23.99,-37.29 -3.28,-5.09 -5.47,-9.65 -7.26,-12.69 -1.71,-3.08 -2.68,-4.85 -2.68,-4.85 l -13.12,7.28 c 0,0 1,1.8 2.75,4.96 1.82,3.11 4.07,7.76 7.41,12.96 6.63,10.44 14.85,24.76 24.53,38.12 18.41,27.38 39.85,52.49 39.85,52.49 l 11.5,-9.63" /><path
         id="path56"
         style="fill:#bd5d6a;fill-opacity:1;fill-rule:nonzero;stroke:none"
         d="m 1151.13,2047.78 c 0,0 -0.92,-1.65 -2.35,-4.64 -1.46,-2.97 -3.54,-7.21 -6.04,-12.3 -5.24,-10.07 -11.25,-23.94 -17.16,-37.86 -5.92,-13.91 -10.86,-28.22 -14.85,-38.83 -3.46,-10.8 -5.77,-18 -5.77,-18 l -14.31,4.5 c 0,0 2.36,7.36 5.9,18.39 4.07,10.85 9.12,25.47 15.18,39.69 6.04,14.23 12.19,28.41 17.54,38.7 2.55,5.2 4.68,9.54 6.17,12.57 1.47,3.05 2.4,4.74 2.4,4.74 l 13.29,-6.96" /><path
         id="path58"
         style="fill:#6c2f34;fill-opacity:1;fill-rule:nonzero;stroke:none"
         d="m 1100.21,1920.75 c 0,0 -1.83,-6.82 -4.57,-17.04 -3,-10.16 -5.74,-24.01 -8.77,-37.79 -2.86,-13.82 -4.83,-27.8 -6.65,-38.23 -1.25,-10.5 -2.08,-17.51 -2.08,-17.51 l -14.9,1.73 c 0,0 0.85,7.16 2.13,17.9 1.85,10.65 3.88,24.94 6.79,39.06 3.1,14.08 5.9,28.24 8.97,38.62 2.8,10.45 4.66,17.41 4.66,17.41 l 14.42,-4.15" /><path
         id="path60"
         style="fill:#9b404a;fill-opacity:1;fill-rule:nonzero;stroke:none"
         d="m 1289.47,1233.79 c 0,0 29.14,-27.97 61.85,-51.65 16.39,-11.73 32.99,-23.19 46.01,-30.89 12.74,-8.16 21.67,-12.86 21.67,-12.86 l -7.4,-13.05 c 0,0 -9.12,4.81 -22.14,13.14 -13.31,7.88 -30.28,19.59 -47.03,31.58 -33.44,24.2 -63.22,52.79 -63.22,52.79 l 10.26,10.94" /><path
         id="path62"
         style="fill:#9b404a;fill-opacity:1;fill-rule:nonzero;stroke:none"
         d="m 1076.31,1794.16 c 0,0 -0.35,-5.03 -0.97,-13.83 -0.31,-4.39 -0.69,-9.74 -1.12,-15.86 -0.16,-6.14 -0.34,-13.07 -0.54,-20.62 -0.63,-30.21 0.84,-70.63 6.74,-110.54 5.71,-39.94 15.7,-79.13 24.85,-107.93 2.34,-7.19 4.48,-13.78 6.38,-19.62 2.16,-5.75 4.05,-10.76 5.6,-14.89 3.13,-8.24 4.92,-12.95 4.92,-12.95 l -13.92,-5.58 c 0,0 -1.83,4.81 -5.04,13.24 -1.58,4.22 -3.51,9.34 -5.71,15.22 -1.95,5.97 -4.14,12.71 -6.53,20.06 -9.36,29.43 -19.56,69.48 -25.39,110.3 -6.04,40.79 -7.54,82.09 -6.9,112.96 0.21,7.72 0.39,14.8 0.56,21.08 0.44,6.26 0.82,11.71 1.13,16.21 0.64,8.99 1,14.13 1,14.13 l 14.94,-1.38" /><path
         id="path64"
         style="fill:#b34955;fill-opacity:1;fill-rule:nonzero;stroke:none"
         d="m 1854.87,1057.24 c 0,0 7.45,1.28 18.63,3.18 11.23,1.62 25.95,5.13 40.72,8.35 14.66,3.67 29.27,7.63 40.11,10.92 10.78,3.51 17.97,5.85 17.97,5.85 l 4.78,-14.22 c 0,0 -7.35,-2.39 -18.37,-5.97 -11.08,-3.37 -26.01,-7.42 -40.99,-11.17 -15.1,-3.3 -30.14,-6.87 -41.62,-8.53 -11.43,-1.95 -19.04,-3.24 -19.04,-3.24 l -2.19,14.83" /><path
         id="path66"
         style="fill:#bd5d6a;fill-opacity:1;fill-rule:nonzero;stroke:none"
         d="m 1718.17,1050.99 c 0,0 1.88,-0.13 5.18,-0.35 3.31,-0.08 8.03,-0.18 13.7,-0.31 5.67,-0.12 12.28,-0.26 19.36,-0.41 7.09,0.17 14.64,0.36 22.2,0.55 15.13,0.16 30.17,1.94 41.49,2.56 11.26,1.33 18.77,2.22 18.77,2.22 l 1.83,-14.89 c 0,0 -7.67,-0.91 -19.17,-2.27 -11.57,-0.64 -26.95,-2.44 -42.4,-2.61 -7.72,-0.19 -15.45,-0.38 -22.69,-0.56 -7.24,0.15 -13.99,0.29 -19.79,0.41 -5.79,0.14 -10.61,0.25 -13.99,0.32 -3.37,0.23 -5.3,0.37 -5.3,0.37 l 0.81,14.97" /><path
         id="path68"
         style="fill:#b34955;fill-opacity:1;fill-rule:nonzero;stroke:none"
         d="m 1987.54,1090.82 c 0,0 3.89,1.47 10.69,4.06 6.82,2.54 16.55,6.19 27.9,11.38 23.1,9.47 52.64,24.94 81.23,41.9 28.52,17.16 55.34,36.93 74.8,52.53 9.85,7.65 17.4,14.82 22.99,19.47 5.5,4.77 8.64,7.49 8.64,7.49 l 10.11,-11.09 c 0,0 -3.21,-2.78 -8.83,-7.65 -5.71,-4.76 -13.43,-12.07 -23.49,-19.9 -19.88,-15.94 -47.29,-36.14 -76.44,-53.68 -29.23,-17.34 -59.43,-33.14 -83.03,-42.83 -11.61,-5.3 -21.56,-9.04 -28.53,-11.63 -6.95,-2.64 -10.92,-4.15 -10.92,-4.15 l -5.12,14.1" /><path
         id="path70"
         style="fill:#6c2f34;fill-opacity:1;fill-rule:nonzero;stroke:none"
         d="m 1528.94,1088.34 c 0,0 6.69,-2.24 16.77,-5.47 5.04,-1.6 10.93,-3.47 17.23,-5.47 6.39,-1.71 13.2,-3.54 20.02,-5.36 13.55,-3.97 27.5,-6.32 37.8,-8.76 5.15,-1.21 9.52,-1.82 12.56,-2.35 3.05,-0.51 4.79,-0.8 4.79,-0.8 l -2.56,-14.78 c 0,0 -1.78,0.3 -4.89,0.82 -3.11,0.54 -7.58,1.17 -12.84,2.41 -10.53,2.47 -24.77,4.9 -38.63,8.94 -6.97,1.87 -13.93,3.73 -20.46,5.48 -6.44,2.05 -12.46,3.96 -17.61,5.59 -10.3,3.3 -17.14,5.6 -17.14,5.6 l 4.96,14.15" /><path
         id="path72"
         style="fill:#9b404a;fill-opacity:1;fill-rule:nonzero;stroke:none"
         d="m 1654.01,1057.47 c 0,0 2.97,-0.62 7.48,-1.09 4.5,-0.53 10.51,-1.24 16.52,-1.95 11.98,-1.66 24.07,-2.3 24.07,-2.3 l -1.16,-14.96 c 0,0 -12.35,0.67 -24.6,2.35 -6.14,0.73 -12.27,1.46 -16.88,2 -4.61,0.48 -7.64,1.11 -7.64,1.11 l 2.21,14.84" /><path
         id="path74"
         style="fill:#9b404a;fill-opacity:1;fill-rule:nonzero;stroke:none"
         d="m 1433.11,1130.58 c 0,0 4.75,-2.88 12.28,-6.42 7.5,-3.6 17.34,-8.72 27.45,-13.27 10.19,-4.37 20.38,-8.75 28.02,-12.03 7.79,-2.92 12.98,-4.86 12.98,-4.86 l -5.3,-14.04 c 0,0 -5.3,1.99 -13.26,4.98 -7.81,3.35 -18.23,7.82 -28.64,12.29 -10.33,4.65 -20.4,9.88 -28.06,13.56 -7.69,3.63 -12.55,6.57 -12.55,6.57 l 7.08,13.22" /><path
         id="path76"
         style="fill:#bd5d6a;fill-opacity:1;fill-rule:nonzero;stroke:none"
         d="m 2135.22,2296.75 c 0,0 -1.35,0.93 -3.71,2.56 -2.32,1.69 -5.78,3.87 -9.97,6.44 -8.46,5 -19.26,12.49 -30.88,18.57 -11.45,6.37 -22.88,12.78 -31.82,16.9 -8.82,4.33 -14.7,7.21 -14.7,7.21 l 6.36,13.59 c 0,0 6.01,-2.95 15.03,-7.38 9.13,-4.21 20.82,-10.75 32.52,-17.27 11.88,-6.22 22.93,-13.86 31.56,-18.98 4.29,-2.63 7.83,-4.86 10.2,-6.59 2.41,-1.66 3.79,-2.61 3.79,-2.61 l -8.38,-12.44" /><path
         id="path78"
         style="fill:#bd5d6a;fill-opacity:1;fill-rule:nonzero;stroke:none"
         d="m 2029.41,2355.01 c 0,0 -36.77,16.76 -75.54,28.05 -19.32,5.73 -38.81,10.95 -53.64,13.91 -7.39,1.57 -13.53,3 -17.87,3.8 -4.35,0.73 -6.83,1.14 -6.83,1.14 l 2.64,14.77 c 0,0 2.54,-0.43 6.99,-1.18 4.43,-0.81 10.7,-2.27 18.26,-3.88 15.15,-3.02 35.08,-8.35 54.82,-14.21 39.62,-11.55 77.21,-28.66 77.21,-28.66 l -6.04,-13.74" /><path
         id="path80"
         style="fill:#9b404a;fill-opacity:1;fill-rule:nonzero;stroke:none"
         d="m 1859.62,2404.57 c 0,0 -2.86,0.48 -7.86,1.32 -5.03,0.6 -12.23,1.45 -20.86,2.48 -8.61,1.2 -18.73,1.96 -29.57,2.65 -10.83,0.96 -22.42,1.32 -34.01,1.48 -11.59,0.48 -23.18,0.09 -34.04,-0.21 -10.87,-0.07 -20.98,-0.94 -29.65,-1.58 -17.37,-1 -28.84,-2.76 -28.84,-2.76 l -1.75,14.89 c 0,0 11.73,1.8 29.47,2.83 8.86,0.66 19.19,1.53 30.3,1.62 11.11,0.3 22.95,0.7 34.79,0.21 11.84,-0.16 23.68,-0.53 34.75,-1.51 11.08,-0.71 21.41,-1.49 30.22,-2.71 8.82,-1.05 16.17,-1.93 21.32,-2.55 5.11,-0.85 8.03,-1.33 8.03,-1.33 l -2.3,-14.83" /><path
         id="path82"
         style="fill:#bd5d6a;fill-opacity:1;fill-rule:nonzero;stroke:none"
         d="m 1388.65,2305.95 c 0,0 -10.39,-6.21 -20.15,-13.37 -4.95,-3.48 -9.9,-6.96 -13.61,-9.57 -3.72,-2.59 -6.14,-4.39 -6.14,-4.39 l -8.96,12.03 c 0,0 2.48,1.85 6.28,4.5 3.8,2.66 8.85,6.22 13.91,9.77 9.97,7.32 20.59,13.67 20.59,13.67 l 8.08,-12.64" /><path
         id="path84"
         style="fill:#b34955;fill-opacity:1;fill-rule:nonzero;stroke:none"
         d="m 1658.78,2406 c 0,0 -3.5,-0.39 -8.71,-1.34 -5.22,-0.89 -12.17,-2.08 -19.13,-3.26 -6.98,-1.05 -13.85,-2.7 -19.02,-3.82 -5.16,-1.14 -8.61,-1.9 -8.61,-1.9 l -3.32,14.62 c 0,0 3.52,0.78 8.8,1.94 5.29,1.15 12.3,2.83 19.44,3.91 7.11,1.21 14.22,2.42 19.55,3.33 5.32,0.98 8.9,1.37 8.9,1.37 l 2.1,-14.85" /><path
         id="path86"
         style="fill:#83373f;fill-opacity:1;fill-rule:nonzero;stroke:none"
         d="m 1336.04,2268.69 c 0,0 -6.45,-4.85 -15.8,-12.52 -8.96,-8.11 -21.73,-18.03 -33.11,-29.48 -5.81,-5.58 -11.62,-11.17 -17.07,-16.41 -5.19,-5.5 -10.03,-10.63 -14.17,-15.03 -8.42,-8.69 -13.58,-14.9 -13.58,-14.9 l -11.27,9.9 c 0,0 5.27,6.34 13.87,15.22 4.24,4.5 9.19,9.74 14.49,15.36 5.56,5.35 11.5,11.06 17.44,16.77 11.62,11.69 24.66,21.84 33.83,30.12 9.55,7.83 16.13,12.79 16.13,12.79 l 9.24,-11.82" /><path
         id="path88"
         style="fill:#bd5d6a;fill-opacity:1;fill-rule:nonzero;stroke:none"
         d="m 1451.78,2341.67 c 0,0 -3.16,-1.57 -7.9,-3.94 -4.79,-2.26 -11.01,-5.58 -17.12,-9.13 -6.15,-3.45 -12.3,-6.91 -16.91,-9.51 -4.66,-2.51 -7.56,-4.54 -7.56,-4.54 l -7.77,12.83 c 0,0 2.96,2.07 7.72,4.64 4.72,2.65 11.01,6.19 17.29,9.73 6.25,3.61 12.6,7.01 17.5,9.33 4.84,2.41 8.07,4.02 8.07,4.02 l 6.68,-13.43" /><path
         id="path90"
         style="fill:#83373f;fill-opacity:1;fill-rule:nonzero;stroke:none"
         d="m 1587.61,2392.02 c 0,0 -13.62,-3.71 -27.24,-7.41 -13.42,-4.35 -26.85,-8.69 -26.85,-8.69 l -4.86,14.19 c 0,0 13.72,4.44 27.44,8.88 13.92,3.78 27.84,7.57 27.84,7.57 l 3.67,-14.54" /><path
         id="path92"
         style="fill:#bd5d6a;fill-opacity:1;fill-rule:nonzero;stroke:none"
         d="m 1518.35,2370.46 c 0,0 -3.3,-1.25 -8.25,-3.14 -4.9,-1.98 -11.63,-4.15 -18.03,-7.14 -12.93,-5.66 -25.86,-11.32 -25.86,-11.32 l -6.35,13.59 c 0,0 13.21,5.79 26.42,11.57 6.55,3.05 13.43,5.28 18.44,7.3 5.06,1.93 8.43,3.21 8.43,3.21 l 5.2,-14.07" /><path
         id="path94"
         style="fill:#6c2f34;fill-opacity:1;fill-rule:nonzero;stroke:none"
         d="m 2157.16,2299.81 c 0,0 7.84,-5.19 20.77,-15.38 6.5,-5.04 14.57,-10.94 23.16,-18.53 8.71,-7.45 18.72,-15.64 28.79,-25.51 20.93,-18.92 43.17,-43.24 65.72,-70.28 22.29,-27.31 43.61,-58.41 62.55,-90.89 19.09,-32.41 34.82,-66.73 47.37,-99.65 6.61,-16.36 11.45,-32.72 16.52,-48.06 4.11,-15.62 8.74,-30.21 11.46,-44.06 3.15,-13.75 5.82,-26.39 7.53,-37.73 2.03,-11.28 3.58,-21.14 4.41,-29.33 0.99,-8.16 1.76,-14.58 2.29,-18.95 0.54,-4.37 0.6,-6.73 0.6,-6.73 l -14.93,-1.35 c 0,0 -0.07,2.3 -0.59,6.58 -0.52,4.28 -1.28,10.56 -2.25,18.55 -0.81,8.01 -2.33,17.66 -4.31,28.7 -1.67,11.09 -4.28,23.46 -7.37,36.91 -2.65,13.55 -7.2,27.82 -11.21,43.11 -4.97,15.01 -9.7,31.01 -16.17,47.01 -12.27,32.21 -27.66,65.79 -46.34,97.5 -18.53,31.77 -39.39,62.2 -61.2,88.93 -22.08,26.46 -43.84,50.28 -64.32,68.78 -9.86,9.67 -19.66,17.68 -28.18,24.96 -8.39,7.44 -16.3,13.2 -22.66,18.13 -12.64,9.98 -20.32,15.05 -20.32,15.05 l 8.68,12.24" /><path
         id="path96"
         style="fill:#83373f;fill-opacity:1;fill-rule:nonzero;stroke:none"
         d="m 2449.54,1778.28 c 0,0 0.33,-4.76 0.92,-13.07 0.19,-8.34 0.46,-20.24 0.78,-34.53 -0.15,-28.57 -2.3,-66.69 -8.03,-104.39 -5.36,-37.76 -15.08,-74.74 -23.5,-102.02 -4.31,-13.63 -7.94,-24.98 -11.06,-32.72 -2.93,-7.81 -4.6,-12.27 -4.6,-12.27 l -13.99,5.42 c 0,0 1.64,4.36 4.5,12 3.06,7.57 6.6,18.68 10.82,32.01 8.24,26.7 17.76,62.88 23,99.84 5.61,36.88 7.71,74.19 7.86,102.15 -0.32,13.98 -0.58,25.63 -0.77,33.79 -0.57,8.13 -0.9,12.79 -0.9,12.79 l 14.97,1" /><path
         id="path98"
         style="fill:#83373f;fill-opacity:1;fill-rule:nonzero;stroke:none"
         d="m 2397.93,1463.98 c 0,0 -1.88,-4.38 -5.19,-12.04 -3.13,-7.73 -8.2,-18.51 -14.62,-31.29 -12.63,-25.62 -31.4,-58.95 -53.66,-89.93 -22.1,-31.04 -46.44,-60.52 -66.6,-80.79 -9.6,-10.6 -18.6,-18.44 -24.5,-24.31 -6.02,-5.77 -9.46,-9.06 -9.46,-9.06 l -10.11,11.09 c 0,0 3.37,3.22 9.26,8.86 5.78,5.76 14.59,13.42 23.98,23.8 19.74,19.83 43.54,48.69 65.17,79.05 21.78,30.3 40.14,62.91 52.49,87.98 6.28,12.5 11.25,23.04 14.31,30.61 3.23,7.5 5.08,11.78 5.08,11.78 l 13.85,-5.75" /></g></g></svg>