<?xml version="1.0" encoding="UTF-8" standalone="no"?>
<svg
   xmlns:dc="http://purl.org/dc/elements/1.1/"
   xmlns:cc="http://creativecommons.org/ns#"
   xmlns:rdf="http://www.w3.org/1999/02/22-rdf-syntax-ns#"
   xmlns:svg="http://www.w3.org/2000/svg"
   xmlns="http://www.w3.org/2000/svg"
   viewBox="0 0 466.66666 466.66666"
   height="466.66666"
   width="466.66666"
   xml:space="preserve"
   id="svg2"
   version="1.1"><metadata
     id="metadata8"><rdf:RDF><cc:Work
         rdf:about=""><dc:format>image/svg+xml</dc:format><dc:type
           rdf:resource="http://purl.org/dc/dcmitype/StillImage" /></cc:Work></rdf:RDF></metadata><defs
     id="defs6" /><g
     transform="matrix(1.3333333,0,0,-1.3333333,0,466.66667)"
     id="g10"><g
       transform="scale(0.1)"
       id="g12"><path
         id="path14"
         style="fill:#cdbb4d;fill-opacity:1;fill-rule:nonzero;stroke:none"
         d="m 2192.73,1885.78 c 0,0 -2.68,7.34 -6.71,18.34 -1.74,5.61 -4.96,11.67 -8.1,18.28 -3.18,6.59 -6.57,13.63 -9.96,20.67 -3.09,7.2 -7.48,13.69 -11.23,19.98 -3.8,6.26 -7.35,12.11 -10.39,17.11 -3.01,5.04 -5.54,9.21 -7.73,11.85 -2.05,2.74 -3.22,4.3 -3.22,4.3 l -12.24,-8.67 c 0,0 1.13,-1.51 3.12,-4.15 2.13,-2.55 4.57,-6.6 7.47,-11.47 2.94,-4.84 6.37,-10.5 10.05,-16.55 3.62,-6.08 7.89,-12.36 10.86,-19.33 3.28,-6.8 6.56,-13.61 9.63,-19.99 3.05,-6.4 6.17,-12.24 7.85,-17.68 3.88,-10.64 6.48,-17.74 6.48,-17.74 l 14.12,5.05" /><path
         id="path16"
         style="fill:#ab9a34;fill-opacity:1;fill-rule:nonzero;stroke:none"
         d="m 1403.53,1442.46 c 0,0 2.07,-3.13 6.6,-7.86 4.4,-4.84 10.69,-11.75 18.23,-20.04 7.14,-8.7 17.38,-16.93 27.61,-26.49 5.32,-4.55 10.23,-9.96 16.28,-14.17 5.89,-4.41 11.88,-8.88 17.86,-13.36 11.63,-9.45 24.64,-16.87 36.61,-24.14 6.05,-3.52 11.64,-7.4 17.4,-10.25 5.78,-2.78 11.25,-5.41 16.3,-7.84 10.16,-4.72 18.38,-9.25 24.53,-11.45 6.14,-2.24 9.65,-3.53 9.65,-3.53 l 5.43,13.99 c 0,0 -3.4,1.23 -9.34,3.4 -5.96,2.12 -13.89,6.52 -23.72,11.08 -4.88,2.35 -10.18,4.89 -15.78,7.58 -5.56,2.74 -10.96,6.51 -16.81,9.92 -11.59,7.04 -24.18,14.19 -35.42,23.36 -5.79,4.32 -11.58,8.65 -17.29,12.91 -5.86,4.06 -10.59,9.32 -15.74,13.71 -9.89,9.26 -19.83,17.2 -26.72,25.63 -7.3,8.02 -13.38,14.71 -17.63,19.39 -4.4,4.57 -6.4,7.6 -6.4,7.6 l -11.65,-9.44" /><path
         id="path18"
         style="fill:#766a27;fill-opacity:1;fill-rule:nonzero;stroke:none"
         d="m 1604.81,1299.6 c 0,0 3.51,-1.28 9.65,-3.53 3.09,-1.05 6.74,-2.66 11.12,-3.9 4.41,-1.13 9.38,-2.4 14.81,-3.8 21.51,-6.37 51.03,-11.55 80.76,-14.42 14.93,-0.54 29.86,-1.97 43.86,-1.77 13.99,0.71 27.05,1.37 38.25,1.93 11.17,0.84 20.34,2.88 26.82,3.67 6.46,0.99 10.16,1.55 10.16,1.55 l -2.59,14.77 c 0,0 -3.57,-0.54 -9.83,-1.49 -6.27,-0.76 -15.13,-2.75 -25.94,-3.56 -10.83,-0.55 -23.48,-1.18 -37.02,-1.87 -13.54,-0.2 -27.99,1.21 -42.44,1.71 -28.76,2.79 -57.31,7.78 -78.11,13.96 -5.25,1.34 -10.06,2.57 -14.33,3.66 -4.24,1.2 -7.76,2.76 -10.75,3.78 -5.94,2.18 -9.33,3.42 -9.33,3.42 l -5.09,-14.11" /><path
         id="path20"
         style="fill:#5e5421;fill-opacity:1;fill-rule:nonzero;stroke:none"
         d="m 1850.98,1280.96 c 0,0 0.94,0.09 2.65,0.46 1.69,0.44 4.18,1.08 7.34,1.9 6.34,1.62 15.38,3.95 26.24,6.74 11.03,2.22 23.02,7.63 36.25,12.2 6.5,2.59 13.56,4.45 20.11,7.84 6.62,3.19 13.36,6.44 20.09,9.68 6.63,3.43 13.68,6.07 19.87,10.08 6.28,3.82 12.47,7.58 18.46,11.22 5.93,3.71 11.89,6.97 17.14,10.66 5.15,3.84 10.01,7.48 14.49,10.84 8.89,6.82 16.67,12.06 21.51,16.46 4.83,4.4 7.6,6.91 7.6,6.91 l -9.89,11.29 c 0,0 -2.67,-2.44 -7.34,-6.7 -4.68,-4.26 -12.22,-9.31 -20.81,-15.91 -4.34,-3.26 -9.04,-6.78 -14.01,-10.51 -5.08,-3.57 -10.86,-6.7 -16.6,-10.29 -5.79,-3.53 -11.77,-7.17 -17.85,-10.87 -5.97,-3.89 -12.81,-6.42 -19.22,-9.73 -6.51,-3.14 -13.02,-6.28 -19.43,-9.38 -6.32,-3.29 -13.16,-5.06 -19.44,-7.57 -12.8,-4.41 -24.39,-9.69 -35.07,-11.8 -10.49,-2.7 -19.24,-4.95 -25.36,-6.52 -3.06,-0.8 -5.47,-1.42 -7.11,-1.85 -1.65,-0.36 -2.56,-0.44 -2.56,-0.44 l 2.94,-14.71" /><path
         id="path22"
         style="fill:#91832c;fill-opacity:1;fill-rule:nonzero;stroke:none"
         d="m 2070.77,1393.26 c 0,0 2.77,2.52 7.61,6.91 2.34,2.27 5.52,4.71 8.57,8.09 3.06,3.37 6.51,7.18 10.28,11.32 15.55,16.15 34.15,39.71 50.25,64.85 16.38,25.06 29.11,52.19 38.02,72.73 7.7,21.04 12.84,35.08 12.84,35.08 l -14.3,4.53 c 0,0 -4.97,-13.56 -12.42,-33.92 -8.63,-19.85 -20.92,-46.1 -36.78,-70.34 -15.57,-24.32 -33.56,-47.12 -48.61,-62.73 -3.65,-4.02 -6.99,-7.7 -9.94,-10.97 -2.95,-3.28 -6.03,-5.62 -8.3,-7.82 -4.69,-4.25 -7.36,-6.68 -7.36,-6.68 l 10.14,-11.05" /><path
         id="path24"
         style="fill:#cdbb4d;fill-opacity:1;fill-rule:nonzero;stroke:none"
         d="m 2066.75,2073.1 c 0,0 -7.04,6.4 -14.08,12.8 -7.62,5.69 -15.24,11.38 -15.24,11.38 l -9.06,-11.95 c 0,0 7.38,-5.5 14.76,-11.01 6.8,-6.19 13.6,-12.39 13.6,-12.39 l 10.02,11.17" /><path
         id="path26"
         style="fill:#cdbb4d;fill-opacity:1;fill-rule:nonzero;stroke:none"
         d="m 2206.71,1838.97 c 0,0 -9.15,36.94 -10.24,36.6 l -14.24,-4.71 c 1.07,0.34 9.89,-35.39 9.89,-35.39 l 14.59,3.5" /><path
         id="path28"
         style="fill:#91832c;fill-opacity:1;fill-rule:nonzero;stroke:none"
         d="m 2028.73,2103.79 c 0,0 -3.33,2.49 -9.16,6.86 -5.93,4.22 -15.04,9.29 -25.64,15.87 -5.4,3.12 -10.96,7.04 -17.37,10.2 -6.44,3.1 -13.24,6.37 -20.27,9.75 -7.11,3.18 -14.08,7.37 -21.86,9.98 -7.7,2.81 -15.51,5.67 -23.32,8.53 -31.34,11.19 -64.09,18.01 -88.84,21.14 -6.18,0.85 -11.8,2.02 -16.85,2.37 -5.07,0.25 -9.49,0.47 -13.12,0.65 -7.28,0.37 -11.43,0.58 -11.43,0.58 l -0.66,-14.99 c 0,0 4.02,-0.2 11.06,-0.55 3.52,-0.17 7.79,-0.38 12.7,-0.62 4.89,-0.33 10.33,-1.49 16.3,-2.31 23.94,-3.02 55.61,-9.61 85.92,-20.44 7.55,-2.76 15.11,-5.53 22.55,-8.25 7.53,-2.5 14.26,-6.59 21.15,-9.65 6.8,-3.27 13.37,-6.43 19.6,-9.42 6.21,-3.05 11.58,-6.86 16.8,-9.87 10.25,-6.38 19.08,-11.26 24.81,-15.35 5.63,-4.23 8.85,-6.64 8.85,-6.64 l 8.78,12.16" /><path
         id="path30"
         style="fill:#cdbb4d;fill-opacity:1;fill-rule:nonzero;stroke:none"
         d="m 1770.01,2190.27 c 0,0 -4.07,0.18 -10.18,0.45 -6.11,-0.31 -14.25,-0.72 -22.39,-1.14 -8.15,-0.41 -16.29,-0.82 -22.4,-1.12 -6.07,-0.62 -10.08,-1.39 -10.08,-1.39 l 1.79,-14.89 c 0,0 3.88,0.75 9.76,1.35 5.91,0.29 13.79,0.68 21.67,1.07 7.88,0.41 15.76,0.82 21.67,1.12 5.91,-0.27 9.85,-0.45 9.85,-0.45 l 0.31,15" /><path
         id="path32"
         style="fill:#cdbb4d;fill-opacity:1;fill-rule:nonzero;stroke:none"
         d="m 2101.34,2038.6 c 0,0 -6.39,7.04 -12.79,14.08 -3.05,3.66 -6.75,6.68 -9.36,9.11 -2.64,2.4 -4.4,4 -4.4,4 l -10.27,-10.93 c 0,0 1.7,-1.54 4.26,-3.86 2.52,-2.35 6.11,-5.27 9.06,-8.82 6.18,-6.81 12.36,-13.63 12.36,-13.63 l 11.14,10.05" /><path
         id="path34"
         style="fill:#91832c;fill-opacity:1;fill-rule:nonzero;stroke:none"
         d="m 2128.88,2005.01 c 0,0 -4.88,6.53 -9.76,13.06 -2.4,3.3 -4.87,6.55 -7.04,8.72 -2.05,2.26 -3.42,3.77 -3.42,3.77 l -11.38,-9.79 c 0,0 1.33,-1.45 3.33,-3.64 2.1,-2.09 4.48,-5.23 6.8,-8.43 4.71,-6.32 9.43,-12.64 9.43,-12.64 l 12.04,8.95" /><path
         id="path36"
         style="fill:#91832c;fill-opacity:1;fill-rule:nonzero;stroke:none"
         d="m 2214.79,1796.31 c 0,0 -1.23,8.06 -2.46,16.11 -0.61,4.04 -1.23,8.06 -1.69,11.09 -0.73,2.96 -1.22,4.94 -1.22,4.94 l -14.67,-3.16 c 0,0 0.48,-1.91 1.2,-4.78 0.44,-2.92 1.02,-6.82 1.61,-10.72 1.19,-7.79 2.38,-15.59 2.38,-15.59 l 14.85,2.11" /><path
         id="path38"
         style="fill:#5e5421;fill-opacity:1;fill-rule:nonzero;stroke:none"
         d="m 1569.6,2148.82 c 0,0 -4.51,-2.17 -12.41,-5.98 -3.95,-1.9 -8.75,-4.2 -14.25,-6.85 -5.36,-2.91 -11.14,-6.68 -17.59,-10.52 -6.43,-3.9 -13.39,-8.13 -20.75,-12.6 -7.01,-4.98 -14.19,-10.55 -21.75,-16.14 -15.6,-10.57 -29.65,-25 -44.67,-38.25 -27.91,-28.69 -53.3,-60.04 -68.26,-86.16 -7.77,-12.86 -14.59,-23.39 -17.96,-31.53 -3.8,-7.9 -5.97,-12.41 -5.97,-12.41 l 13.54,-6.45 c 0,0 2.1,4.37 5.78,12.01 3.23,7.88 9.85,18.05 17.37,30.5 14.45,25.28 39.04,55.57 66.03,83.36 14.55,12.79 28.11,26.79 43.23,37 7.31,5.4 14.25,10.8 21.03,15.62 7.12,4.32 13.86,8.4 20.07,12.17 6.25,3.72 11.83,7.38 17.02,10.19 5.32,2.56 9.96,4.79 13.79,6.62 7.63,3.68 12,5.79 12,5.79 l -6.25,13.63" /><path
         id="path40"
         style="fill:#766a27;fill-opacity:1;fill-rule:nonzero;stroke:none"
         d="m 1305.82,1669.09 c 0,0 1.38,-9.07 3.46,-22.67 0.7,-6.87 2.97,-14.58 5.09,-22.91 2.14,-8.33 4.42,-17.21 6.7,-26.09 5.9,-17.33 12.22,-34.59 17.32,-47.34 5.97,-12.39 9.96,-20.65 9.96,-20.65 l 13.46,6.61 c 0,0 -3.85,7.99 -9.64,19.97 -4.92,12.33 -11.02,29.02 -16.75,45.78 -2.2,8.59 -4.4,17.18 -6.47,25.23 -2.05,8.06 -4.27,15.51 -4.93,22.16 -2,13.15 -3.33,21.92 -3.33,21.92 l -14.87,-2.01" /><path
         id="path42"
         style="fill:#2e2717;fill-opacity:1;fill-rule:nonzero;stroke:none"
         d="m 1316.34,1846.87 c 0,0 -0.65,-2.55 -1.8,-7.01 -1.03,-4.49 -3.05,-10.78 -4.5,-18.54 -1.19,-7.8 -2.57,-16.91 -4.06,-26.67 -0.75,-4.88 -1.52,-9.92 -2.3,-15.04 -0.52,-5.15 -0.6,-10.43 -0.92,-15.68 -0.53,-10.52 -1.07,-21.04 -1.57,-30.9 0.17,-9.86 0.88,-19.07 1.2,-26.95 0.4,-7.89 0.73,-14.47 0.96,-19.07 0.04,-2.31 0.34,-4.09 0.54,-5.31 0.19,-1.22 0.29,-1.87 0.29,-1.87 l 14.9,1.66 c 0,0 -0.09,0.63 -0.28,1.81 -0.2,1.18 -0.49,2.91 -0.52,5.14 -0.22,4.46 -0.53,10.82 -0.91,18.45 -0.31,7.64 -1.01,16.54 -1.18,26.09 0.49,9.54 1.01,19.72 1.53,29.89 0.31,5.09 0.37,10.2 0.87,15.18 0.77,4.96 1.52,9.83 2.25,14.55 1.43,9.44 2.77,18.25 3.92,25.8 1.39,7.5 3.36,13.58 4.36,17.92 1.11,4.32 1.74,6.78 1.74,6.78 l -14.52,3.77" /><path
         id="path44"
         style="fill:#5e5421;fill-opacity:1;fill-rule:nonzero;stroke:none"
         d="m 1694.21,2185.43 c 0,0 -7.38,-1.13 -18.47,-2.82 -2.76,-0.47 -5.79,-0.76 -8.92,-1.47 -3.11,-0.8 -6.39,-1.65 -9.78,-2.52 -6.78,-1.75 -14.02,-3.61 -21.25,-5.47 -3.62,-0.92 -7.24,-1.85 -10.8,-2.77 -3.52,-1.05 -6.87,-2.45 -10.18,-3.61 -6.57,-2.4 -12.71,-4.65 -17.97,-6.58 -5.27,-1.92 -9.65,-3.53 -12.72,-4.65 -3.11,-1.03 -4.73,-1.99 -4.73,-1.99 l 5.92,-13.79 c 0,0 1.56,0.95 4.57,1.93 2.97,1.09 7.22,2.63 12.31,4.49 5.09,1.86 11.02,4.04 17.38,6.37 3.2,1.12 6.43,2.48 9.84,3.5 3.44,0.88 6.94,1.77 10.44,2.67 7,1.8 14,3.59 20.56,5.28 3.28,0.85 6.45,1.67 9.46,2.45 3.02,0.69 5.96,0.96 8.63,1.42 10.72,1.62 17.86,2.71 17.86,2.71 l -2.15,14.85" /><path
         id="path46"
         style="fill:#1c1913;fill-opacity:1;fill-rule:nonzero;stroke:none"
         d="m 1338.91,1913.7 c 0,0 -1.8,-3.29 -3.56,-8.62 -1.93,-5.27 -4.5,-12.28 -7.06,-19.3 -2.5,-7.04 -5.29,-13.99 -6.92,-19.34 -1.39,-5.43 -2.32,-9.05 -2.32,-9.05 l 14.42,-4.11 c 0,0 0.9,3.5 2.24,8.75 1.57,5.18 4.29,11.9 6.7,18.7 2.48,6.79 4.96,13.58 6.82,18.67 1.7,5.16 3.44,8.34 3.44,8.34 l -13.76,5.96" /><path
         id="path48"
         style="fill:#cdbb4d;fill-opacity:1;fill-rule:nonzero;stroke:none"
         d="m 1353.06,1519.64 c 0,0 0.55,-1.15 1.52,-3.16 0.92,-2.03 2.31,-4.89 4.41,-8.1 3.96,-6.53 9.26,-15.24 14.55,-23.95 4.95,-8.93 11.26,-16.95 15.85,-23.06 4.58,-6.12 7.63,-10.2 7.63,-10.2 l 11.88,9.16 c 0,0 -2.96,3.95 -7.38,9.87 -4.45,5.91 -10.57,13.66 -15.35,22.31 -5.12,8.43 -10.24,16.85 -14.08,23.16 -2.03,3.1 -3.37,5.87 -4.26,7.84 -0.93,1.94 -1.47,3.05 -1.47,3.05 l -13.3,-6.92" /><path
         id="path50"
         style="fill:#c5b13a;fill-opacity:1;fill-rule:nonzero;stroke:none"
         d="m 2201.3,1602.69 c 0,0 2.02,7.89 5.07,19.73 1.34,5.96 3.7,12.75 4.81,20.31 1.15,7.55 2.38,15.61 3.61,23.67 3.14,16.05 3.46,32.38 4.08,44.6 0.63,12.21 1.04,20.35 1.04,20.35 h -15 c 0,0 -0.41,-7.88 -1.02,-19.69 -0.61,-11.82 -0.89,-27.64 -3.95,-43.15 -1.19,-7.8 -2.37,-15.59 -3.48,-22.9 -1.06,-7.32 -3.37,-13.88 -4.67,-19.64 -2.94,-11.45 -4.9,-19.09 -4.9,-19.09 l 14.41,-4.19" /><path
         id="path52"
         style="fill:#cdbb4d;fill-opacity:1;fill-rule:nonzero;stroke:none"
         d="m 1604.99,1283.56 c 0,0 2.72,-0.99 7.48,-2.73 4.68,-1.98 11.66,-3.86 20.1,-5.93 8.41,-2.16 18.22,-4.68 28.73,-7.38 10.58,-2.37 22.13,-3.6 33.54,-5.51 5.72,-0.86 11.44,-1.74 17.07,-2.59 5.69,-0.3 11.29,-0.59 16.71,-0.87 10.83,-0.54 20.94,-1.05 29.61,-1.48 8.67,-0.03 15.9,0.66 20.95,0.82 5.06,0.25 7.95,0.4 7.95,0.4 l 0.83,-14.98 c 0,0 -2.98,-0.15 -8.19,-0.41 -5.22,-0.16 -12.67,-0.86 -21.61,-0.83 -8.94,0.44 -19.37,0.96 -30.54,1.52 -5.59,0.29 -11.36,0.59 -17.23,0.9 -5.81,0.88 -11.71,1.77 -17.62,2.67 -11.77,1.95 -23.68,3.25 -34.59,5.68 -10.85,2.79 -20.97,5.39 -29.65,7.61 -8.71,2.15 -15.91,4.1 -20.74,6.13 -4.91,1.79 -7.72,2.81 -7.72,2.81 l 4.92,14.17" /><path
         id="path54"
         style="fill:#ab9a34;fill-opacity:1;fill-rule:nonzero;stroke:none"
         d="m 1290.96,1667.07 c 0,0 0.84,-5.55 2.11,-13.87 1.22,-8.33 2.74,-19.47 5.96,-30.25 2.8,-10.87 5.59,-21.74 7.69,-29.9 0.91,-4.12 2.5,-7.29 3.23,-9.63 0.84,-2.31 1.32,-3.63 1.32,-3.63 l -14.21,-4.79 c 0,0 -0.5,1.36 -1.37,3.74 -0.74,2.41 -2.37,5.7 -3.32,9.94 -2.16,8.42 -5.05,19.63 -7.94,30.85 -3.31,11.13 -4.9,22.61 -6.15,31.21 -1.31,8.59 -2.19,14.31 -2.19,14.31 l 14.87,2.02" /><path
         id="path56"
         style="fill:#cdbb4d;fill-opacity:1;fill-rule:nonzero;stroke:none"
         d="m 1315.13,1569.25 c 0,0 1.81,-4.94 4.52,-12.36 1.46,-3.66 2.71,-8.12 4.88,-12.55 2.13,-4.45 4.42,-9.19 6.7,-13.93 4.6,-9.47 9.05,-19.01 12.65,-26.03 4.09,-6.74 6.82,-11.24 6.82,-11.24 l -12.96,-7.55 c 0,0 -2.81,4.64 -7.03,11.61 -3.71,7.23 -8.32,17.07 -13.06,26.84 -2.35,4.89 -4.7,9.79 -6.91,14.38 -2.22,4.57 -3.53,9.17 -5.04,12.95 -2.8,7.65 -4.67,12.75 -4.67,12.75 l 14.1,5.13" /><path
         id="path58"
         style="fill:#766a27;fill-opacity:1;fill-rule:nonzero;stroke:none"
         d="m 1356.53,1483.55 c -1.43,-0.91 44.41,-64.83 46.35,-63.26 l -11.32,-9.85 c -1.98,-1.61 -49.29,64.31 -47.81,65.25 l 12.78,7.86" /><path
         id="path60"
         style="fill:#ab9a34;fill-opacity:1;fill-rule:nonzero;stroke:none"
         d="m 1798.34,1258.85 c 0,0 1.75,0.1 4.81,0.25 3.08,0.05 7.44,0.38 12.63,1.33 10.4,1.59 24.27,3.71 38.14,5.82 13.68,3.06 27.21,6.86 37.42,9.39 10.28,2.34 16.78,5.03 16.78,5.03 l 4.67,-14.25 c 0,0 -6.72,-2.77 -17.32,-5.2 -10.53,-2.62 -24.49,-6.53 -38.61,-9.67 -14.31,-2.19 -28.62,-4.38 -39.35,-6.02 -5.35,-0.97 -9.86,-1.31 -13.03,-1.37 -3.16,-0.16 -4.96,-0.26 -4.96,-0.26 l -1.18,14.95" /><path
         id="path62"
         style="fill:#ab9a34;fill-opacity:1;fill-rule:nonzero;stroke:none"
         d="m 1410.43,1411.99 c 0,0 2.35,-2.6 6.48,-7.14 2.07,-2.27 4.58,-5.03 7.45,-8.19 3.03,-3.01 6.69,-6.16 10.55,-9.73 7.89,-6.95 16.65,-15.6 26.84,-23.9 10.53,-7.87 21.77,-16.27 33,-24.67 11.98,-7.31 23.96,-14.61 35.19,-21.46 11.37,-6.59 22.77,-11.29 32.15,-16.05 4.74,-2.28 9.09,-4.37 12.94,-6.22 3.95,-1.63 7.49,-2.8 10.36,-3.89 5.77,-2.11 9.06,-3.32 9.06,-3.32 l -5.26,-14.05 c 0,0 -3.4,1.25 -9.34,3.43 -2.96,1.13 -6.62,2.34 -10.69,4.03 -3.98,1.9 -8.46,4.06 -13.36,6.41 -9.68,4.89 -21.43,9.77 -33.16,16.56 -11.59,7.07 -23.94,14.6 -36.3,22.14 -11.59,8.66 -23.18,17.33 -34.05,25.45 -10.51,8.55 -19.56,17.46 -27.68,24.65 -3.98,3.68 -7.76,6.93 -10.88,10.04 -2.97,3.26 -5.56,6.1 -7.69,8.44 -4.26,4.68 -6.69,7.35 -6.69,7.35 l 11.08,10.12" /><path
         id="path64"
         style="fill:#c5b13a;fill-opacity:1;fill-rule:nonzero;stroke:none"
         d="m 2154.29,1466.76 c 0,0 10.92,17.99 21.85,35.97 5.06,9.22 9.28,18.89 12.81,25.94 3.43,7.11 5.71,11.85 5.71,11.85 l 13.73,-6.04 c 0,0 -2.35,-4.9 -5.88,-12.23 -3.64,-7.28 -8.01,-17.25 -13.23,-26.75 -11.28,-18.56 -22.55,-37.11 -22.55,-37.11 l -12.44,8.37" /><path
         id="path66"
         style="fill:#cdbb4d;fill-opacity:1;fill-rule:nonzero;stroke:none"
         d="m 2093.37,1393.54 c 0,0 0.97,0.89 2.67,2.44 1.54,1.71 3.76,4.14 6.41,7.05 5.31,5.84 12.39,13.63 19.46,21.42 3.68,3.78 6.88,7.95 9.77,11.95 2.95,3.95 5.71,7.64 8.08,10.8 4.72,6.32 7.87,10.53 7.87,10.53 l 12.24,-8.67 c 0,0 -3.24,-4.35 -8.12,-10.87 -2.44,-3.25 -5.28,-7.05 -8.33,-11.13 -2.99,-4.12 -6.29,-8.42 -10.08,-12.33 -7.3,-8.03 -14.59,-16.06 -20.07,-22.09 -2.74,-3 -5.03,-5.51 -6.63,-7.26 -1.74,-1.61 -2.74,-2.52 -2.74,-2.52 l -10.53,10.68" /><path
         id="path68"
         style="fill:#c5b13a;fill-opacity:1;fill-rule:nonzero;stroke:none"
         d="m 2199.13,1550.8 c 0,0 3.98,10.87 9.96,27.18 1.45,4.09 3.19,8.47 4.72,13.19 1.24,4.82 2.55,9.9 3.9,15.15 2.55,10.55 5.94,21.65 8.11,33.01 3.39,22.89 7.7,45.7 7.64,63.13 0.87,17.34 1.45,28.89 1.45,28.89 h 15 c 0,0 -0.59,-11.92 -1.48,-29.79 0.03,-17.97 -4.36,-41.51 -7.89,-65.12 -2.24,-11.72 -5.71,-23.19 -8.35,-34.07 -1.41,-5.42 -2.76,-10.66 -4.05,-15.63 -1.58,-4.87 -3.36,-9.39 -4.86,-13.61 -6.17,-16.83 -10.28,-28.04 -10.28,-28.04 l -13.87,5.71" /><path
         id="path70"
         style="fill:#766a27;fill-opacity:1;fill-rule:nonzero;stroke:none"
         d="m 1985.47,1313.65 c 0,0 1.14,0.48 2.95,1.64 1.83,1.11 4.46,2.71 7.61,4.62 6.29,3.82 14.68,8.92 23.08,14.02 8.64,4.73 16,11.37 22.05,15.55 5.89,4.41 9.83,7.35 9.83,7.35 l 9.2,-11.84 c 0,0 -4.06,-3.04 -10.14,-7.59 -6.24,-4.32 -13.85,-11.13 -22.75,-16.03 -8.66,-5.27 -17.32,-10.53 -23.81,-14.47 -3.25,-1.97 -5.96,-3.61 -7.86,-4.76 -1.87,-1.2 -3.04,-1.69 -3.04,-1.69 l -7.12,13.2" /><path
         id="path72"
         style="fill:#ab9a34;fill-opacity:1;fill-rule:nonzero;stroke:none"
         d="m 2059.97,1363.56 c 0,0 1.8,1.13 4.07,3.33 2.34,2.12 5.45,4.95 8.57,7.78 6.23,5.66 12.46,11.32 12.46,11.32 l 10.27,-10.93 c 0,0 -6.42,-5.84 -12.85,-11.68 -3.22,-2.91 -6.43,-5.83 -8.84,-8.01 -2.35,-2.27 -4.2,-3.44 -4.2,-3.44 l -9.48,11.63" /><path
         id="path74"
         style="fill:#ab9a34;fill-opacity:1;fill-rule:nonzero;stroke:none"
         d="m 1918.66,1284.53 c 0,0 3.63,1.32 9.06,3.31 5.39,2.1 12.78,4.41 19.83,7.54 13.9,6.7 27.81,13.39 27.81,13.39 l 6.81,-13.36 c 0,0 -14.35,-6.91 -28.7,-13.81 -7.27,-3.23 -14.89,-5.63 -20.45,-7.79 -5.61,-2.06 -9.35,-3.42 -9.35,-3.42 l -5.01,14.14" /><path
         id="path76"
         style="fill:#cdbb4d;fill-opacity:1;fill-rule:nonzero;stroke:none"
         d="m 1648.03,2191.79 c 0,0 -4.42,-1.14 -11.05,-2.84 -3.31,-0.86 -7.17,-1.85 -11.31,-2.92 -2.07,-0.54 -4.21,-1.09 -6.38,-1.66 -2.11,-0.77 -4.25,-1.55 -6.39,-2.33 -17.13,-6.27 -34.26,-12.54 -34.26,-12.54 l -5.76,13.85 c 0,0 17.68,6.47 35.35,12.94 2.21,0.81 4.42,1.61 6.6,2.4 2.24,0.59 4.45,1.17 6.58,1.73 4.27,1.1 8.26,2.13 11.67,3.01 6.84,1.76 11.4,2.93 11.4,2.93 l 3.55,-14.57" /><path
         id="path78"
         style="fill:#cdbb4d;fill-opacity:1;fill-rule:nonzero;stroke:none"
         d="m 1568.41,2164.9 c 0,0 -6.32,-3.05 -15.8,-7.61 -4.74,-2.29 -10.27,-4.95 -16.19,-7.81 -5.83,-3.03 -11.68,-6.95 -17.72,-10.5 -11.92,-7.4 -24.26,-14.17 -32.38,-20.92 -8.42,-6.3 -14.04,-10.51 -14.04,-10.51 l -9.13,11.91 c 0,0 5.79,4.33 14.49,10.82 8.38,6.96 21.09,13.97 33.39,21.59 6.24,3.67 12.28,7.69 18.29,10.82 6.11,2.96 11.81,5.71 16.7,8.07 9.79,4.71 16.31,7.85 16.31,7.85 l 6.08,-13.71" /><path
         id="path80"
         style="fill:#ab9a34;fill-opacity:1;fill-rule:nonzero;stroke:none"
         d="m 1463.29,2100.83 c 0,0 -1.61,-1.21 -4.44,-3.32 -2.61,-2.37 -6.35,-5.76 -10.83,-9.82 -4.48,-4.07 -9.7,-8.82 -15.29,-13.91 -2.76,-2.58 -5.78,-5.08 -8.54,-7.93 -2.67,-2.93 -5.39,-5.92 -8.1,-8.9 -10.7,-12.07 -22.2,-23.47 -28.94,-33.57 -7.25,-9.69 -12.08,-16.15 -12.08,-16.15 l -12.19,8.73 c 0,0 4.98,6.67 12.46,16.66 6.98,10.41 18.8,22.2 29.85,34.63 2.8,3.08 5.6,6.15 8.36,9.18 2.86,2.93 5.96,5.52 8.8,8.19 5.77,5.25 11.16,10.14 15.78,14.34 4.62,4.19 8.48,7.68 11.18,10.12 2.91,2.18 4.57,3.43 4.57,3.43 l 9.41,-11.68" /><path
         id="path82"
         style="fill:#cdbb4d;fill-opacity:1;fill-rule:nonzero;stroke:none"
         d="m 1293.5,1812.29 c 0,0 -1.27,-8.33 -2.54,-16.65 -0.64,-4.16 -1.27,-8.32 -1.74,-11.44 -0.5,-3.12 -0.71,-5.21 -0.71,-5.21 l -14.92,1.49 c 0,0 0.21,2.15 0.72,5.37 0.49,3.22 1.13,7.51 1.78,11.81 1.31,8.58 2.63,17.17 2.63,17.17 l 14.78,-2.54" /><path
         id="path84"
         style="fill:#c5b13a;fill-opacity:1;fill-rule:nonzero;stroke:none"
         d="m 1368.35,1998.23 c 0,0 -1.51,-1.93 -3.35,-5.13 -1.91,-3.15 -4.46,-7.34 -7.02,-11.54 -5.09,-8.39 -10.19,-16.79 -10.19,-16.79 l -13.05,7.4 c 0,0 5.26,8.66 10.51,17.32 2.64,4.33 5.27,8.65 7.25,11.9 1.9,3.29 3.46,5.29 3.46,5.29 l 12.39,-8.45" /><path
         id="path86"
         style="fill:#91832c;fill-opacity:1;fill-rule:nonzero;stroke:none"
         d="m 1287.94,1767.78 c 0,0 -0.28,-5.6 -0.71,-14.01 -0.21,-4.2 -0.46,-9.11 -0.72,-14.36 -0.13,-2.63 -0.26,-5.34 -0.4,-8.1 0.14,-2.76 0.28,-5.56 0.42,-8.36 0.56,-11.21 1.13,-22.42 1.55,-30.82 0.26,-4.2 0.31,-7.72 0.61,-10.15 0.37,-2.43 0.58,-3.82 0.58,-3.82 l -14.91,-1.66 c 0,0 -0.21,1.43 -0.59,3.94 -0.31,2.51 -0.37,6.13 -0.64,10.46 -0.43,8.67 -1.02,20.23 -1.6,31.79 -0.14,2.89 -0.28,5.77 -0.42,8.62 0.14,2.84 0.27,5.64 0.4,8.35 0.27,5.42 0.52,10.48 0.74,14.81 0.44,8.67 0.73,14.45 0.73,14.45 l 14.96,-1.14" /><path
         id="path88"
         style="fill:#cdbb4d;fill-opacity:1;fill-rule:nonzero;stroke:none"
         d="m 1304.62,1861.5 c 0,0 -2.44,-9.51 -4.89,-19.02 -1.22,-4.76 -2.44,-9.52 -3.36,-13.08 -0.51,-1.78 -0.8,-3.28 -0.92,-4.35 -0.16,-1.06 -0.25,-1.67 -0.25,-1.67 l -14.72,2.89 c 0,0 0.1,0.63 0.27,1.73 0.12,1.1 0.42,2.65 0.94,4.48 0.94,3.68 2.2,8.59 3.45,13.5 2.53,9.82 5.06,19.64 5.06,19.64 l 14.42,-4.12" /><path
         id="path90"
         style="fill:#91832c;fill-opacity:1;fill-rule:nonzero;stroke:none"
         d="m 1342.19,1955.05 -17.05,-35.39 -13.76,5.96 17.59,36.52 13.22,-7.09" /><path
         id="path92"
         style="fill:#cdbb4d;fill-opacity:1;fill-rule:nonzero;stroke:none"
         d="m 1320.92,1909.27 -13.5,-36.9 -14.32,4.46 13.92,38.07 13.9,-5.63" /><path
         id="path94"
         style="fill:#766a27;fill-opacity:1;fill-rule:nonzero;stroke:none"
         d="m 1655.7,2209.23 c 0,0 6.35,1.9 17.82,3.38 5.72,0.87 12.65,1.93 20.61,3.15 7.96,1.17 16.91,2.88 26.83,3.02 39.46,3.67 92.6,1.22 144.36,-9.55 52.01,-10.48 100.56,-32.77 135.23,-51.64 8.47,-5.14 16.23,-9.85 23.11,-14.03 3.43,-2.09 6.65,-4.05 9.62,-5.87 2.9,-1.92 5.39,-3.94 7.73,-5.63 9.25,-6.92 14.54,-10.87 14.54,-10.87 l -9.06,-11.96 c 0,0 -5.12,3.84 -14.1,10.54 -2.26,1.64 -4.67,3.61 -7.48,5.48 -2.88,1.75 -6,3.65 -9.34,5.68 -6.66,4.05 -14.19,8.61 -22.39,13.6 -33.62,18.27 -80.65,39.9 -131.06,50.05 -50.16,10.41 -101.7,12.81 -139.96,9.25 -9.63,-0.12 -18.29,-1.8 -26.01,-2.94 -7.71,-1.17 -14.44,-2.2 -19.97,-3.05 -11.13,-1.41 -17.28,-3.26 -17.28,-3.26 l -3.2,14.65" /><path
         id="path96"
         style="fill:#91832c;fill-opacity:1;fill-rule:nonzero;stroke:none"
         d="m 2064.82,2114.25 c 0,0 2.67,-2.02 7.33,-5.56 4.34,-3.93 10.54,-9.55 17.97,-16.29 15.43,-12.91 33.23,-33.01 50.68,-53.26 8.02,-10.72 16.03,-21.44 23.55,-31.5 7.04,-10.36 12.77,-20.62 18.09,-29.13 5.26,-8.55 9.61,-15.7 11.9,-21.12 2.55,-5.27 4.01,-8.29 4.01,-8.29 l -13.43,-6.69 c 0,0 -1.41,2.93 -3.88,8.04 -2.21,5.25 -6.43,12.18 -11.54,20.47 -5.16,8.24 -10.7,18.19 -17.53,28.24 -7.28,9.75 -15.05,20.14 -22.83,30.53 -16.93,19.62 -34.16,39.13 -49.13,51.63 -7.21,6.54 -13.21,12 -17.41,15.81 -4.53,3.43 -7.12,5.38 -7.12,5.38 l 9.34,11.74" /><path
         id="path98"
         style="fill:#91832c;fill-opacity:1;fill-rule:nonzero;stroke:none"
         d="m 2203.37,1938.67 c 0,0 1.45,-3.02 3.99,-8.3 1.23,-2.66 2.9,-5.81 4.47,-9.57 1.41,-3.83 3,-8.15 4.73,-12.86 3.41,-9.45 7.6,-20.4 11.66,-32.27 3.13,-12.16 6.47,-25.13 9.81,-38.1 1.91,-6.44 2.82,-13.08 3.79,-19.6 1,-6.51 1.98,-12.92 2.92,-19.13 0.93,-6.2 1.82,-12.2 2.67,-17.89 0.3,-5.74 0.58,-11.17 0.84,-16.18 1,-20.05 1.66,-33.42 1.66,-33.42 h -15 c 0,0 -0.65,12.96 -1.63,32.4 -0.24,4.86 -0.51,10.12 -0.8,15.69 -0.82,5.52 -1.69,11.33 -2.59,17.35 -0.92,6.01 -1.87,12.23 -2.84,18.54 -0.93,6.32 -1.8,12.76 -3.67,18.99 -3.23,12.57 -6.46,25.14 -9.49,36.93 -3.95,11.5 -8.02,22.11 -11.31,31.27 -1.68,4.57 -3.22,8.76 -4.58,12.47 -1.52,3.65 -3.15,6.69 -4.34,9.27 -2.46,5.12 -3.87,8.04 -3.87,8.04 l 13.58,6.37" /><g
         transform="scale(10)"
         id="g100"><text
           id="text104"
           style="font-variant:normal;font-weight:normal;font-size:12px;font-family:FiraMono;-inkscape-font-specification:FiraMono-Regular;writing-mode:lr-tb;fill:#ffffff;fill-opacity:1;fill-rule:nonzero;stroke:none"
           transform="matrix(1,0,0,-1,164.725,165.164)"><tspan
             id="tspan102"
             y="0"
             x="0 7.1999998 14.4">R&amp;D</tspan></text>
</g></g></g></svg>