<?xml version="1.0" encoding="UTF-8" standalone="no"?>
<svg
   xmlns:dc="http://purl.org/dc/elements/1.1/"
   xmlns:cc="http://creativecommons.org/ns#"
   xmlns:rdf="http://www.w3.org/1999/02/22-rdf-syntax-ns#"
   xmlns:svg="http://www.w3.org/2000/svg"
   xmlns="http://www.w3.org/2000/svg"
   viewBox="0 0 466.66666 466.66666"
   height="466.66666"
   width="466.66666"
   xml:space="preserve"
   id="svg2"
   version="1.1"><metadata
     id="metadata8"><rdf:RDF><cc:Work
         rdf:about=""><dc:format>image/svg+xml</dc:format><dc:type
           rdf:resource="http://purl.org/dc/dcmitype/StillImage" /></cc:Work></rdf:RDF></metadata><defs
     id="defs6" /><g
     transform="matrix(1.3333333,0,0,-1.3333333,0,466.66667)"
     id="g10"><g
       transform="scale(0.1)"
       id="g12"><path
         id="path14"
         style="fill:#9a7cc5;fill-opacity:1;fill-rule:nonzero;stroke:none"
         d="m 2046.56,1595.63 c 0,0 2.27,4.89 5.68,12.24 3.49,7.31 6.45,17.74 10.21,27.85 3.6,10.18 5.39,20.89 7.56,28.69 0.99,3.92 1.8,7.2 2.01,9.56 0.34,2.34 0.53,3.68 0.53,3.68 l -14.79,2.52 c 0,0 -0.18,-1.27 -0.5,-3.5 -0.19,-2.25 -0.97,-5.37 -1.92,-9.11 -2.08,-7.42 -3.75,-17.64 -7.2,-27.33 -3.6,-9.62 -6.38,-19.58 -9.72,-26.53 -3.25,-6.99 -5.42,-11.65 -5.42,-11.65 l 13.56,-6.42" /><path
         id="path16"
         style="fill:#785ab3;fill-opacity:1;fill-rule:nonzero;stroke:none"
         d="m 1444.38,1764.62 c 0,0 -0.52,-2.54 -0.61,-7.07 -0.21,-4.51 -0.52,-10.96 -0.89,-18.7 -0.76,-7.73 0.23,-16.76 0.55,-26.43 0.05,-9.71 1.73,-19.91 3.24,-30.13 1.06,-10.3 3.79,-20.28 6.09,-29.68 1.23,-4.68 2.06,-9.3 3.49,-13.5 1.46,-4.19 2.85,-8.15 4.13,-11.81 2.66,-7.26 4.46,-13.49 6.39,-17.57 1.91,-4.1 3,-6.44 3,-6.44 l 13.72,6.05 c 0,0 -1.04,2.23 -2.86,6.13 -1.85,3.89 -3.54,9.83 -6.07,16.75 -1.23,3.48 -2.55,7.25 -3.96,11.23 -1.36,4 -2.13,8.42 -3.31,12.87 -2.19,8.96 -4.82,18.46 -5.8,28.28 -1.44,9.74 -3.06,19.46 -3.09,28.71 -0.29,9.22 -1.28,17.82 -0.52,25.19 0.35,7.38 0.64,13.52 0.84,17.82 0.08,4.32 0.58,6.74 0.58,6.74 l -14.92,1.56" /><path
         id="path18"
         style="fill:#514187;fill-opacity:1;fill-rule:nonzero;stroke:none"
         d="m 1472.93,1596.48 c 0,0 1.08,-2.34 2.98,-6.44 1.7,-4.2 4.87,-9.82 8.92,-16.43 7.39,-13.62 19.28,-30.58 32.4,-46.5 7.04,-7.56 13.63,-15.55 20.57,-22.29 7.18,-6.49 13.89,-12.56 19.63,-17.75 5.87,-5.05 11.35,-8.53 14.9,-11.31 3.64,-2.68 5.72,-4.21 5.72,-4.21 l 8.62,12.28 c 0,0 -1.98,1.46 -5.45,4.01 -3.38,2.66 -8.61,5.95 -14.2,10.77 -5.48,4.95 -11.87,10.73 -18.72,16.92 -6.61,6.42 -12.88,14.06 -19.6,21.25 -12.49,15.19 -23.84,31.32 -30.87,44.3 -3.86,6.29 -6.89,11.63 -8.49,15.65 -1.8,3.9 -2.84,6.13 -2.84,6.13 l -13.57,-6.38" /><path
         id="path20"
         style="fill:#403669;fill-opacity:1;fill-rule:nonzero;stroke:none"
         d="m 1584.1,1467.1 c 0,0 0.5,-0.42 1.51,-1.07 1.04,-0.61 2.57,-1.52 4.52,-2.66 3.89,-2.3 9.44,-5.58 16.11,-9.52 6.47,-4.31 14.98,-7.52 23.67,-11.76 8.62,-4.46 18.43,-7.71 28.2,-11.07 9.63,-3.81 19.71,-6.07 29.13,-8.32 4.71,-1.09 9.22,-2.41 13.58,-3.18 4.4,-0.63 8.55,-1.22 12.38,-1.78 7.68,-1 14.04,-2.25 18.55,-2.46 4.51,-0.21 7.09,-0.34 7.09,-0.34 l 0.99,14.97 c 0,0 -2.45,0.11 -6.76,0.31 -4.3,0.2 -10.35,1.41 -17.67,2.36 -3.65,0.52 -7.61,1.09 -11.79,1.69 -4.17,0.72 -8.45,2 -12.94,3.03 -8.98,2.15 -18.59,4.28 -27.76,7.93 -9.3,3.2 -18.65,6.27 -26.85,10.54 -8.27,4.05 -16.4,7.06 -22.55,11.2 -6.35,3.75 -11.64,6.87 -15.34,9.06 -1.86,1.09 -3.31,1.95 -4.31,2.53 -0.97,0.62 -1.44,1.02 -1.44,1.02 l -8.32,-12.48" /><path
         id="path22"
         style="fill:#644da4;fill-opacity:1;fill-rule:nonzero;stroke:none"
         d="m 1746.34,1414.59 c 0,0 2.58,-0.13 7.1,-0.34 4.51,-0.45 10.96,-0.18 18.69,0.27 15.49,0.29 36.09,2.71 56.24,7.13 20.24,4.24 39.72,11.27 54.1,16.96 14.05,6.51 23.42,10.86 23.42,10.86 l -6.91,13.32 c 0,0 -8.91,-4.14 -22.29,-10.35 -13.71,-5.39 -32.25,-12.11 -51.54,-16.14 -19.2,-4.21 -38.83,-6.53 -53.59,-6.79 -7.37,-0.44 -13.52,-0.71 -17.82,-0.27 -4.3,0.21 -6.76,0.34 -6.76,0.34 l -0.64,-14.99" /><path
         id="path24"
         style="fill:#9a7cc5;fill-opacity:1;fill-rule:nonzero;stroke:none"
         d="m 2076.53,1748.7 c 0,0 -0.31,6.57 -0.62,13.13 -0.95,6.5 -1.89,13.01 -1.89,13.01 l -14.86,-2.05 c 0,0 0.91,-6.19 1.81,-12.39 0.29,-6.26 0.58,-12.51 0.58,-12.51 l 14.98,0.81" /><path
         id="path26"
         style="fill:#9a7cc5;fill-opacity:1;fill-rule:nonzero;stroke:none"
         d="m 2030.52,1565.94 c 0,0 13.58,22.51 12.88,22.88 l -13.4,6.74 c 0.69,-0.36 -12.27,-21.79 -12.27,-21.79 l 12.79,-7.83" /><path
         id="path28"
         style="fill:#644da4;fill-opacity:1;fill-rule:nonzero;stroke:none"
         d="m 2072.95,1782.27 c 0,0 -0.41,2.85 -1.13,7.83 -0.83,4.96 -2.8,11.89 -4.77,20.28 -1.11,4.16 -1.91,8.79 -3.5,13.47 -1.63,4.66 -3.36,9.58 -5.14,14.67 -1.93,5.02 -3.28,10.48 -5.81,15.55 -2.38,5.13 -4.8,10.35 -7.22,15.56 -9.85,20.78 -22.51,40.11 -33.08,53.73 -2.6,3.43 -4.77,6.76 -7.07,9.4 -2.36,2.59 -4.41,4.86 -6.09,6.72 -3.38,3.74 -5.31,5.87 -5.31,5.87 l -11.06,-10.13 c 0,0 1.84,-2.03 5.06,-5.59 1.61,-1.78 3.57,-3.93 5.82,-6.41 2.19,-2.51 4.25,-5.68 6.73,-8.95 10.06,-12.98 22.13,-31.39 31.5,-51.18 2.31,-4.96 4.61,-9.93 6.89,-14.81 2.42,-4.83 3.68,-10.04 5.52,-14.82 1.7,-4.85 3.35,-9.53 4.91,-13.97 1.52,-4.45 2.26,-8.87 3.32,-12.83 1.86,-8 3.77,-14.6 4.56,-19.32 0.68,-4.75 1.06,-7.46 1.06,-7.46 l 14.81,2.39" /><path
         id="path30"
         style="fill:#9a7cc5;fill-opacity:1;fill-rule:nonzero;stroke:none"
         d="m 1988.8,1950.93 c 0,0 -1.9,2.07 -4.75,5.19 -3.14,2.83 -7.32,6.61 -11.5,10.38 -4.18,3.78 -8.36,7.56 -11.49,10.4 -3.27,2.67 -5.61,4.25 -5.61,4.25 l -9.26,-11.8 c 0,0 2.23,-1.5 5.35,-4.04 2.98,-2.71 6.96,-6.32 10.94,-9.93 3.99,-3.59 7.98,-7.19 10.97,-9.88 2.72,-2.98 4.53,-4.96 4.53,-4.96 l 10.82,10.39" /><path
         id="path32"
         style="fill:#9a7cc5;fill-opacity:1;fill-rule:nonzero;stroke:none"
         d="m 2076.57,1714.94 c 0,0 0.32,6.57 0.64,13.13 0.29,3.28 -0.04,6.57 -0.12,9.03 -0.12,2.46 -0.2,4.1 -0.2,4.1 l -15,-0.46 c 0,0 0.08,-1.57 0.2,-3.91 0.08,-2.35 0.41,-5.48 0.12,-8.6 -0.31,-6.26 -0.62,-12.51 -0.62,-12.51 l 14.98,-0.78" /><path
         id="path34"
         style="fill:#644da4;fill-opacity:1;fill-rule:nonzero;stroke:none"
         d="m 2073.62,1685.08 c 0,0 0.8,5.57 1.61,11.15 0.44,2.78 0.82,5.57 0.82,7.69 0.1,2.11 0.17,3.52 0.17,3.52 l -14.96,1.12 c 0,0 -0.06,-1.34 -0.15,-3.35 0.01,-2.02 -0.36,-4.68 -0.79,-7.33 -0.77,-5.31 -1.54,-10.62 -1.54,-10.62 l 14.84,-2.18" /><path
         id="path36"
         style="fill:#644da4;fill-opacity:1;fill-rule:nonzero;stroke:none"
         d="m 2013.62,1541.14 c 0,0 3.34,4.54 6.68,9.08 1.67,2.27 3.34,4.53 4.59,6.23 1.09,1.81 1.82,3.02 1.82,3.02 l -12.61,8.13 c 0,0 -0.68,-1.14 -1.72,-2.87 -1.19,-1.62 -2.79,-3.78 -4.39,-5.93 -3.18,-4.32 -6.36,-8.64 -6.36,-8.64 l 11.99,-9.02" /><path
         id="path38"
         style="fill:#403669;fill-opacity:1;fill-rule:nonzero;stroke:none"
         d="m 1870.64,2028.59 c 0,0 -3.27,1.14 -8.99,3.14 -2.86,1 -6.33,2.22 -10.31,3.62 -4.04,1.2 -8.71,2.17 -13.74,3.45 -5.04,1.23 -10.51,2.57 -16.28,3.99 -5.89,0.86 -12.1,1.78 -18.52,2.73 -12.79,2.46 -26.7,2.27 -40.51,3.14 -27.66,-0.38 -55.38,-3.29 -75.45,-8.75 -10.08,-2.48 -18.56,-4.29 -24.18,-6.63 -5.71,-2 -8.98,-3.14 -8.98,-3.14 l 5.02,-14.14 c 0,0 3.11,1.09 8.55,3 5.34,2.25 13.43,3.94 23.04,6.31 19.11,5.23 45.53,7.95 71.89,8.35 13.16,-0.86 26.42,-0.63 38.61,-3 6.12,-0.9 12.03,-1.77 17.64,-2.6 5.5,-1.35 10.71,-2.63 15.51,-3.81 4.79,-1.21 9.25,-2.13 13.09,-3.27 3.79,-1.34 7.1,-2.5 9.82,-3.46 5.45,-1.9 8.56,-2.99 8.56,-2.99 l 5.23,14.06" /><path
         id="path40"
         style="fill:#514187;fill-opacity:1;fill-rule:nonzero;stroke:none"
         d="m 1507.37,1923.08 c 0,0 -3.75,-5.11 -9.39,-12.77 -5.73,-7.58 -11.51,-18.93 -18.17,-29.69 -5.59,-11.36 -10.93,-22.88 -14.67,-31.59 -3.13,-8.98 -5.22,-14.96 -5.22,-14.96 l 14.19,-4.85 c 0,0 1.99,5.7 4.96,14.25 3.58,8.3 8.67,19.26 13.97,30.09 6.38,10.23 11.84,21.06 17.32,28.28 5.37,7.29 8.95,12.15 8.95,12.15 l -11.94,9.09" /><path
         id="path42"
         style="fill:#211e2f;fill-opacity:1;fill-rule:nonzero;stroke:none"
         d="m 1599.37,2004.8 c 0,0 -6.36,-3.55 -15.56,-9.4 -4.39,-3.23 -9.52,-7.01 -15.01,-11.05 -2.75,-2.02 -5.59,-4.1 -8.48,-6.22 -2.77,-2.26 -5.38,-4.81 -8.11,-7.22 -5.4,-4.88 -10.8,-9.76 -15.86,-14.33 -4.74,-4.9 -8.88,-9.74 -12.58,-13.76 -3.66,-4.04 -6.72,-7.41 -8.85,-9.78 -2.18,-2.32 -3.11,-3.91 -3.11,-3.91 l 11.72,-9.36 c 0,0 0.88,1.51 2.96,3.73 2.04,2.25 4.95,5.46 8.45,9.31 3.52,3.82 7.47,8.45 11.98,13.13 4.83,4.35 9.98,9 15.13,13.65 2.6,2.29 5.08,4.73 7.72,6.89 2.75,2.01 5.46,4 8.08,5.91 5.23,3.86 10.12,7.46 14.3,10.54 8.76,5.56 14.83,8.94 14.83,8.94 l -7.61,12.93" /><path
         id="path44"
         style="fill:#403669;fill-opacity:1;fill-rule:nonzero;stroke:none"
         d="m 1949.4,1985.59 c 0,0 -4.16,3.06 -10.4,7.65 -6.06,4.87 -15.4,9.44 -24.14,14.9 -8.66,5.7 -18.47,9.19 -25.37,12.7 -3.51,1.63 -6.43,2.99 -8.48,3.94 -2.02,1.02 -3.28,1.34 -3.28,1.34 l -5.56,-13.93 c 0,0 1.2,-0.3 3.12,-1.28 1.95,-0.91 4.74,-2.21 8.08,-3.76 6.55,-3.36 15.93,-6.64 24.15,-12.09 8.32,-5.23 17.24,-9.53 23,-14.19 5.94,-4.38 9.9,-7.29 9.9,-7.29 l 8.98,12.01" /><path
         id="path46"
         style="fill:#18161a;fill-opacity:1;fill-rule:nonzero;stroke:none"
         d="m 1643.04,2026.43 c 0,0 -2.48,-0.73 -5.95,-2.48 -3.51,-1.63 -8.19,-3.8 -12.87,-5.98 -4.66,-2.21 -9.42,-4.24 -12.83,-6.06 -3.33,-1.98 -5.55,-3.29 -5.55,-3.29 l 7.29,-13.11 c 0,0 2.11,1.26 5.28,3.14 3.25,1.74 7.79,3.65 12.23,5.77 4.45,2.07 8.91,4.14 12.25,5.7 3.3,1.67 5.67,2.36 5.67,2.36 l -5.52,13.95" /><path
         id="path48"
         style="fill:#9a7cc5;fill-opacity:1;fill-rule:nonzero;stroke:none"
         d="m 1457.43,1826.98 c 0,0 -0.29,-0.83 -0.8,-2.28 -0.54,-1.44 -1.26,-3.52 -1.8,-6.11 -1.25,-5.13 -2.92,-11.97 -4.59,-18.81 -1.95,-6.78 -2.78,-13.79 -3.52,-19.02 -0.76,-5.22 -1.26,-8.71 -1.26,-8.71 l 14.88,-1.91 c 0,0 0.48,3.32 1.2,8.3 0.7,4.98 1.47,11.66 3.35,18.12 1.59,6.52 3.17,13.03 4.36,17.92 0.51,2.47 1.2,4.45 1.72,5.82 0.49,1.38 0.77,2.18 0.77,2.18 l -14.31,4.5" /><path
         id="path50"
         style="fill:#866abc;fill-opacity:1;fill-rule:nonzero;stroke:none"
         d="m 1912.43,1453.13 c 0,0 4.85,2.87 12.12,7.17 3.57,2.25 8.04,4.41 12.28,7.57 4.25,3.12 8.79,6.46 13.32,9.8 9.38,6.3 17.52,14.13 23.79,19.79 6.27,5.66 10.45,9.44 10.45,9.44 l -10.6,10.61 c 0,0 -3.99,-3.6 -9.98,-8.98 -5.98,-5.4 -13.72,-12.89 -22.67,-18.87 -4.32,-3.18 -8.64,-6.36 -12.69,-9.35 -4.03,-3.02 -8.3,-5.05 -11.69,-7.2 -6.93,-4.1 -11.54,-6.83 -11.54,-6.83 l 7.21,-13.15" /><path
         id="path52"
         style="fill:#9a7cc5;fill-opacity:1;fill-rule:nonzero;stroke:none"
         d="m 1461.01,1586.54 c 0,0 0.85,-1.85 2.35,-5.06 1.34,-3.3 3.87,-7.7 7.02,-12.9 3.1,-5.24 6.71,-11.35 10.58,-17.9 4.07,-6.41 9.18,-12.75 13.89,-19.34 2.4,-3.27 4.81,-6.53 7.18,-9.75 2.67,-2.96 5.3,-5.88 7.84,-8.7 5.1,-5.64 9.86,-10.9 13.94,-15.41 8.79,-8.39 14.92,-13.72 14.92,-13.72 l -10,-11.17 c 0,0 -6.4,5.56 -15.58,14.33 -4.26,4.71 -9.24,10.2 -14.57,16.09 -2.65,2.95 -5.39,6 -8.18,9.1 -2.48,3.36 -5,6.77 -7.51,10.18 -4.94,6.89 -10.26,13.53 -14.51,20.23 -4.05,6.84 -7.83,13.23 -11.07,18.7 -3.29,5.45 -5.92,10.04 -7.34,13.49 -1.56,3.36 -2.46,5.29 -2.46,5.29 l 13.5,6.54" /><path
         id="path54"
         style="fill:#785ab3;fill-opacity:1;fill-rule:nonzero;stroke:none"
         d="m 1495.43,1932.16 c 0,0 -2.33,-3.17 -5.82,-7.92 -3.53,-4.73 -8.29,-11 -12.04,-17.94 -4,-6.77 -8,-13.55 -11,-18.63 -2.83,-5.17 -4.32,-8.82 -4.32,-8.82 l -13.44,6.66 c 0,0 1.57,3.82 4.53,9.22 3.13,5.31 7.31,12.4 11.49,19.48 3.94,7.24 8.9,13.81 12.58,18.75 3.65,4.97 6.09,8.28 6.09,8.28 l 11.93,-9.08" /><path
         id="path56"
         style="fill:#9a7cc5;fill-opacity:1;fill-rule:nonzero;stroke:none"
         d="m 1458.94,1871.71 c 0,0 -1.55,-3.34 -3.88,-8.36 -2.57,-4.92 -5.03,-11.87 -7.39,-18.86 -2.41,-6.97 -4.82,-13.94 -6.62,-19.16 -1.32,-5.37 -2.2,-8.96 -2.2,-8.96 l -14.5,3.83 c 0,0 0.92,3.74 2.3,9.35 1.89,5.47 4.4,12.75 6.91,20.04 2.48,7.3 5.07,14.57 7.73,19.72 2.43,5.24 4.05,8.74 4.05,8.74 l 13.6,-6.34" /><path
         id="path58"
         style="fill:#514187;fill-opacity:1;fill-rule:nonzero;stroke:none"
         d="m 1436.99,1808.74 c -1.16,0.25 -10.12,-54.13 -8.38,-54.31 l -14.96,1.03 c -1.8,0.19 7.53,57.02 8.75,56.76 l 14.59,-3.48" /><path
         id="path60"
         style="fill:#785ab3;fill-opacity:1;fill-rule:nonzero;stroke:none"
         d="m 1544.57,1478.5 c 0,0 0.91,-0.83 2.5,-2.27 1.55,-1.5 3.88,-3.5 6.92,-5.6 5.94,-4.36 13.86,-10.19 21.78,-16.01 8.29,-5.26 16.88,-10.09 23.19,-13.89 6.26,-3.93 10.81,-5.82 10.81,-5.82 l -6.78,-13.38 c 0,0 -4.75,1.99 -11.3,6.08 -6.61,3.97 -15.58,9.02 -24.24,14.53 -8.28,6.09 -16.56,12.17 -22.77,16.73 -3.17,2.21 -5.61,4.3 -7.23,5.85 -1.67,1.51 -2.62,2.36 -2.62,2.36 l 9.74,11.42" /><path
         id="path62"
         style="fill:#785ab3;fill-opacity:1;fill-rule:nonzero;stroke:none"
         d="m 1428.24,1746.57 c 0,0 -0.12,-2.45 -0.32,-6.75 -0.11,-2.14 -0.23,-4.75 -0.37,-7.74 0.01,-3 0.26,-6.37 0.41,-10.05 0.45,-7.36 0.51,-15.98 1.45,-25.14 1.32,-9.12 2.72,-18.85 4.13,-28.58 2.32,-9.56 4.63,-19.11 6.8,-28.07 2.37,-8.89 5.69,-16.88 7.98,-23.88 1.22,-3.48 2.34,-6.67 3.33,-9.49 1.14,-2.77 2.32,-5.1 3.2,-7.07 1.81,-3.9 2.85,-6.13 2.85,-6.13 l -13.66,-6.22 c 0,0 -1.07,2.34 -2.96,6.42 -0.92,2.05 -2.15,4.49 -3.34,7.38 -1.04,2.96 -2.22,6.29 -3.5,9.93 -2.4,7.31 -5.84,15.67 -8.33,24.97 -2.26,9.36 -4.68,19.34 -7.1,29.33 -1.47,10.16 -2.94,20.33 -4.32,29.86 -0.98,9.57 -1.06,18.58 -1.53,26.27 -0.15,3.84 -0.4,7.37 -0.41,10.5 0.14,3.12 0.27,5.85 0.37,8.09 0.21,4.49 0.33,7.06 0.33,7.06 l 14.99,-0.69" /><path
         id="path64"
         style="fill:#866abc;fill-opacity:1;fill-rule:nonzero;stroke:none"
         d="m 1823.95,1405.14 c 0,0 14.33,3.5 28.65,7 14.04,4.48 27.9,9.54 27.9,9.54 l 5.44,-13.98 c 0,0 -14.49,-5.31 -29.17,-9.97 -14.97,-3.66 -29.95,-7.31 -29.95,-7.31 l -2.87,14.72" /><path
         id="path66"
         style="fill:#9a7cc5;fill-opacity:1;fill-rule:nonzero;stroke:none"
         d="m 1757.49,1399.05 c 0,0 0.92,-0.05 2.53,-0.12 1.61,0.08 3.91,0.19 6.67,0.32 5.53,0.26 12.89,0.61 20.25,0.96 7.39,0.14 14.62,1.85 20.12,2.43 5.47,0.8 9.12,1.32 9.12,1.32 l 2.52,-14.78 c 0,0 -3.81,-0.56 -9.53,-1.39 -5.74,-0.62 -13.3,-2.36 -21.01,-2.53 -7.7,-0.36 -15.39,-0.73 -21.16,-1.01 -2.89,-0.13 -5.29,-0.24 -6.98,-0.32 -1.68,0.07 -2.64,0.12 -2.64,0.12 l 0.11,15" /><path
         id="path68"
         style="fill:#866abc;fill-opacity:1;fill-rule:nonzero;stroke:none"
         d="m 1887.81,1424.56 c 0,0 7.36,3.41 18.4,8.53 2.75,1.31 5.78,2.62 8.88,4.2 3,1.77 6.17,3.64 9.44,5.57 6.49,3.96 13.67,7.79 20.37,12.34 13.03,9.66 26.46,18.84 35.07,27.5 9.02,8.15 15.03,13.59 15.03,13.59 l 10.61,-10.6 c 0,0 -6.28,-5.69 -15.69,-14.22 -9.02,-9.02 -23.02,-18.65 -36.66,-28.72 -7.01,-4.75 -14.5,-8.78 -21.29,-12.91 -3.43,-2.02 -6.74,-3.97 -9.88,-5.81 -3.24,-1.66 -6.4,-3.04 -9.27,-4.4 -11.55,-5.35 -19.24,-8.92 -19.24,-8.92 l -5.77,13.85" /><path
         id="path70"
         style="fill:#514187;fill-opacity:1;fill-rule:nonzero;stroke:none"
         d="m 1664.44,1412.92 c 0,0 3.32,-0.9 8.33,-2.13 5.02,-1.22 11.7,-2.86 18.39,-4.49 6.63,-1.93 13.55,-2.29 18.63,-3.22 5.11,-0.73 8.51,-1.22 8.51,-1.22 l -1.87,-14.89 c 0,0 -3.56,0.52 -8.9,1.28 -5.3,0.96 -12.53,1.38 -19.46,3.38 -6.99,1.7 -13.98,3.4 -19.22,4.68 -5.24,1.29 -8.71,2.24 -8.71,2.24 l 4.3,14.37" /><path
         id="path72"
         style="fill:#785ab3;fill-opacity:1;fill-rule:nonzero;stroke:none"
         d="m 1726.09,1400.74 c 0,0 1.44,-0.33 3.66,-0.37 2.21,-0.11 5.15,-0.25 8.1,-0.39 5.89,-0.28 11.78,-0.57 11.78,-0.57 l -0.46,-14.99 c 0,0 -6.16,0.3 -12.31,0.59 -3.08,0.15 -6.16,0.31 -8.47,0.42 -2.31,0.05 -3.82,0.39 -3.82,0.39 l 1.52,14.92" /><path
         id="path74"
         style="fill:#785ab3;fill-opacity:1;fill-rule:nonzero;stroke:none"
         d="m 1616.91,1431.59 c 0,0 9.74,-4.72 19.69,-8.93 10.21,-3.57 20.42,-7.15 20.42,-7.15 l -4.64,-14.26 c 0,0 -10.67,3.74 -21.34,7.48 -10.41,4.39 -20.59,9.32 -20.59,9.32 l 6.46,13.54" /><path
         id="path76"
         style="fill:#9a7cc5;fill-opacity:1;fill-rule:nonzero;stroke:none"
         d="m 1932.35,2015.22 c 0,0 -2.75,1.63 -6.88,4.07 -4.22,2.26 -9.42,6.08 -15.36,8.51 -11.59,5.38 -23.19,10.76 -23.19,10.76 l 5.72,13.86 c 0,0 12.13,-5.62 24.25,-11.24 6.2,-2.56 11.66,-6.52 16.06,-8.89 4.32,-2.55 7.19,-4.25 7.19,-4.25 l -7.79,-12.82" /><path
         id="path78"
         style="fill:#9a7cc5;fill-opacity:1;fill-rule:nonzero;stroke:none"
         d="m 1879.57,2041.35 c 0,0 -4.64,1.62 -11.6,4.06 -3.48,1.22 -7.54,2.63 -11.89,4.15 -4.39,1.39 -9.23,2.35 -13.98,3.58 -9.57,2.25 -19.04,5 -26.41,5.68 -7.3,1.05 -12.16,1.75 -12.16,1.75 l 1.96,14.87 c 0,0 5.08,-0.73 12.71,-1.84 7.69,-0.73 17.6,-3.57 27.6,-5.92 4.97,-1.29 10.02,-2.31 14.61,-3.75 4.55,-1.59 8.79,-3.07 12.43,-4.33 7.28,-2.55 12.13,-4.25 12.13,-4.25 l -5.4,-14" /><path
         id="path80"
         style="fill:#785ab3;fill-opacity:1;fill-rule:nonzero;stroke:none"
         d="m 1795.74,2061.69 c 0,0 -1.39,0.2 -3.84,0.55 -2.47,0.13 -6,0.3 -10.23,0.51 -8.47,0.13 -19.76,1.62 -31.06,0.59 -11.27,-0.68 -22.62,-0.64 -30.97,-2.3 -8.39,-1.21 -13.99,-2.01 -13.99,-2.01 l -2.44,14.8 c 0,0 5.85,0.84 14.62,2.11 8.73,1.7 20.58,1.7 32.36,2.39 11.8,1.05 23.6,-0.46 32.45,-0.62 4.42,-0.22 8.11,-0.41 10.69,-0.54 2.56,-0.36 4.02,-0.57 4.02,-0.57 l -1.61,-14.91" /><path
         id="path82"
         style="fill:#9a7cc5;fill-opacity:1;fill-rule:nonzero;stroke:none"
         d="m 1568.64,2002.85 -18.97,-14.03 -9.5,11.61 c 0,0 1.19,0.98 3.06,2.34 1.86,1.37 4.34,3.2 6.82,5.03 4.97,3.65 9.94,7.3 9.94,7.3 l 8.65,-12.25" /><path
         id="path84"
         style="fill:#866abc;fill-opacity:1;fill-rule:nonzero;stroke:none"
         d="m 1697.87,2057.9 c 0,0 -1.71,-0.21 -4.2,-0.89 -2.51,-0.61 -5.86,-1.42 -9.2,-2.23 -6.68,-1.64 -13.37,-3.27 -13.37,-3.27 l -4,14.45 c 0,0 6.99,1.72 13.98,3.42 3.49,0.85 6.99,1.7 9.61,2.34 2.61,0.69 4.39,0.92 4.39,0.92 l 2.79,-14.74" /><path
         id="path86"
         style="fill:#644da4;fill-opacity:1;fill-rule:nonzero;stroke:none"
         d="m 1543.84,1983.55 c 0,0 -2.92,-2.63 -7.3,-6.58 -4.19,-4.14 -10.61,-8.83 -15.62,-14.93 -5.27,-5.83 -10.54,-11.66 -14.5,-16.04 -4.07,-4.28 -6.32,-7.51 -6.32,-7.51 l -11.72,9.37 c 0,0 2.36,3.37 6.61,7.84 4.13,4.57 9.64,10.67 15.14,16.76 5.25,6.35 11.92,11.28 16.31,15.6 4.58,4.12 7.63,6.87 7.63,6.87 l 9.77,-11.38" /><path
         id="path88"
         style="fill:#9a7cc5;fill-opacity:1;fill-rule:nonzero;stroke:none"
         d="m 1598.54,2021.73 c 0,0 -5.92,-3.5 -11.85,-7.01 -2.96,-1.75 -5.92,-3.5 -8.15,-4.82 -2.27,-1.24 -3.56,-2.4 -3.56,-2.4 l -8.36,12.46 c 0,0 1.36,1.2 3.73,2.51 2.32,1.37 5.41,3.21 8.5,5.05 6.2,3.65 12.4,7.31 12.4,7.31 l 7.29,-13.1" /><path
         id="path90"
         style="fill:#644da4;fill-opacity:1;fill-rule:nonzero;stroke:none"
         d="m 1663.51,2049.46 -25.98,-9.09 -5.52,13.95 27.16,9.5 4.34,-14.36" /><path
         id="path92"
         style="fill:#9a7cc5;fill-opacity:1;fill-rule:nonzero;stroke:none"
         d="m 1630.29,2037.32 -24.97,-11.6 -6.98,13.28 26.1,12.14 5.85,-13.82" /><path
         id="path94"
         style="fill:#514187;fill-opacity:1;fill-rule:nonzero;stroke:none"
         d="m 1947.22,2023.85 c 0,0 4.13,-2.24 10.64,-7.26 3.31,-2.42 7.32,-5.37 11.93,-8.76 4.58,-3.41 9.93,-7.05 14.98,-11.95 21.64,-17.97 47.09,-45.85 67.66,-77.25 20.84,-31.38 34.05,-66.93 41.97,-93.81 3.12,-13.7 6.65,-24.95 7.49,-33.13 1.18,-8.12 1.85,-12.76 1.85,-12.76 l -14.86,-2.04 c 0,0 -0.64,4.44 -1.77,12.2 -0.78,7.84 -4.2,18.59 -7.16,31.7 -7.6,25.71 -20.19,59.73 -40.14,89.74 -19.69,30.02 -44.04,56.74 -64.77,73.93 -4.82,4.71 -9.95,8.17 -14.33,11.43 -4.41,3.24 -8.25,6.06 -11.41,8.39 -6.22,4.81 -10.18,6.94 -10.18,6.94 l 8.1,12.63" /><path
         id="path96"
         style="fill:#644da4;fill-opacity:1;fill-rule:nonzero;stroke:none"
         d="m 2104.9,1770.8 c 0,0 0.33,-2.36 0.89,-6.47 0.21,-4.15 0.5,-10.08 0.85,-17.2 1.25,-14.22 0.12,-33.25 -1.3,-52.17 -1.36,-9.4 -2.72,-18.81 -3.99,-27.63 -1.67,-8.74 -3.94,-16.76 -5.54,-23.7 -1.66,-6.94 -3.07,-12.71 -4.63,-16.58 -1.37,-3.93 -2.15,-6.17 -2.15,-6.17 l -14.22,4.76 c 0,0 0.75,2.15 2.06,5.91 1.51,3.69 2.85,9.22 4.42,15.86 1.53,6.64 3.71,14.31 5.31,22.68 1.22,8.44 2.52,17.43 3.82,26.43 1.33,18.11 2.46,36.32 1.23,49.93 -0.33,6.81 -0.6,12.49 -0.79,16.46 -0.55,3.94 -0.86,6.19 -0.86,6.19 l 14.9,1.7" /><path
         id="path98"
         style="fill:#644da4;fill-opacity:1;fill-rule:nonzero;stroke:none"
         d="m 2086.32,1613.12 c 0,0 -0.79,-2.25 -2.17,-6.17 -1.21,-3.99 -3.53,-9.46 -6.64,-15.88 -3.02,-6.46 -6.43,-14.06 -10.35,-22.05 -4.53,-7.68 -9.37,-15.87 -14.2,-24.06 -4.73,-8.26 -10.98,-15.51 -16.07,-22.81 -2.65,-3.58 -5.22,-7.04 -7.65,-10.32 -2.73,-3.03 -5.31,-5.9 -7.69,-8.54 -9.57,-10.56 -15.94,-17.6 -15.94,-17.6 l -10.61,10.6 c 0,0 6.1,6.75 15.25,16.86 2.28,2.53 4.76,5.27 7.37,8.17 2.33,3.15 4.78,6.46 7.31,9.88 4.86,7 10.87,13.91 15.38,21.82 4.62,7.83 9.25,15.67 13.59,23.01 3.62,7.72 6.99,14.92 9.89,21.1 2.99,6.14 5.21,11.36 6.36,15.19 1.31,3.75 2.06,5.9 2.06,5.9 l 14.11,-5.1" /></g></g></svg>