<?xml version="1.0" encoding="UTF-8" standalone="no"?>
<svg
   xmlns:dc="http://purl.org/dc/elements/1.1/"
   xmlns:cc="http://creativecommons.org/ns#"
   xmlns:rdf="http://www.w3.org/1999/02/22-rdf-syntax-ns#"
   xmlns:svg="http://www.w3.org/2000/svg"
   xmlns="http://www.w3.org/2000/svg"
   viewBox="0 0 466.66666 466.66666"
   height="466.66666"
   width="466.66666"
   xml:space="preserve"
   id="svg2"
   version="1.1"><metadata
     id="metadata8"><rdf:RDF><cc:Work
         rdf:about=""><dc:format>image/svg+xml</dc:format><dc:type
           rdf:resource="http://purl.org/dc/dcmitype/StillImage" /></cc:Work></rdf:RDF></metadata><defs
     id="defs6" /><g
     transform="matrix(1.3333333,0,0,-1.3333333,0,466.66667)"
     id="g10"><g
       transform="scale(0.1)"
       id="g12"><path
         id="path14"
         style="fill:#78d1c9;fill-opacity:1;fill-rule:nonzero;stroke:none"
         d="m 1638.45,1476.23 c 0,0 4.35,-2.02 10.89,-5.06 6.51,-3.1 15.79,-5.74 24.79,-9.08 9.06,-3.21 18.6,-4.8 25.54,-6.73 3.49,-0.88 6.41,-1.6 8.51,-1.79 2.08,-0.3 3.27,-0.47 3.27,-0.47 l 2.53,14.79 c 0,0 -1.13,0.16 -3.1,0.44 -1.99,0.17 -4.75,0.85 -8.06,1.7 -6.56,1.84 -15.61,3.31 -24.18,6.37 -8.51,3.19 -17.32,5.64 -23.47,8.59 -6.18,2.88 -10.3,4.8 -10.3,4.8 l -6.42,-13.56" /><path
         id="path16"
         style="fill:#55b5ad;fill-opacity:1;fill-rule:nonzero;stroke:none"
         d="m 1788.87,2012.24 c 0,0 -2.26,0.46 -6.29,0.54 -4.02,0.19 -9.76,0.46 -16.64,0.79 -6.89,0.68 -14.93,-0.2 -23.53,-0.49 -8.65,-0.05 -17.73,-1.53 -26.82,-2.88 -9.17,-0.94 -18.05,-3.37 -26.42,-5.42 -4.17,-1.1 -8.29,-1.84 -12.02,-3.11 -3.73,-1.3 -7.25,-2.54 -10.51,-3.68 -6.47,-2.36 -12.01,-3.96 -15.64,-5.68 -3.65,-1.7 -5.73,-2.67 -5.73,-2.67 l 6.05,-13.72 c 0,0 1.97,0.92 5.42,2.53 3.44,1.64 8.69,3.13 14.81,5.37 3.08,1.08 6.42,2.26 9.94,3.5 3.54,1.21 7.45,1.89 11.39,2.92 7.92,1.94 16.33,4.27 25.02,5.14 8.61,1.27 17.21,2.71 25.4,2.73 8.15,0.26 15.76,1.14 22.28,0.46 6.53,-0.3 11.96,-0.56 15.77,-0.74 3.81,-0.06 5.95,-0.51 5.95,-0.51 l 1.57,14.92" /><path
         id="path18"
         style="fill:#3c7d7c;fill-opacity:1;fill-rule:nonzero;stroke:none"
         d="m 1639.21,1986.83 c 0,0 -2.09,-0.97 -5.74,-2.66 -3.74,-1.51 -8.74,-4.33 -14.62,-7.93 -12.13,-6.58 -27.21,-17.17 -41.39,-28.85 -6.73,-6.26 -13.84,-12.13 -19.84,-18.31 -5.78,-6.39 -11.18,-12.36 -15.8,-17.47 -4.5,-5.23 -7.59,-10.1 -10.07,-13.26 -2.38,-3.24 -3.74,-5.09 -3.74,-5.09 l 12.27,-8.62 c 0,0 1.29,1.75 3.55,4.82 2.35,2.99 5.26,7.62 9.52,12.56 4.39,4.85 9.5,10.5 14.97,16.56 5.69,5.85 12.45,11.39 18.81,17.35 13.43,11.04 27.7,21.08 39.19,27.3 5.56,3.42 10.29,6.1 13.84,7.51 3.45,1.6 5.42,2.51 5.42,2.51 l -6.37,13.58" /><path
         id="path20"
         style="fill:#2f6263;fill-opacity:1;fill-rule:nonzero;stroke:none"
         d="m 1524.04,1887.87 c 0,0 -1.33,-1.87 -3.32,-5.37 -2.04,-3.46 -4.97,-8.4 -8.47,-14.33 -3.84,-5.76 -6.7,-13.34 -10.47,-21.08 -3.97,-7.67 -6.86,-16.4 -9.85,-25.09 -3.39,-8.57 -5.41,-17.55 -7.41,-25.93 -0.96,-4.2 -2.15,-8.21 -2.83,-12.1 -0.56,-3.9 -1.09,-7.6 -1.58,-11.01 -0.9,-6.83 -2,-12.49 -2.19,-16.51 -0.19,-4.02 -0.3,-6.31 -0.3,-6.31 l 14.97,-1 c 0,0 0.09,2.18 0.27,5.98 0.17,3.81 1.25,9.17 2.09,15.64 0.46,3.23 0.96,6.73 1.48,10.43 0.64,3.69 1.78,7.48 2.69,11.45 1.9,7.94 3.78,16.45 7.02,24.55 2.83,8.23 5.54,16.5 9.33,23.76 3.58,7.31 6.24,14.5 9.9,19.94 3.31,5.62 6.08,10.3 8.01,13.58 1.88,3.31 3.14,5.08 3.14,5.08 l -12.48,8.32" /><path
         id="path22"
         style="fill:#489896;fill-opacity:1;fill-rule:nonzero;stroke:none"
         d="m 1477.3,1743.46 c 0,0 -0.11,-2.3 -0.3,-6.31 -0.4,-4.02 -0.16,-9.76 0.24,-16.65 0.26,-13.78 2.41,-32.12 6.35,-50.06 3.77,-18.02 10.03,-35.35 15.09,-48.15 5.8,-12.5 9.67,-20.84 9.67,-20.84 l 13.32,6.9 c 0,0 -3.66,7.89 -9.15,19.72 -4.77,12.13 -10.72,28.53 -14.28,45.6 -3.72,16.98 -5.78,34.35 -6.01,47.4 -0.39,6.53 -0.63,11.96 -0.24,15.77 0.19,3.8 0.3,5.98 0.3,5.98 l -14.99,0.64" /><path
         id="path24"
         style="fill:#78d1c9;fill-opacity:1;fill-rule:nonzero;stroke:none"
         d="m 1774.7,1449.56 c 0,0 5.84,0.27 11.69,0.55 5.79,0.84 11.58,1.68 11.58,1.68 l -2.05,14.86 c 0,0 -5.48,-0.8 -10.96,-1.61 -5.54,-0.25 -11.08,-0.5 -11.08,-0.5 l 0.82,-14.98" /><path
         id="path26"
         style="fill:#78d1c9;fill-opacity:1;fill-rule:nonzero;stroke:none"
         d="m 1612.02,1490.51 c 0,0 20.04,-12.09 20.36,-11.47 l 6.75,13.4 c -0.33,-0.61 -19.28,10.86 -19.28,10.86 l -7.83,-12.79" /><path
         id="path28"
         style="fill:#489896;fill-opacity:1;fill-rule:nonzero;stroke:none"
         d="m 1804.58,1452.74 c 0,0 2.54,0.37 6.97,1.01 4.41,0.73 10.58,2.5 18.05,4.24 3.71,0.99 7.83,1.7 11.99,3.12 4.15,1.45 8.53,2.99 13.05,4.57 9.22,2.79 18.44,7.25 27.7,11.61 18.5,8.75 35.7,20.03 47.82,29.43 6.35,4.34 11.09,8.65 14.36,11.72 3.32,3.01 5.22,4.73 5.22,4.73 l -10.13,11.06 c 0,0 -1.8,-1.63 -4.95,-4.48 -3.09,-2.92 -7.57,-7.01 -13.59,-11.1 -11.48,-8.9 -27.76,-19.58 -45.27,-27.86 -8.77,-4.12 -17.49,-8.37 -26.22,-10.99 -4.28,-1.5 -8.42,-2.96 -12.35,-4.34 -3.94,-1.35 -7.85,-2 -11.35,-2.94 -7.08,-1.64 -12.91,-3.34 -17.09,-4.03 -4.2,-0.6 -6.6,-0.94 -6.6,-0.94 l 2.39,-14.81" /><path
         id="path30"
         style="fill:#78d1c9;fill-opacity:1;fill-rule:nonzero;stroke:none"
         d="m 1954.7,1527.65 c 0,0 1.85,1.69 4.62,4.23 2.52,2.79 5.89,6.51 9.25,10.23 3.36,3.72 6.73,7.44 9.25,10.23 2.37,2.91 3.78,4.99 3.78,4.99 l -11.8,9.26 c 0,0 -1.33,-1.97 -3.57,-4.73 -2.4,-2.64 -5.59,-6.16 -8.78,-9.68 -3.18,-3.53 -6.36,-7.06 -8.75,-9.71 -2.63,-2.4 -4.39,-4 -4.39,-4 l 10.39,-10.82" /><path
         id="path32"
         style="fill:#78d1c9;fill-opacity:1;fill-rule:nonzero;stroke:none"
         d="m 1744.65,1449.52 c 0,0 5.84,-0.28 11.69,-0.56 2.92,-0.27 5.84,0.02 8.03,0.1 2.19,0.11 3.65,0.18 3.65,0.18 l -0.46,14.99 c 0,0 -1.38,-0.07 -3.46,-0.17 -2.08,-0.08 -4.84,-0.37 -7.61,-0.11 -5.53,0.28 -11.07,0.55 -11.07,0.55 l -0.77,-14.98" /><path
         id="path34"
         style="fill:#489896;fill-opacity:1;fill-rule:nonzero;stroke:none"
         d="m 1718.07,1452.15 c 0,0 4.96,-0.72 9.92,-1.44 2.48,-0.39 4.96,-0.73 6.85,-0.73 1.88,-0.09 3.13,-0.15 3.13,-0.15 l 1.13,14.96 c 0,0 -1.19,0.06 -2.97,0.13 -1.79,0 -4.14,0.32 -6.49,0.7 -4.7,0.69 -9.39,1.37 -9.39,1.37 l -2.18,-14.84" /><path
         id="path36"
         style="fill:#489896;fill-opacity:1;fill-rule:nonzero;stroke:none"
         d="m 1589.95,1505.55 c 0,0 4.04,-2.97 8.08,-5.94 2.02,-1.49 4.03,-2.98 5.55,-4.09 1.61,-0.97 2.68,-1.62 2.68,-1.62 l 8.14,12.61 c 0,0 -1.02,0.6 -2.55,1.52 -1.43,1.06 -3.33,2.47 -5.24,3.88 -3.82,2.81 -7.65,5.63 -7.65,5.63 l -9.01,-11.99" /><path
         id="path38"
         style="fill:#2f6263;fill-opacity:1;fill-rule:nonzero;stroke:none"
         d="m 2023.83,1632.82 c 0,0 1.02,2.91 2.8,8 0.89,2.55 1.97,5.64 3.21,9.18 1.07,3.59 1.94,7.75 3.08,12.23 1.1,4.49 2.29,9.35 3.54,14.49 0.78,5.24 1.6,10.77 2.44,16.48 2.19,11.39 2.02,23.77 2.8,36.07 -0.35,24.62 -2.93,49.29 -7.79,67.15 -2.21,8.98 -3.82,16.52 -5.9,21.52 -1.78,5.09 -2.8,8 -2.8,8 l -14.14,-5.02 c 0,0 0.97,-2.75 2.66,-7.57 1.99,-4.72 3.48,-11.88 5.58,-20.37 4.63,-16.91 7.03,-40.28 7.39,-63.6 -0.77,-11.65 -0.55,-23.38 -2.66,-34.16 -0.8,-5.42 -1.57,-10.65 -2.3,-15.61 -1.19,-4.87 -2.32,-9.47 -3.37,-13.72 -1.08,-4.24 -1.88,-8.18 -2.9,-11.59 -1.18,-3.35 -2.21,-6.27 -3.06,-8.68 -1.68,-4.82 -2.64,-7.57 -2.64,-7.57 l 14.06,-5.23" /><path
         id="path40"
         style="fill:#3c7d7c;fill-opacity:1;fill-rule:nonzero;stroke:none"
         d="m 1929.91,1956.17 c 0,0 -4.54,3.34 -11.36,8.35 -6.75,5.11 -16.85,10.25 -26.43,16.19 -10.11,4.96 -20.36,9.72 -28.12,13.05 -7.99,2.79 -13.31,4.65 -13.31,4.65 l -4.85,-14.2 c 0,0 5.04,-1.75 12.61,-4.39 7.33,-3.16 17.03,-7.67 26.61,-12.35 9.05,-5.65 18.63,-10.47 25.02,-15.32 6.45,-4.75 10.75,-7.92 10.75,-7.92 l 9.08,11.94" /><path
         id="path42"
         style="fill:#1c2d2d;fill-opacity:1;fill-rule:nonzero;stroke:none"
         d="m 2002.65,1874.28 c 0,0 -3.15,5.66 -8.36,13.85 -2.88,3.91 -6.24,8.47 -9.84,13.36 -1.79,2.45 -3.65,4.98 -5.54,7.55 -2.01,2.46 -4.28,4.79 -6.42,7.21 -4.34,4.81 -8.68,9.62 -12.75,14.12 -4.37,4.22 -8.68,7.91 -12.25,11.2 -3.6,3.26 -6.6,5.98 -8.71,7.88 -2.07,1.94 -3.48,2.76 -3.48,2.76 l -9.36,-11.71 c 0,0 1.34,-0.78 3.3,-2.62 1.99,-1.8 4.83,-4.38 8.24,-7.47 3.38,-3.13 7.47,-6.61 11.61,-10.6 3.85,-4.28 7.97,-8.84 12.08,-13.39 2.03,-2.3 4.19,-4.5 6.09,-6.83 1.79,-2.44 3.54,-4.83 5.23,-7.16 3.42,-4.62 6.6,-8.94 9.33,-12.64 4.92,-7.75 7.9,-13.12 7.9,-13.12 l 12.93,7.61" /><path
         id="path44"
         style="fill:#2f6263;fill-opacity:1;fill-rule:nonzero;stroke:none"
         d="m 1985.56,1562.72 c 0,0 2.72,3.7 6.81,9.26 4.33,5.39 8.39,13.7 13.26,21.48 5.07,7.71 8.17,16.44 11.3,22.58 1.45,3.12 2.66,5.73 3.51,7.55 0.91,1.8 1.19,2.92 1.19,2.92 l -13.93,5.56 c 0,0 -0.26,-1.06 -1.13,-2.77 -0.8,-1.72 -1.95,-4.18 -3.33,-7.14 -2.98,-5.8 -5.87,-14.09 -10.7,-21.36 -4.62,-7.36 -8.42,-15.26 -12.55,-20.35 -3.87,-5.25 -6.45,-8.75 -6.45,-8.75 l 12.02,-8.98" /><path
         id="path46"
         style="fill:#151a19;fill-opacity:1;fill-rule:nonzero;stroke:none"
         d="m 2021.9,1835.41 c 0,0 -0.65,2.21 -2.2,5.29 -1.45,3.13 -3.39,7.3 -5.32,11.46 -1.97,4.15 -3.78,8.39 -5.4,11.42 -1.76,2.97 -2.93,4.95 -2.93,4.95 l -13.1,-7.3 c 0,0 1.11,-1.87 2.78,-4.67 1.53,-2.87 3.22,-6.89 5.09,-10.82 1.84,-3.94 3.67,-7.88 5.05,-10.84 1.48,-2.91 2.08,-5.01 2.08,-5.01 l 13.95,5.52" /><path
         id="path48"
         style="fill:#78d1c9;fill-opacity:1;fill-rule:nonzero;stroke:none"
         d="m 1844.38,2000.62 c 0,0 -0.74,0.26 -2.03,0.71 -1.29,0.48 -3.14,1.13 -5.44,1.61 -4.57,1.11 -10.66,2.6 -16.74,4.08 -6.04,1.74 -12.28,2.48 -16.93,3.14 -4.65,0.67 -7.76,1.12 -7.76,1.12 l -1.91,-14.88 c 0,0 2.94,-0.43 7.34,-1.06 4.41,-0.62 10.32,-1.3 16.03,-2.97 5.77,-1.4 11.53,-2.8 15.86,-3.86 2.18,-0.45 3.93,-1.06 5.15,-1.52 1.22,-0.43 1.92,-0.68 1.92,-0.68 l 4.51,14.31" /><path
         id="path50"
         style="fill:#67ccc3;fill-opacity:1;fill-rule:nonzero;stroke:none"
         d="m 1511.61,1595.62 c 0,0 2.55,-4.31 6.38,-10.79 2,-3.17 3.93,-7.15 6.73,-10.92 2.79,-3.79 5.76,-7.83 8.73,-11.86 5.61,-8.35 12.58,-15.59 17.62,-21.18 5.04,-5.58 8.4,-9.3 8.4,-9.3 l 10.61,10.6 c 0,0 -3.18,3.54 -7.95,8.84 -4.77,5.29 -11.4,12.13 -16.69,20.05 -2.81,3.82 -5.63,7.64 -8.27,11.22 -2.67,3.57 -4.47,7.35 -6.37,10.35 -3.62,6.12 -6.04,10.21 -6.04,10.21 l -13.15,-7.22" /><path
         id="path52"
         style="fill:#78d1c9;fill-opacity:1;fill-rule:nonzero;stroke:none"
         d="m 1629.63,1998.92 c 0,0 -1.64,-0.77 -4.52,-2.1 -2.96,-1.2 -6.89,-3.47 -11.55,-6.29 -4.69,-2.77 -10.16,-6 -16.02,-9.47 -5.74,-3.64 -11.41,-8.21 -17.31,-12.43 -2.92,-2.15 -5.85,-4.31 -8.72,-6.43 -2.66,-2.39 -5.27,-4.74 -7.8,-7.02 -5.04,-4.56 -9.75,-8.82 -13.79,-12.47 -7.51,-7.87 -12.27,-13.35 -12.27,-13.35 l -11.18,10 c 0,0 5,5.75 12.9,14 4.23,3.84 9.17,8.32 14.47,13.11 2.65,2.39 5.4,4.86 8.19,7.36 3.02,2.23 6.08,4.5 9.15,6.76 6.2,4.44 12.17,9.22 18.2,13.05 6.15,3.65 11.9,7.05 16.82,9.96 4.91,2.96 9.04,5.33 12.14,6.6 3.02,1.41 4.75,2.22 4.75,2.22 l 6.54,-13.5" /><path
         id="path54"
         style="fill:#55b5ad;fill-opacity:1;fill-rule:nonzero;stroke:none"
         d="m 1938.99,1968.11 c 0,0 -2.83,2.08 -7.09,5.21 -4.23,3.16 -9.84,7.42 -16.05,10.77 -6.07,3.59 -12.13,7.16 -16.68,9.85 -4.62,2.54 -7.9,3.87 -7.9,3.87 l 6.67,13.44 c 0,0 3.43,-1.41 8.29,-4.07 4.78,-2.82 11.15,-6.58 17.53,-10.34 6.51,-3.55 12.42,-8.01 16.87,-11.32 4.47,-3.29 7.45,-5.48 7.45,-5.48 l -9.09,-11.93" /><path
         id="path56"
         style="fill:#78d1c9;fill-opacity:1;fill-rule:nonzero;stroke:none"
         d="m 1884.89,2000.77 c 0,0 -3,1.39 -7.49,3.48 -4.4,2.29 -10.62,4.49 -16.88,6.61 -6.24,2.16 -12.47,4.31 -17.15,5.93 -4.81,1.18 -8.01,1.96 -8.01,1.96 l 3.82,14.5 c 0,0 3.37,-0.83 8.42,-2.07 4.91,-1.7 11.47,-3.96 18.02,-6.21 6.57,-2.23 13.1,-4.56 17.74,-6.96 4.72,-2.18 7.87,-3.64 7.87,-3.64 l -6.34,-13.6" /><path
         id="path58"
         style="fill:#3c7d7c;fill-opacity:1;fill-rule:nonzero;stroke:none"
         d="m 1828.52,2020.42 c 0.23,1.04 -48.45,9.05 -48.61,7.5 l 1.04,14.96 c 0.16,1.61 51.29,-6.77 51.05,-7.87 l -3.48,-14.59" /><path
         id="path60"
         style="fill:#55b5ad;fill-opacity:1;fill-rule:nonzero;stroke:none"
         d="m 1532.93,1924.13 c 0,0 -0.74,-0.81 -2.02,-2.24 -1.34,-1.39 -3.14,-3.47 -5.02,-6.19 -3.9,-5.32 -9.12,-12.41 -14.33,-19.5 -4.71,-7.42 -9.03,-15.11 -12.43,-20.76 -3.52,-5.6 -5.21,-9.67 -5.21,-9.67 l -13.38,6.78 c 0,0 1.79,4.27 5.47,10.16 3.57,5.95 8.11,14.02 13.07,21.81 5.48,7.45 10.95,14.9 15.05,20.49 1.99,2.85 3.87,5.04 5.27,6.5 1.35,1.5 2.12,2.36 2.12,2.36 l 11.41,-9.74" /><path
         id="path62"
         style="fill:#55b5ad;fill-opacity:1;fill-rule:nonzero;stroke:none"
         d="m 1772.88,2028.25 c 0,0 -2.2,0.11 -6.04,0.29 -3.85,0.29 -9.34,0.47 -15.93,-0.04 -6.58,-0.4 -14.3,-0.46 -22.5,-1.3 -8.16,-1.18 -16.87,-2.44 -25.58,-3.69 -8.55,-2.08 -17.1,-4.15 -25.12,-6.09 -7.97,-2.13 -15.11,-5.09 -21.38,-7.14 -3.11,-1.1 -5.97,-2.1 -8.5,-2.98 -2.47,-1.03 -4.56,-2.08 -6.32,-2.87 -3.49,-1.62 -5.49,-2.55 -5.49,-2.55 l -6.22,13.66 c 0,0 2.1,0.97 5.77,2.67 1.85,0.82 4.05,1.92 6.65,3 2.66,0.93 5.66,1.99 8.93,3.14 6.58,2.17 14.09,5.26 22.46,7.5 8.42,2.03 17.4,4.21 26.39,6.39 9.14,1.32 18.29,2.64 26.86,3.88 8.61,0.89 16.72,0.96 23.63,1.38 6.92,0.51 12.69,0.33 16.73,0.04 4.04,-0.19 6.34,-0.3 6.34,-0.3 l -0.68,-14.99" /><path
         id="path64"
         style="fill:#67ccc3;fill-opacity:1;fill-rule:nonzero;stroke:none"
         d="m 1467.28,1674.06 c 0,0 3.13,-12.82 6.26,-25.64 4,-12.57 8.54,-24.98 8.54,-24.98 l -13.98,-5.43 c 0,0 -4.78,13.03 -8.97,26.24 -3.29,13.47 -6.58,26.94 -6.58,26.94 l 14.73,2.87" /><path
         id="path66"
         style="fill:#78d1c9;fill-opacity:1;fill-rule:nonzero;stroke:none"
         d="m 1461.82,1733.55 c 0,0 -0.04,-0.82 -0.1,-2.27 0.07,-1.44 0.16,-3.5 0.28,-5.97 0.23,-4.94 0.55,-11.53 0.86,-18.12 0.13,-6.61 1.65,-13.09 2.18,-18.01 0.71,-4.9 1.18,-8.16 1.18,-8.16 l -14.79,-2.53 c 0,0 -0.49,3.43 -1.24,8.58 -0.56,5.16 -2.12,11.97 -2.28,18.9 -0.33,6.93 -0.66,13.85 -0.91,19.04 -0.12,2.59 -0.21,4.76 -0.28,6.27 0.06,1.52 0.1,2.38 0.1,2.38 l 15,-0.11" /><path
         id="path68"
         style="fill:#67ccc3;fill-opacity:1;fill-rule:nonzero;stroke:none"
         d="m 1484.66,1616.9 c 0,0 3.05,-6.59 7.63,-16.47 1.17,-2.45 2.35,-5.17 3.76,-7.94 1.59,-2.69 3.26,-5.52 4.99,-8.45 3.54,-5.81 6.97,-12.24 11.04,-18.24 8.65,-11.66 16.86,-23.68 24.61,-31.39 7.3,-8.07 12.17,-13.45 12.17,-13.45 l -10.6,-10.61 c 0,0 -5.12,5.65 -12.8,14.12 -8.1,8.11 -16.78,20.7 -25.83,32.97 -4.28,6.31 -7.9,13.05 -11.62,19.15 -1.81,3.09 -3.56,6.07 -5.22,8.89 -1.49,2.92 -2.73,5.77 -3.96,8.35 -4.81,10.38 -8.02,17.31 -8.02,17.31 l 13.85,5.76" /><path
         id="path70"
         style="fill:#3c7d7c;fill-opacity:1;fill-rule:nonzero;stroke:none"
         d="m 1474.24,1816.83 c 0,0 -0.81,-2.97 -1.91,-7.46 -1.09,-4.48 -2.55,-10.47 -4.02,-16.45 -1.72,-5.93 -2.05,-12.13 -2.88,-16.67 -0.66,-4.58 -1.1,-7.62 -1.1,-7.62 l -14.88,1.87 c 0,0 0.46,3.2 1.15,8 0.86,4.77 1.24,11.28 3.04,17.51 1.53,6.29 3.06,12.57 4.21,17.29 1.16,4.71 2.02,7.83 2.02,7.83 l 14.37,-4.3" /><path
         id="path72"
         style="fill:#55b5ad;fill-opacity:1;fill-rule:nonzero;stroke:none"
         d="m 1463.33,1761.66 c 0,0 -0.29,-1.3 -0.33,-3.28 -0.09,-1.98 -0.22,-4.62 -0.35,-7.25 -0.25,-5.28 -0.5,-10.55 -0.5,-10.55 l -14.99,0.46 c 0,0 0.26,5.54 0.52,11.08 0.14,2.77 0.28,5.54 0.39,7.61 0.04,2.08 0.34,3.45 0.34,3.45 l 14.92,-1.52" /><path
         id="path74"
         style="fill:#55b5ad;fill-opacity:1;fill-rule:nonzero;stroke:none"
         d="m 1490.95,1859.38 c 0,0 -4.23,-8.72 -8,-17.63 -3.19,-9.13 -6.39,-18.27 -6.39,-18.27 l -14.27,4.64 c 0,0 3.37,9.59 6.73,19.19 3.95,9.36 8.39,18.53 8.39,18.53 l 13.54,-6.46" /><path
         id="path76"
         style="fill:#78d1c9;fill-opacity:1;fill-rule:nonzero;stroke:none"
         d="m 2013.34,1577.04 c 0,0 1.46,2.46 3.64,6.15 2.03,3.78 5.44,8.44 7.62,13.75 4.81,10.38 9.63,20.76 9.63,20.76 l 13.86,-5.72 c 0,0 -5.06,-10.91 -10.11,-21.82 -2.31,-5.57 -5.86,-10.48 -8,-14.45 -2.29,-3.88 -3.82,-6.47 -3.82,-6.47 l -12.82,7.8" /><path
         id="path78"
         style="fill:#78d1c9;fill-opacity:1;fill-rule:nonzero;stroke:none"
         d="m 2036.73,1624.27 c 0,0 1.45,4.16 3.63,10.39 1.09,3.11 2.36,6.75 3.72,10.65 1.24,3.92 2.1,8.25 3.2,12.51 2.01,8.56 4.47,17.04 5.08,23.64 0.94,6.53 1.57,10.88 1.57,10.88 l 14.87,-1.96 c 0,0 -0.66,-4.57 -1.65,-11.43 -0.66,-6.92 -3.21,-15.83 -5.33,-24.83 -1.16,-4.47 -2.08,-9.01 -3.38,-13.14 -1.42,-4.1 -2.75,-7.92 -3.89,-11.19 -2.3,-6.55 -3.83,-10.91 -3.83,-10.91 l -13.99,5.39" /><path
         id="path80"
         style="fill:#55b5ad;fill-opacity:1;fill-rule:nonzero;stroke:none"
         d="m 2054.93,1699.31 c 0,0 0.18,1.25 0.5,3.44 0.1,2.21 0.26,5.37 0.45,9.16 0.12,7.58 1.45,17.69 0.53,27.79 -0.61,10.1 -0.58,20.25 -2.06,27.73 -1.08,7.51 -1.8,12.52 -1.8,12.52 l 14.8,2.44 c 0,0 0.76,-5.26 1.89,-13.15 1.53,-7.86 1.54,-18.51 2.16,-29.12 0.94,-10.61 -0.41,-21.23 -0.55,-29.19 -0.21,-3.97 -0.38,-7.29 -0.49,-9.61 -0.33,-2.3 -0.51,-3.62 -0.51,-3.62 l -14.92,1.61" /><path
         id="path82"
         style="fill:#78d1c9;fill-opacity:1;fill-rule:nonzero;stroke:none"
         d="m 2002.27,1902.58 -12.56,16.98 11.6,9.5 13.21,-17.82 -12.25,-8.66" /><path
         id="path84"
         style="fill:#67ccc3;fill-opacity:1;fill-rule:nonzero;stroke:none"
         d="m 2051.54,1786.91 c 0,0 -0.19,1.53 -0.79,3.77 -0.55,2.24 -1.28,5.23 -2.01,8.22 -1.46,5.99 -2.92,11.97 -2.92,11.97 l 14.45,4 c 0,0 1.54,-6.29 3.08,-12.57 0.76,-3.14 1.53,-6.29 2.1,-8.65 0.62,-2.34 0.83,-3.95 0.83,-3.95 l -14.74,-2.79" /><path
         id="path86"
         style="fill:#489896;fill-opacity:1;fill-rule:nonzero;stroke:none"
         d="m 1984.99,1924.79 c 0,0 -2.36,2.61 -5.89,6.52 -3.7,3.76 -7.9,9.5 -13.36,13.98 -5.22,4.72 -10.44,9.44 -14.36,12.98 -3.83,3.64 -6.72,5.66 -6.72,5.66 l 9.37,11.72 c 0,0 3.03,-2.13 7.06,-5.94 4.11,-3.72 9.59,-8.67 15.07,-13.63 5.71,-4.73 10.15,-10.72 14.03,-14.67 3.71,-4.11 6.18,-6.85 6.18,-6.85 l -11.38,-9.77" /><path
         id="path88"
         style="fill:#78d1c9;fill-opacity:1;fill-rule:nonzero;stroke:none"
         d="m 2019.16,1875.82 c 0,0 -3.13,5.3 -6.27,10.61 -1.57,2.65 -3.13,5.3 -4.31,7.29 -1.11,2.03 -2.15,3.19 -2.15,3.19 l 12.46,8.36 c 0,0 1.08,-1.22 2.25,-3.36 1.24,-2.08 2.89,-4.86 4.55,-7.65 3.29,-5.57 6.58,-11.15 6.58,-11.15 l -13.11,-7.29" /><path
         id="path90"
         style="fill:#489896;fill-opacity:1;fill-rule:nonzero;stroke:none"
         d="m 2043.99,1817.66 -8.14,23.26 13.95,5.52 8.54,-24.44 -14.35,-4.34" /><path
         id="path92"
         style="fill:#78d1c9;fill-opacity:1;fill-rule:nonzero;stroke:none"
         d="m 2033.12,1847.4 -10.38,22.35 13.27,6.98 10.92,-23.48 -13.81,-5.85" /><path
         id="path94"
         style="fill:#3c7d7c;fill-opacity:1;fill-rule:nonzero;stroke:none"
         d="m 2022.38,1562.88 c 0,0 -2.01,-3.72 -6.52,-9.58 -2.19,-2.97 -4.84,-6.58 -7.88,-10.73 -3.07,-4.12 -6.35,-8.92 -10.76,-13.47 -16.16,-19.47 -41.24,-42.37 -69.49,-60.87 -28.23,-18.75 -60.21,-30.63 -84.4,-37.75 -12.32,-2.82 -22.44,-5.98 -29.8,-6.74 -7.3,-1.06 -11.47,-1.67 -11.47,-1.67 l -2.05,14.86 c 0,0 3.97,0.57 10.93,1.58 7.01,0.7 16.63,3.76 28.37,6.41 23.01,6.81 53.46,18.08 80.32,35.93 26.87,17.63 50.79,39.42 66.17,57.97 4.22,4.32 7.32,8.91 10.24,12.84 2.9,3.94 5.42,7.38 7.5,10.21 4.31,5.56 6.22,9.11 6.22,9.11 l 12.62,-8.1" /><path
         id="path96"
         style="fill:#489896;fill-opacity:1;fill-rule:nonzero;stroke:none"
         d="m 1794.74,1421.03 c 0,0 -2.12,-0.3 -5.82,-0.8 -3.74,-0.19 -9.07,-0.45 -15.47,-0.77 -12.8,-1.12 -29.91,-0.11 -46.93,1.17 -8.46,1.23 -16.92,2.45 -24.85,3.59 -7.87,1.51 -15.09,3.54 -21.33,4.99 -6.24,1.49 -11.43,2.76 -14.91,4.16 -3.54,1.23 -5.56,1.93 -5.56,1.93 l 4.77,14.22 c 0,0 1.92,-0.67 5.28,-1.84 3.31,-1.35 8.26,-2.55 14.2,-3.96 5.95,-1.37 12.81,-3.32 20.3,-4.75 7.55,-1.09 15.61,-2.25 23.66,-3.42 16.21,-1.19 32.51,-2.2 44.69,-1.1 6.1,0.29 11.18,0.54 14.73,0.71 3.53,0.49 5.54,0.77 5.54,0.77 l 1.7,-14.9" /><path
         id="path98"
         style="fill:#489896;fill-opacity:1;fill-rule:nonzero;stroke:none"
         d="m 1652.89,1437.74 c 0,0 -2.02,0.71 -5.55,1.95 -3.59,1.09 -8.5,3.18 -14.28,5.98 -5.81,2.72 -12.58,5.9 -19.84,9.31 -6.91,4.08 -14.28,8.43 -21.64,12.78 -7.43,4.25 -13.96,9.87 -20.53,14.45 -3.21,2.39 -6.33,4.7 -9.28,6.89 -2.72,2.45 -5.3,4.77 -7.69,6.91 -9.49,8.61 -15.82,14.34 -15.82,14.34 l 10.6,10.61 c 0,0 6.04,-5.46 15.09,-13.65 2.26,-2.04 4.72,-4.26 7.31,-6.6 2.82,-2.08 5.78,-4.27 8.85,-6.54 6.26,-4.35 12.45,-9.73 19.53,-13.76 7.01,-4.14 14.02,-8.28 20.59,-12.17 6.91,-3.24 13.36,-6.26 18.88,-8.85 5.5,-2.67 10.18,-4.67 13.6,-5.69 3.36,-1.18 5.28,-1.85 5.28,-1.85 l -5.1,-14.11" /></g></g></svg>