<?xml version="1.0" encoding="UTF-8" standalone="no"?>
<svg
   xmlns:dc="http://purl.org/dc/elements/1.1/"
   xmlns:cc="http://creativecommons.org/ns#"
   xmlns:rdf="http://www.w3.org/1999/02/22-rdf-syntax-ns#"
   xmlns:svg="http://www.w3.org/2000/svg"
   xmlns="http://www.w3.org/2000/svg"
   viewBox="0 0 466.66666 466.66666"
   height="466.66666"
   width="466.66666"
   xml:space="preserve"
   id="svg2"
   version="1.1"><metadata
     id="metadata8"><rdf:RDF><cc:Work
         rdf:about=""><dc:format>image/svg+xml</dc:format><dc:type
           rdf:resource="http://purl.org/dc/dcmitype/StillImage" /></cc:Work></rdf:RDF></metadata><defs
     id="defs6" /><g
     transform="matrix(1.3333333,0,0,-1.3333333,0,466.66667)"
     id="g10"><g
       transform="scale(0.1)"
       id="g12"><path
         id="path14"
         style="fill:#4fc17a;fill-opacity:1;fill-rule:nonzero;stroke:none"
         d="m 1966.97,1633.96 c 0,0 1.64,3.51 4.08,8.77 2.51,5.25 4.63,12.74 7.33,19.99 2.58,7.31 3.87,15 5.42,20.59 0.71,2.82 1.29,5.17 1.45,6.86 0.24,1.68 0.37,2.64 0.37,2.64 l -14.78,2.53 c 0,0 -0.13,-0.9 -0.35,-2.47 -0.13,-1.58 -0.68,-3.78 -1.35,-6.41 -1.48,-5.21 -2.64,-12.41 -5.07,-19.23 -2.54,-6.76 -4.48,-13.77 -6.83,-18.66 -2.3,-4.92 -3.82,-8.2 -3.82,-8.2 l 13.55,-6.41" /><path
         id="path16"
         style="fill:#32b063;fill-opacity:1;fill-rule:nonzero;stroke:none"
         d="m 1534.83,1755.23 c 0,0 -0.37,-1.83 -0.43,-5.07 -0.16,-3.24 -0.38,-7.87 -0.64,-13.42 -0.56,-5.55 0.16,-12.03 0.39,-18.97 0.04,-6.97 1.24,-14.29 2.32,-21.62 0.76,-7.4 2.72,-14.56 4.38,-21.31 1.4,-6.82 3.55,-12.93 5.47,-18.16 1.9,-5.21 3.19,-9.68 4.58,-12.61 1.37,-2.94 2.15,-4.62 2.15,-4.62 l 13.72,6.06 c 0,0 -0.73,1.56 -2.01,4.3 -1.31,2.73 -2.48,6.92 -4.27,11.79 -1.79,4.87 -3.82,10.58 -5.11,16.95 -1.54,6.31 -3.4,12.99 -4.09,19.9 -1,6.86 -2.16,13.69 -2.17,20.21 -0.2,6.48 -0.91,12.54 -0.37,17.72 0.25,5.19 0.45,9.52 0.59,12.55 0.05,3.03 0.41,4.73 0.41,4.73 l -14.92,1.57" /><path
         id="path18"
         style="fill:#247a49;fill-opacity:1;fill-rule:nonzero;stroke:none"
         d="m 1555.32,1634.57 c 0,0 0.78,-1.69 2.14,-4.63 1.22,-3.02 3.49,-7.04 6.4,-11.79 5.3,-9.77 13.84,-21.94 23.25,-33.37 5.05,-5.42 9.78,-11.16 14.76,-16 5.16,-4.66 9.97,-9.01 14.09,-12.74 4.21,-3.62 8.15,-6.11 10.7,-8.11 2.61,-1.92 4.1,-3.02 4.1,-3.02 l 8.62,12.28 c 0,0 -1.4,1.03 -3.83,2.82 -2.38,1.87 -6.07,4.18 -10,7.57 -3.86,3.49 -8.35,7.55 -13.17,11.91 -4.66,4.52 -9.06,9.91 -13.8,14.96 -8.79,10.69 -16.78,22.04 -21.72,31.17 -2.72,4.42 -4.85,8.18 -5.97,11.01 -1.27,2.74 -2,4.31 -2,4.31 l -13.57,-6.37" /><path
         id="path20"
         style="fill:#1e5f3a;fill-opacity:1;fill-rule:nonzero;stroke:none"
         d="m 1635.1,1541.71 c 0,0 1.51,-1.07 4.33,-2.67 2.79,-1.65 6.77,-4.01 11.56,-6.83 4.64,-3.1 10.75,-5.4 16.98,-8.44 6.19,-3.2 13.23,-5.53 20.24,-7.94 6.91,-2.74 14.15,-4.36 20.9,-5.98 3.39,-0.78 6.62,-1.73 9.75,-2.28 3.15,-0.45 6.13,-0.88 8.89,-1.27 5.5,-0.72 10.07,-1.62 13.31,-1.77 3.23,-0.16 5.09,-0.24 5.09,-0.24 l 0.99,14.97 c 0,0 -1.73,0.07 -4.76,0.21 -3.03,0.13 -7.29,1 -12.43,1.67 -2.58,0.36 -5.36,0.76 -8.31,1.17 -2.93,0.51 -5.94,1.42 -9.1,2.15 -6.31,1.51 -13.08,3 -19.53,5.57 -6.54,2.26 -13.12,4.41 -18.89,7.42 -5.82,2.86 -11.54,4.95 -15.86,7.87 -4.47,2.64 -8.19,4.84 -10.79,6.38 -2.64,1.49 -4.05,2.49 -4.05,2.49 l -8.32,-12.48" /><path
         id="path22"
         style="fill:#2b9658;fill-opacity:1;fill-rule:nonzero;stroke:none"
         d="m 1751.53,1504.03 c 0,0 1.85,-0.09 5.09,-0.24 3.24,-0.33 7.87,-0.13 13.42,0.19 11.11,0.21 25.89,1.95 40.36,5.12 14.52,3.04 28.5,8.09 38.82,12.17 10.08,4.67 16.8,7.79 16.8,7.79 l -6.9,13.32 c 0,0 -6.27,-2.91 -15.69,-7.27 -9.64,-3.79 -22.68,-8.53 -36.26,-11.36 -13.51,-2.96 -27.32,-4.6 -37.71,-4.78 -5.18,-0.31 -9.51,-0.51 -12.53,-0.19 -3.03,0.15 -4.76,0.24 -4.76,0.24 l -0.64,-14.99" /><path
         id="path24"
         style="fill:#4fc17a;fill-opacity:1;fill-rule:nonzero;stroke:none"
         d="m 1988.48,1743.8 c 0,0 -0.22,4.72 -0.44,9.43 -0.68,4.67 -1.36,9.33 -1.36,9.33 l -14.86,-2.04 c 0,0 0.64,-4.37 1.28,-8.72 0.2,-4.41 0.4,-8.81 0.4,-8.81 l 14.98,0.81" /><path
         id="path26"
         style="fill:#4fc17a;fill-opacity:1;fill-rule:nonzero;stroke:none"
         d="m 1955.47,1612.65 c 0,0 9.75,16.15 9.24,16.41 l -13.4,6.75 c 0.49,-0.26 -8.64,-15.33 -8.64,-15.33 l 12.8,-7.83" /><path
         id="path28"
         style="fill:#2b9658;fill-opacity:1;fill-rule:nonzero;stroke:none"
         d="m 1985.91,1767.9 c 0,0 -0.29,2.04 -0.8,5.61 -0.6,3.56 -2.02,8.53 -3.43,14.56 -1.21,6.09 -3.55,12.92 -6.2,20.19 -2.24,7.43 -5.84,14.86 -9.35,22.33 -7.07,14.91 -16.16,28.78 -23.74,38.55 -3.49,5.13 -6.97,8.94 -9.45,11.57 -2.42,2.68 -3.8,4.21 -3.8,4.21 l -11.07,-10.13 c 0,0 1.3,-1.43 3.56,-3.93 2.33,-2.46 5.59,-6.02 8.84,-10.82 7.08,-9.12 15.57,-22.07 22.16,-35.99 3.27,-6.98 6.66,-13.91 8.73,-20.85 2.48,-6.79 4.68,-13.16 5.79,-18.86 1.31,-5.63 2.66,-10.26 3.21,-13.59 0.47,-3.34 0.74,-5.25 0.74,-5.25 l 14.81,2.4" /><path
         id="path30"
         style="fill:#4fc17a;fill-opacity:1;fill-rule:nonzero;stroke:none"
         d="m 1925.52,1888.93 c 0,0 -1.36,1.49 -3.41,3.72 -2.25,2.04 -5.25,4.75 -8.25,7.45 -3,2.72 -6,5.43 -8.25,7.47 -2.34,1.91 -4.02,3.05 -4.02,3.05 l -9.26,-11.81 c 0,0 1.57,-1.05 3.77,-2.84 2.09,-1.9 4.89,-4.44 7.69,-6.99 2.81,-2.52 5.62,-5.05 7.73,-6.95 1.91,-2.09 3.18,-3.49 3.18,-3.49 l 10.82,10.39" /><path
         id="path32"
         style="fill:#4fc17a;fill-opacity:1;fill-rule:nonzero;stroke:none"
         d="m 1988.51,1719.58 c 0,0 0.23,4.71 0.46,9.42 0.21,2.35 -0.03,4.71 -0.09,6.48 -0.08,1.76 -0.14,2.94 -0.14,2.94 l -14.99,-0.46 c 0,0 0.05,-1.1 0.13,-2.75 0.06,-1.66 0.3,-3.86 0.09,-6.06 -0.22,-4.4 -0.44,-8.8 -0.44,-8.8 l 14.98,-0.77" /><path
         id="path34"
         style="fill:#2b9658;fill-opacity:1;fill-rule:nonzero;stroke:none"
         d="m 1986.39,1698.14 c 0,0 0.58,4.01 1.16,8.01 0.76,3.98 0.71,8.04 0.71,8.04 l -14.96,1.12 c 0,0 0.07,-3.79 -0.66,-7.51 -0.54,-3.74 -1.09,-7.48 -1.09,-7.48 l 14.84,-2.18" /><path
         id="path36"
         style="fill:#2b9658;fill-opacity:1;fill-rule:nonzero;stroke:none"
         d="m 1943.34,1594.86 c 0,0 2.4,3.25 4.79,6.51 1.2,1.62 2.4,3.25 3.3,4.47 0.78,1.3 1.3,2.17 1.3,2.17 l -12.6,8.13 c 0,0 -0.49,-0.81 -1.21,-2.02 -0.84,-1.14 -1.97,-2.66 -3.09,-4.17 -2.24,-3.04 -4.48,-6.08 -4.48,-6.08 l 11.99,-9.01" /><path
         id="path38"
         style="fill:#1e5f3a;fill-opacity:1;fill-rule:nonzero;stroke:none"
         d="m 1840.73,1944.66 c 0,0 -2.35,0.82 -6.45,2.25 -2.05,0.72 -4.54,1.6 -7.4,2.6 -2.9,0.86 -6.25,1.56 -9.86,2.48 -3.62,0.88 -7.54,1.84 -11.69,2.86 -4.22,0.62 -8.67,1.28 -13.28,1.96 -9.18,1.77 -19.17,1.63 -29.08,2.25 -19.85,-0.28 -39.74,-2.36 -54.14,-6.27 -7.24,-1.79 -13.32,-3.09 -17.35,-4.76 -4.11,-1.44 -6.45,-2.26 -6.45,-2.26 l 5.02,-14.14 c 0,0 2.18,0.77 6.01,2.12 3.76,1.59 9.46,2.77 16.21,4.44 13.45,3.68 32.04,5.58 50.59,5.88 9.26,-0.63 18.6,-0.44 27.17,-2.12 4.31,-0.63 8.47,-1.24 12.42,-1.82 3.87,-0.96 7.53,-1.86 10.91,-2.69 3.37,-0.86 6.51,-1.5 9.22,-2.3 2.66,-0.94 4.98,-1.76 6.9,-2.44 3.83,-1.34 6.02,-2.1 6.02,-2.1 l 5.23,14.06" /><path
         id="path40"
         style="fill:#247a49;fill-opacity:1;fill-rule:nonzero;stroke:none"
         d="m 1580.03,1868.94 c 0,0 -2.69,-3.66 -6.73,-9.16 -4.12,-5.44 -8.26,-13.59 -13.05,-21.31 -4,-8.15 -7.84,-16.41 -10.52,-22.67 -2.25,-6.44 -3.75,-10.73 -3.75,-10.73 l 14.2,-4.85 c 0,0 1.39,4.01 3.48,10.03 2.52,5.83 6.11,13.54 9.83,21.16 4.5,7.19 8.32,14.82 12.18,19.9 3.78,5.13 6.3,8.55 6.3,8.55 l -11.94,9.08" /><path
         id="path42"
         style="fill:#162c1e;fill-opacity:1;fill-rule:nonzero;stroke:none"
         d="m 1646.06,1927.59 c 0,0 -4.57,-2.55 -11.17,-6.75 -3.15,-2.32 -6.83,-5.02 -10.77,-7.93 -4.02,-2.8 -8.15,-5.98 -11.9,-9.64 -3.88,-3.5 -7.75,-7 -11.39,-10.28 -3.4,-3.52 -6.37,-7 -9.03,-9.88 -2.63,-2.9 -4.82,-5.32 -6.35,-7.02 -1.56,-1.67 -2.23,-2.81 -2.23,-2.81 l 11.72,-9.36 c 0,0 0.61,1.07 2.08,2.63 1.44,1.58 3.49,3.84 5.95,6.55 2.49,2.69 5.26,5.95 8.43,9.24 3.4,3.07 7.03,6.33 10.65,9.61 3.5,3.43 7.36,6.4 11.13,9.01 3.67,2.71 7.11,5.24 10.05,7.41 6.17,3.92 10.43,6.29 10.43,6.29 l -7.6,12.93" /><path
         id="path44"
         style="fill:#1e5f3a;fill-opacity:1;fill-rule:nonzero;stroke:none"
         d="m 1897.24,1913.8 c 0,0 -2.98,2.2 -7.46,5.49 -4.34,3.5 -11.05,6.77 -17.32,10.7 -6.21,4.09 -13.26,6.59 -18.2,9.11 -2.52,1.17 -4.62,2.15 -6.09,2.83 -1.45,0.73 -2.36,0.96 -2.36,0.96 l -5.55,-13.93 c 0,0 0.85,-0.21 2.2,-0.9 1.37,-0.64 3.33,-1.56 5.67,-2.66 4.61,-2.37 11.22,-4.65 17,-8.5 5.84,-3.68 12.13,-6.69 16.17,-9.98 4.18,-3.08 6.97,-5.13 6.97,-5.13 l 8.97,12.01" /><path
         id="path46"
         style="fill:#141b16;fill-opacity:1;fill-rule:nonzero;stroke:none"
         d="m 1677.4,1943.11 c 0,0 -1.79,-0.52 -4.27,-1.78 -2.52,-1.17 -5.88,-2.73 -9.24,-4.29 -3.35,-1.59 -6.76,-3.04 -9.21,-4.35 -2.39,-1.42 -3.98,-2.36 -3.98,-2.36 l 7.29,-13.11 c 0,0 1.49,0.89 3.71,2.22 2.29,1.22 5.49,2.56 8.61,4.04 3.13,1.46 6.27,2.93 8.62,4.02 2.31,1.18 3.99,1.66 3.99,1.66 l -5.52,13.95" /><path
         id="path48"
         style="fill:#4fc17a;fill-opacity:1;fill-rule:nonzero;stroke:none"
         d="m 1544.2,1799.99 c 0,0 -0.21,-0.6 -0.58,-1.65 -0.39,-1.03 -0.9,-2.52 -1.29,-4.38 -0.9,-3.68 -2.1,-8.59 -3.29,-13.5 -1.41,-4.87 -2,-9.89 -2.53,-13.65 -0.54,-3.75 -0.9,-6.25 -0.9,-6.25 l 14.87,-1.91 c 0,0 0.34,2.33 0.85,5.84 0.49,3.51 1.03,8.21 2.36,12.75 1.11,4.58 2.23,9.17 3.06,12.61 0.36,1.74 0.85,3.13 1.21,4.1 0.35,0.97 0.55,1.52 0.55,1.52 l -14.31,4.52" /><path
         id="path50"
         style="fill:#44bd6d;fill-opacity:1;fill-rule:nonzero;stroke:none"
         d="m 1870.72,1531.69 c 0,0 3.48,2.06 8.7,5.14 5.38,2.83 11.9,7.61 18.37,12.47 6.73,4.52 12.57,10.14 17.07,14.21 4.5,4.06 7.5,6.77 7.5,6.77 l -10.6,10.6 c 0,0 -2.82,-2.52 -7.03,-6.31 -4.21,-3.8 -9.65,-9.08 -15.96,-13.28 -6.03,-4.54 -12.11,-9.02 -17.15,-11.64 -4.87,-2.88 -8.12,-4.81 -8.12,-4.81 l 7.22,-13.15" /><path
         id="path52"
         style="fill:#4fc17a;fill-opacity:1;fill-rule:nonzero;stroke:none"
         d="m 1542.95,1625.58 c 0,0 0.63,-1.34 1.72,-3.69 0.98,-2.41 2.83,-5.62 5.13,-9.43 2.26,-3.82 4.9,-8.28 7.73,-13.07 2.97,-4.68 6.7,-9.31 10.14,-14.13 1.76,-2.38 3.51,-4.76 5.24,-7.11 1.95,-2.17 3.87,-4.3 5.73,-6.36 3.73,-4.12 7.2,-7.96 10.18,-11.26 6.42,-6.12 10.9,-10.01 10.9,-10.01 l -10,-11.18 c 0,0 -4.75,4.13 -11.55,10.64 -3.17,3.49 -6.86,7.57 -10.82,11.93 -1.96,2.19 -4,4.46 -6.06,6.76 -1.84,2.49 -3.71,5.02 -5.58,7.55 -3.67,5.11 -7.6,10.03 -10.77,15.01 -3,5.08 -5.81,9.81 -8.21,13.88 -2.44,4.04 -4.39,7.45 -5.45,10.01 -1.16,2.49 -1.83,3.92 -1.83,3.92 l 13.5,6.54" /><path
         id="path54"
         style="fill:#32b063;fill-opacity:1;fill-rule:nonzero;stroke:none"
         d="m 1568.1,1878.02 c 0,0 -1.7,-2.31 -4.26,-5.78 -2.57,-3.46 -6.05,-8.04 -8.79,-13.11 -2.92,-4.95 -5.84,-9.89 -8.03,-13.6 -2.07,-3.78 -3.16,-6.45 -3.16,-6.45 l -13.44,6.66 c 0,0 1.17,2.83 3.36,6.85 2.33,3.94 5.43,9.19 8.53,14.45 2.93,5.37 6.6,10.25 9.33,13.92 2.71,3.69 4.52,6.14 4.52,6.14 l 11.94,-9.08" /><path
         id="path56"
         style="fill:#4fc17a;fill-opacity:1;fill-rule:nonzero;stroke:none"
         d="m 1541.44,1833.87 c -0.88,0.38 -16.08,-39.99 -14.67,-40.42 l -14.5,3.83 c 0,0 0.68,2.77 1.71,6.94 1.4,4.05 3.26,9.46 5.12,14.87 1.84,5.42 3.77,10.8 5.74,14.63 1.8,3.89 3.01,6.49 3.01,6.49 l 13.59,-6.34" /><path
         id="path58"
         style="fill:#247a49;fill-opacity:1;fill-rule:nonzero;stroke:none"
         d="m 1525.41,1787.87 c -0.85,0.19 -7.39,-39.54 -6.12,-39.66 l -14.96,1.03 c -1.33,0.14 5.58,42.31 6.49,42.11 l 14.59,-3.48" /><path
         id="path60"
         style="fill:#32b063;fill-opacity:1;fill-rule:nonzero;stroke:none"
         d="m 1603.98,1546.67 c 0,0 0.67,-0.6 1.83,-1.65 1.13,-1.09 2.83,-2.55 5.05,-4.09 4.34,-3.19 10.13,-7.44 15.91,-11.69 6.06,-3.85 12.33,-7.37 16.94,-10.15 4.57,-2.87 7.9,-4.25 7.9,-4.25 l -6.78,-13.38 c 0,0 -3.53,1.48 -8.39,4.51 -4.91,2.94 -11.56,6.69 -17.99,10.79 -6.14,4.51 -12.29,9.02 -16.9,12.41 -2.35,1.64 -4.15,3.19 -5.36,4.34 -1.24,1.11 -1.95,1.75 -1.95,1.75 l 9.74,11.41" /><path
         id="path62"
         style="fill:#32b063;fill-opacity:1;fill-rule:nonzero;stroke:none"
         d="m 1519.02,1742.47 c 0,0 -1.79,-28.85 3.87,-57.16 1.69,-6.98 3.38,-13.96 4.97,-20.5 1.73,-6.5 4.15,-12.33 5.82,-17.44 1.68,-5.13 3.33,-9.3 4.78,-12.1 1.32,-2.85 2.07,-4.48 2.07,-4.48 l -13.65,-6.21 c 0,0 -0.8,1.73 -2.2,4.76 -1.53,2.97 -3.28,7.4 -5.07,12.84 -1.79,5.43 -4.33,11.63 -6.18,18.53 -1.68,6.95 -3.48,14.36 -5.27,21.77 -6.02,30.05 -4.13,60.67 -4.13,60.67 l 14.99,-0.68" /><path
         id="path64"
         style="fill:#44bd6d;fill-opacity:1;fill-rule:nonzero;stroke:none"
         d="m 1808.04,1493.1 c 0,0 10.46,2.55 20.92,5.1 10.26,3.27 20.38,6.98 20.38,6.98 l 5.44,-13.98 c 0,0 -10.75,-3.95 -21.65,-7.41 -11.11,-2.71 -22.22,-5.42 -22.22,-5.42 l -2.87,14.73" /><path
         id="path66"
         style="fill:#4fc17a;fill-opacity:1;fill-rule:nonzero;stroke:none"
         d="m 1759.5,1488.64 c 0,0 0.67,-0.03 1.84,-0.08 1.18,0.06 2.86,0.13 4.88,0.23 4.03,0.19 9.41,0.45 14.79,0.71 5.39,0.1 10.68,1.34 14.69,1.77 4,0.58 6.66,0.96 6.66,0.96 l 2.53,-14.78 c 0,0 -2.83,-0.41 -7.07,-1.03 -4.26,-0.47 -9.88,-1.74 -15.6,-1.87 -5.71,-0.28 -11.42,-0.55 -15.7,-0.76 -2.14,-0.09 -3.92,-0.17 -5.17,-0.23 -1.25,0.05 -1.96,0.08 -1.96,0.08 l 0.11,15" /><path
         id="path68"
         style="fill:#44bd6d;fill-opacity:1;fill-rule:nonzero;stroke:none"
         d="m 1854.68,1507.28 c 0,0 5.38,2.49 13.44,6.23 4.11,1.72 8.66,4.2 13.38,7.13 4.74,2.9 9.98,5.7 14.88,9.02 9.52,7.05 19.32,13.76 25.61,20.08 6.59,5.96 10.98,9.93 10.98,9.93 l 10.61,-10.61 c 0,0 -4.66,-4.22 -11.64,-10.55 -6.69,-6.68 -17.07,-13.84 -27.2,-21.31 -5.2,-3.52 -10.76,-6.52 -15.8,-9.58 -5.02,-3.11 -9.86,-5.73 -14.21,-7.58 -8.57,-3.97 -14.28,-6.61 -14.28,-6.61 l -5.77,13.85" /><path
         id="path70"
         style="fill:#247a49;fill-opacity:1;fill-rule:nonzero;stroke:none"
         d="m 1691.54,1498.78 c 0,0 2.42,-0.66 6.08,-1.56 3.67,-0.89 8.55,-2.09 13.43,-3.28 4.84,-1.41 9.9,-1.68 13.61,-2.35 3.73,-0.54 6.22,-0.9 6.22,-0.9 l -1.87,-14.88 c 0,0 -2.65,0.38 -6.61,0.95 -3.93,0.71 -9.3,1.03 -14.44,2.51 -5.19,1.26 -10.37,2.52 -14.26,3.47 -3.89,0.96 -6.46,1.67 -6.46,1.67 l 4.3,14.37" /><path
         id="path72"
         style="fill:#32b063;fill-opacity:1;fill-rule:nonzero;stroke:none"
         d="m 1736.56,1489.88 c 0,0 1.06,-0.24 2.68,-0.27 1.61,-0.08 3.76,-0.18 5.91,-0.29 4.31,-0.2 8.61,-0.41 8.61,-0.41 l -0.46,-14.99 c 0,0 -4.57,0.22 -9.14,0.44 -2.28,0.11 -4.57,0.22 -6.28,0.31 -1.71,0.04 -2.84,0.29 -2.84,0.29 l 1.52,14.92" /><path
         id="path74"
         style="fill:#32b063;fill-opacity:1;fill-rule:nonzero;stroke:none"
         d="m 1656.82,1512.41 c 0,0 7.11,-3.45 14.38,-6.52 7.46,-2.61 14.91,-5.22 14.91,-5.22 l -4.63,-14.27 c 0,0 -7.92,2.78 -15.84,5.56 -7.72,3.25 -15.28,6.91 -15.28,6.91 l 6.46,13.54" /><path
         id="path76"
         style="fill:#4fc17a;fill-opacity:1;fill-rule:nonzero;stroke:none"
         d="m 1887.21,1938.69 c 0,0 -2.01,1.19 -5.02,2.97 -3.08,1.65 -6.89,4.44 -11.22,6.21 -8.47,3.93 -16.94,7.86 -16.94,7.86 l 5.72,13.87 c 0,0 9,-4.18 18,-8.35 4.59,-1.9 8.65,-4.83 11.92,-6.59 3.2,-1.9 5.34,-3.16 5.34,-3.16 l -7.8,-12.81" /><path
         id="path78"
         style="fill:#4fc17a;fill-opacity:1;fill-rule:nonzero;stroke:none"
         d="m 1848.66,1957.77 c 0,0 -3.38,1.19 -8.47,2.97 -2.54,0.88 -5.51,1.92 -8.69,3.03 -3.2,1.01 -6.73,1.71 -10.21,2.61 -6.99,1.64 -13.9,3.65 -19.29,4.15 -5.33,0.77 -8.88,1.28 -8.88,1.28 l 1.96,14.87 c 0,0 3.77,-0.54 9.43,-1.37 5.71,-0.55 13.06,-2.64 20.48,-4.39 3.69,-0.95 7.43,-1.72 10.84,-2.79 3.38,-1.17 6.53,-2.27 9.23,-3.21 5.4,-1.89 9,-3.15 9,-3.15 l -5.4,-14" /><path
         id="path80"
         style="fill:#32b063;fill-opacity:1;fill-rule:nonzero;stroke:none"
         d="m 1787.44,1972.63 c 0,0 -1.03,0.14 -2.81,0.4 -1.81,0.09 -4.38,0.21 -7.48,0.37 -6.18,0.1 -14.43,1.18 -22.67,0.43 -8.24,-0.49 -16.53,-0.47 -22.63,-1.67 -6.13,-0.89 -10.21,-1.48 -10.21,-1.48 l -2.44,14.8 c 0,0 4.34,0.63 10.84,1.57 6.48,1.25 15.27,1.27 24.02,1.78 8.75,0.76 17.5,-0.34 24.07,-0.46 3.28,-0.17 6.02,-0.31 7.93,-0.41 1.9,-0.27 2.98,-0.42 2.98,-0.42 l -1.6,-14.91" /><path
         id="path82"
         style="fill:#4fc17a;fill-opacity:1;fill-rule:nonzero;stroke:none"
         d="m 1621.56,1929.65 -13.85,-10.25 -9.5,11.61 14.7,10.89 8.65,-12.25" /><path
         id="path84"
         style="fill:#44bd6d;fill-opacity:1;fill-rule:nonzero;stroke:none"
         d="m 1715.95,1969.86 c 0,0 -1.24,-0.16 -3.07,-0.65 -1.83,-0.45 -4.27,-1.04 -6.71,-1.63 -4.88,-1.2 -9.77,-2.39 -9.77,-2.39 l -4,14.46 c 0,0 5.19,1.27 10.37,2.54 2.6,0.62 5.19,1.25 7.13,1.72 1.94,0.52 3.27,0.68 3.27,0.68 l 2.78,-14.73" /><path
         id="path86"
         style="fill:#2b9658;fill-opacity:1;fill-rule:nonzero;stroke:none"
         d="m 1603.45,1915.55 c 0,0 -2.13,-1.92 -5.33,-4.81 -3.06,-3.02 -7.75,-6.45 -11.41,-10.9 -3.85,-4.26 -7.7,-8.51 -10.58,-11.71 -2.98,-3.13 -4.63,-5.48 -4.63,-5.48 l -11.71,9.36 c 0,0 1.75,2.5 4.9,5.82 3.06,3.39 7.15,7.91 11.23,12.43 3.91,4.71 8.84,8.38 12.1,11.57 3.39,3.07 5.66,5.11 5.66,5.11 l 9.77,-11.39" /><path
         id="path88"
         style="fill:#4fc17a;fill-opacity:1;fill-rule:nonzero;stroke:none"
         d="m 1643.4,1943.44 c 0,0 -4.32,-2.56 -8.65,-5.12 -2.17,-1.28 -4.33,-2.56 -5.95,-3.52 -1.66,-0.91 -2.6,-1.75 -2.6,-1.75 l -8.36,12.45 c 0,0 1,0.89 2.76,1.86 1.72,1.03 4.02,2.39 6.31,3.75 4.6,2.72 9.2,5.43 9.2,5.43 l 7.29,-13.1" /><path
         id="path90"
         style="fill:#2b9658;fill-opacity:1;fill-rule:nonzero;stroke:none"
         d="m 1690.86,1963.69 -18.98,-6.63 -5.52,13.94 20.16,7.05 4.34,-14.36" /><path
         id="path92"
         style="fill:#4fc17a;fill-opacity:1;fill-rule:nonzero;stroke:none"
         d="m 1666.59,1954.83 -18.24,-8.48 -6.98,13.28 19.37,9.01 5.85,-13.81" /><path
         id="path94"
         style="fill:#247a49;fill-opacity:1;fill-rule:nonzero;stroke:none"
         d="m 1900.26,1948.39 c 0,0 3.06,-1.67 7.9,-5.38 4.76,-3.77 12.25,-8.36 19.96,-15.37 16.06,-13.33 34.94,-34.01 50.2,-57.32 15.46,-23.29 25.28,-49.67 31.15,-69.62 2.33,-10.16 4.92,-18.51 5.55,-24.58 0.88,-6.02 1.38,-9.46 1.38,-9.46 l -14.86,-2.05 c 0,0 -1.31,13.08 -6.52,32.06 -5.55,18.78 -14.75,43.63 -29.32,65.55 -14.39,21.93 -32.17,41.44 -47.3,54 -7.26,6.62 -14.33,10.9 -18.81,14.47 -4.54,3.51 -7.43,5.07 -7.43,5.07 l 8.1,12.63" /><path
         id="path96"
         style="fill:#2b9658;fill-opacity:1;fill-rule:nonzero;stroke:none"
         d="m 2017.26,1760.62 c 0,0 0.24,-1.75 0.66,-4.8 0.15,-3.08 0.37,-7.48 0.63,-12.76 0.92,-10.56 0.1,-24.67 -0.97,-38.71 -1.01,-6.97 -2.01,-13.95 -2.96,-20.5 -1.24,-6.48 -2.91,-12.44 -4.11,-17.59 -1.23,-5.14 -2.28,-9.42 -3.43,-12.3 -1.01,-2.91 -1.59,-4.58 -1.59,-4.58 l -14.23,4.77 c 0,0 0.55,1.56 1.51,4.31 1.1,2.7 2.08,6.73 3.23,11.58 1.12,4.86 2.71,10.46 3.88,16.57 0.88,6.16 1.83,12.73 2.78,19.31 0.98,13.22 1.8,26.52 0.91,36.46 -0.25,4.97 -0.45,9.12 -0.59,12.02 -0.4,2.88 -0.62,4.52 -0.62,4.52 l 14.9,1.7" /><path
         id="path98"
         style="fill:#2b9658;fill-opacity:1;fill-rule:nonzero;stroke:none"
         d="m 2003.47,1643.62 c 0,0 -0.58,-1.66 -1.61,-4.57 -0.9,-2.97 -2.62,-7.02 -4.92,-11.79 -2.25,-4.79 -4.88,-10.38 -7.69,-16.37 -3.37,-5.69 -6.95,-11.77 -10.54,-17.85 -3.51,-6.12 -8.13,-11.51 -11.92,-16.93 -1.97,-2.65 -3.88,-5.22 -5.68,-7.65 -2.03,-2.25 -3.94,-4.38 -5.7,-6.35 -7.1,-7.83 -11.83,-13.05 -11.83,-13.05 l -10.61,10.61 c 0,0 4.46,4.92 11.14,12.31 1.66,1.85 3.47,3.85 5.38,5.97 1.7,2.29 3.49,4.71 5.34,7.22 3.55,5.1 7.94,10.16 11.23,15.93 3.38,5.72 6.76,11.44 9.93,16.81 2.64,5.63 5.11,10.9 7.22,15.41 2.18,4.48 3.81,8.3 4.65,11.09 0.96,2.75 1.51,4.31 1.51,4.31 l 14.1,-5.1" /><path
         id="path100"
         style="fill:#328079;fill-opacity:1;fill-rule:nonzero;stroke:none"
         d="m 1648.83,1978.31 c 0,0 -4.19,-1.94 -10.47,-4.83 -6.31,-2.84 -14.01,-8.01 -22.05,-12.52 -7.98,-4.64 -15.07,-10.63 -20.79,-14.51 -2.82,-2.01 -5.16,-3.7 -6.6,-5.12 -1.51,-1.34 -2.38,-2.11 -2.38,-2.11 l 9.64,-11.49 c 0,0 0.82,0.72 2.24,1.99 1.36,1.35 3.58,2.94 6.24,4.84 5.42,3.64 12.1,9.34 19.64,13.71 7.61,4.24 14.85,9.16 20.83,11.82 5.93,2.73 9.89,4.55 9.89,4.55 l -6.19,13.67" /><path
         id="path102"
         style="fill:#205d59;fill-opacity:1;fill-rule:nonzero;stroke:none"
         d="m 1947.86,1535.18 c 0,0 1.74,1.36 4.31,4.26 2.63,2.83 6.4,6.86 10.91,11.7 4.78,4.61 9.13,11.05 14.27,17.53 5.33,6.36 9.88,13.93 14.55,21.43 5,7.3 8.74,15.31 12.44,22.71 1.78,3.73 3.8,7.21 5.2,10.73 1.35,3.54 2.64,6.89 3.82,9.98 2.29,6.21 4.56,11.26 5.56,14.99 1.02,3.72 1.61,5.85 1.61,5.85 l -14.38,4.26 c 0,0 -0.55,-2.01 -1.51,-5.52 -0.94,-3.53 -3.11,-8.29 -5.26,-14.16 -1.12,-2.92 -2.33,-6.08 -3.6,-9.43 -1.32,-3.33 -3.24,-6.6 -4.92,-10.13 -3.5,-6.98 -7.01,-14.57 -11.76,-21.46 -4.41,-7.08 -8.69,-14.25 -13.75,-20.24 -4.86,-6.12 -8.94,-12.23 -13.47,-16.57 -4.27,-4.58 -7.83,-8.39 -10.32,-11.06 -2.41,-2.75 -4.06,-4.03 -4.06,-4.03 l 10.36,-10.84" /><path
         id="path104"
         style="fill:#193f3d;fill-opacity:1;fill-rule:nonzero;stroke:none"
         d="m 2022.23,1660.55 c 0,0 0.59,2.12 1.62,5.84 1.22,3.68 2.26,9.09 3.27,15.64 2.72,12.97 4.34,30.59 4.6,48.23 -0.41,8.81 -0.28,17.67 -1.08,25.9 -1.09,8.21 -2.11,15.86 -2.98,22.43 -1.03,6.53 -2.68,11.83 -3.46,15.61 -0.89,3.75 -1.4,5.9 -1.4,5.9 l -14.51,-3.79 c 0,0 0.48,-2.03 1.32,-5.58 0.73,-3.56 2.3,-8.56 3.27,-14.74 0.83,-6.2 1.79,-13.44 2.82,-21.2 0.76,-7.78 0.61,-16.15 1.02,-24.48 -0.26,-16.67 -1.77,-33.32 -4.35,-45.56 -0.95,-6.18 -1.92,-11.3 -3.09,-14.76 -0.97,-3.52 -1.53,-5.52 -1.53,-5.52 l 14.48,-3.92" /><path
         id="path106"
         style="fill:#163230;fill-opacity:1;fill-rule:nonzero;stroke:none"
         d="m 2021.32,1806.35 c 0,0 -0.54,2.13 -1.87,5.76 -1.26,3.65 -3.06,8.86 -5.23,15.12 -1.83,6.39 -5.61,13.18 -8.93,20.75 -3.15,7.67 -7.75,15.22 -12.25,22.81 -4.17,7.8 -9.5,14.85 -14.39,21.53 -2.47,3.31 -4.67,6.67 -7.1,9.58 -2.51,2.84 -4.89,5.53 -7.08,8 -4.45,4.91 -7.9,9.23 -10.72,11.87 -2.83,2.63 -4.44,4.14 -4.44,4.14 l -10.44,-10.77 c 0,0 1.53,-1.42 4.2,-3.91 2.67,-2.48 5.92,-6.59 10.12,-11.22 2.08,-2.33 4.33,-4.87 6.71,-7.55 2.29,-2.75 4.35,-5.93 6.69,-9.06 4.62,-6.31 9.67,-12.95 13.59,-20.34 4.25,-7.17 8.62,-14.28 11.57,-21.54 3.13,-7.15 6.73,-13.55 8.43,-19.59 2.05,-5.9 3.76,-10.83 4.95,-14.27 1.26,-3.42 1.77,-5.44 1.77,-5.44 l 14.42,4.13" /><path
         id="path108"
         style="fill:#1c4e4b;fill-opacity:1;fill-rule:nonzero;stroke:none"
         d="m 1944.61,1930.29 c 0,0 -1.61,1.51 -4.43,4.14 -2.69,2.79 -7.05,6.18 -12.34,10.16 -10.25,8.38 -25.02,18.19 -40.59,26.45 -15.54,8.44 -32.13,14.62 -44.64,18.87 -12.76,3.52 -21.27,5.87 -21.27,5.87 l -3.35,-14.62 c 0,0 8.03,-2.22 20.08,-5.54 11.81,-4.04 27.48,-9.86 42.16,-17.83 14.71,-7.81 28.67,-17.07 38.35,-25 5.01,-3.75 9.13,-6.95 11.67,-9.59 2.66,-2.5 4.18,-3.93 4.18,-3.93 l 10.18,11.02" /><path
         id="path110"
         style="fill:#328079;fill-opacity:1;fill-rule:nonzero;stroke:none"
         d="m 1544.65,1895.11 c 0,0 -3.42,-4.45 -6.85,-8.9 -2.98,-4.76 -5.96,-9.52 -5.96,-9.52 l 12.65,-8.05 c 0,0 2.81,4.5 5.62,9 3.25,4.2 6.49,8.4 6.49,8.4 l -11.95,9.07" /><path
         id="path112"
         style="fill:#328079;fill-opacity:1;fill-rule:nonzero;stroke:none"
         d="m 1675.71,1988.79 c 0,0 -21.31,-7.16 -21.05,-7.79 l 5.85,-13.81 c -0.24,0.62 19.88,7.35 19.88,7.35 l -4.68,14.25" /><path
         id="path114"
         style="fill:#1c4e4b;fill-opacity:1;fill-rule:nonzero;stroke:none"
         d="m 1528.42,1871.25 c 0,0 -1.3,-2.08 -3.59,-5.72 -2.2,-3.69 -4.74,-9.3 -8.11,-15.86 -1.57,-3.33 -3.61,-6.79 -5.16,-10.71 -1.51,-3.95 -3.11,-8.1 -4.76,-12.4 -3.69,-8.48 -6.15,-18 -8.71,-27.49 -5.08,-18.99 -7.51,-38.59 -8.16,-53.31 -0.77,-7.34 -0.55,-13.49 -0.33,-17.79 0.13,-4.3 0.21,-6.75 0.21,-6.75 l 14.99,0.56 c 0,0 -0.07,2.33 -0.2,6.39 -0.22,4.07 -0.44,9.88 0.31,16.82 0.61,13.9 2.9,32.41 7.7,50.33 2.43,8.96 4.73,17.96 8.23,25.96 1.55,4.06 3.06,7.99 4.48,11.72 1.46,3.71 3.41,6.97 4.89,10.11 3.19,6.19 5.56,11.5 7.65,14.99 2.17,3.44 3.41,5.4 3.41,5.4 l -12.85,7.75" /><path
         id="path116"
         style="fill:#328079;fill-opacity:1;fill-rule:nonzero;stroke:none"
         d="m 1490.01,1714.8 c 0,0 0.09,-2.41 0.22,-6.02 0.48,-3.57 1.12,-8.35 1.76,-13.12 0.63,-4.78 1.26,-9.55 1.74,-13.13 0.65,-3.55 1.3,-5.87 1.3,-5.87 l 14.7,3.01 c 0,0 -0.62,2.19 -1.24,5.54 -0.45,3.39 -1.04,7.9 -1.63,12.41 -0.61,4.52 -1.22,9.03 -1.68,12.41 -0.12,3.41 -0.2,5.69 -0.2,5.69 l -14.97,-0.92" /><path
         id="path118"
         style="fill:#328079;fill-opacity:1;fill-rule:nonzero;stroke:none"
         d="m 1563.29,1917.14 c 0,0 -3.83,-4.1 -7.67,-8.21 -2.01,-1.97 -3.61,-4.29 -4.91,-5.95 -1.29,-1.67 -2.14,-2.78 -2.14,-2.78 l 11.73,-9.35 c 0,0 0.81,1.06 2.02,2.64 1.23,1.56 2.73,3.77 4.64,5.62 3.63,3.88 7.26,7.75 7.26,7.75 l -10.93,10.28" /><path
         id="path120"
         style="fill:#1c4e4b;fill-opacity:1;fill-rule:nonzero;stroke:none"
         d="m 1581.73,1934.97 c 0,0 -3.6,-3.19 -7.21,-6.38 -1.83,-1.56 -3.62,-3.17 -4.79,-4.55 -1.23,-1.33 -2.06,-2.21 -2.06,-2.21 l 10.68,-10.53 c 0,0 0.78,0.83 1.94,2.08 1.1,1.31 2.8,2.83 4.53,4.31 3.41,3.01 6.82,6.02 6.82,6.02 l -9.91,11.26" /><path
         id="path122"
         style="fill:#1c4e4b;fill-opacity:1;fill-rule:nonzero;stroke:none"
         d="m 1700.43,1995.61 c 0,0 -4.69,-1.12 -9.37,-2.23 -2.34,-0.55 -4.69,-1.1 -6.44,-1.52 -1.71,-0.58 -2.85,-0.96 -2.85,-0.96 l 4.34,-14.36 c 0,0 1.08,0.36 2.69,0.91 1.66,0.39 3.88,0.91 6.09,1.43 4.43,1.05 8.85,2.1 8.85,2.1 l -3.31,14.63" /><path
         id="path124"
         style="fill:#163230;fill-opacity:1;fill-rule:nonzero;stroke:none"
         d="m 1524.08,1598.84 c 0,0 1.49,-2.55 4.11,-7.02 1.31,-2.23 2.9,-4.94 4.72,-8.06 1.97,-3.01 4.48,-6.23 7.05,-9.84 2.6,-3.6 5.43,-7.49 8.41,-11.61 3.36,-3.82 6.89,-7.85 10.55,-12.02 6.98,-8.67 16.15,-16.24 24.67,-24.45 18.25,-15.04 37.92,-28.48 54.02,-36.02 7.94,-3.95 14.47,-7.46 19.42,-9.05 4.83,-1.85 7.59,-2.91 7.59,-2.91 l 5.32,14.02 c 0,0 -2.6,1 -7.17,2.75 -4.69,1.48 -10.84,4.82 -18.35,8.55 -15.22,7.1 -33.78,19.84 -51.04,34.03 -8.02,7.78 -16.74,14.89 -23.3,23.11 -3.47,3.94 -6.81,7.74 -9.99,11.35 -2.81,3.89 -5.47,7.57 -7.93,10.97 -2.43,3.41 -4.81,6.45 -6.67,9.3 -1.71,2.94 -3.21,5.5 -4.44,7.61 -2.48,4.22 -3.89,6.63 -3.89,6.63 l -13.08,-7.34" /><path
         id="path126"
         style="fill:#193f3d;fill-opacity:1;fill-rule:nonzero;stroke:none"
         d="m 1819.19,1466.73 c 0,0 5.27,1.25 13.17,3.13 7.93,1.77 17.97,5.97 28.27,9.3 9.92,4.31 19.77,8.87 27.03,12.48 7,4.11 11.67,6.86 11.67,6.86 l -7.69,12.88 c 0,0 -4.41,-2.6 -11.02,-6.49 -6.86,-3.4 -16.16,-7.69 -25.52,-11.78 -9.73,-3.11 -19.19,-7.13 -26.7,-8.78 -7.46,-1.77 -12.44,-2.95 -12.44,-2.95 l 3.23,-14.65" /><path
         id="path128"
         style="fill:#131b1a;fill-opacity:1;fill-rule:nonzero;stroke:none"
         d="m 1714.03,1464.34 c 0,0 6.11,-1.21 15.34,-2.47 4.65,-0.33 10.08,-0.71 15.89,-1.11 2.91,-0.2 5.92,-0.42 8.97,-0.63 3.06,-0.06 6.17,0.16 9.27,0.22 6.22,0.19 12.44,0.38 18.27,0.57 5.8,0.57 11.18,1.44 15.81,2.01 4.62,0.61 8.48,1.12 11.17,1.48 2.71,0.31 4.19,0.83 4.19,0.83 l -2.88,14.72 c 0,0 -1.39,-0.5 -3.95,-0.79 -2.55,-0.33 -6.2,-0.81 -10.57,-1.38 -4.38,-0.54 -9.46,-1.37 -14.94,-1.92 -5.51,-0.16 -11.39,-0.34 -17.27,-0.52 -2.94,-0.06 -5.88,-0.28 -8.77,-0.23 -2.88,0.21 -5.72,0.42 -8.47,0.62 -5.49,0.38 -10.62,0.72 -15.01,1.03 -8.72,1.21 -14.48,2.35 -14.48,2.35 l -2.57,-14.78" /><path
         id="path130"
         style="fill:#163230;fill-opacity:1;fill-rule:nonzero;stroke:none"
         d="m 1496.52,1670.41 c 0,0 1.02,-4.29 2.55,-10.73 1.25,-6.52 4.82,-14.66 7.49,-23.06 2.49,-8.5 6.96,-16.2 9.51,-22.3 1.39,-3.01 2.54,-5.51 3.35,-7.26 0.75,-1.78 1.4,-2.69 1.4,-2.69 l 13.25,7.03 c 0,0 -0.62,0.85 -1.32,2.53 -0.76,1.66 -1.85,4.03 -3.15,6.87 -2.39,5.76 -6.66,13.01 -8.98,21.05 -2.5,7.94 -5.92,15.61 -7.08,21.78 -1.44,6.08 -2.4,10.14 -2.4,10.14 l -14.62,-3.36" /><path
         id="path132"
         style="fill:#131614;fill-opacity:1;fill-rule:nonzero;stroke:none"
         d="m 1673.61,1474.39 c 0,0 2.02,-0.89 5.24,-1.68 3.19,-0.87 7.45,-2.04 11.7,-3.22 4.27,-1.13 8.49,-2.44 11.72,-3.14 3.26,-0.55 5.44,-0.93 5.44,-0.93 l 2.91,14.72 c 0,0 -2.05,0.34 -5.13,0.86 -3.05,0.66 -7.04,1.92 -11.06,2.98 -4.02,1.11 -8.04,2.21 -11.05,3.04 -3.05,0.72 -4.96,1.58 -4.96,1.58 l -4.81,-14.21" /><path
         id="path134"
         style="fill:#328079;fill-opacity:1;fill-rule:nonzero;stroke:none"
         d="m 1904.87,1501.74 c 0,0 0.64,0.38 1.78,1.05 1.15,0.64 2.77,1.59 4.56,2.98 3.65,2.66 8.52,6.19 13.39,9.73 5.02,3.34 9.44,7.44 12.81,10.44 3.38,2.99 5.64,4.99 5.64,4.99 l -10.11,11.08 c 0,0 -2.13,-1.88 -5.32,-4.71 -3.19,-2.83 -7.35,-6.73 -12.11,-9.87 -4.6,-3.34 -9.19,-6.68 -12.64,-9.19 -1.69,-1.32 -3.22,-2.22 -4.31,-2.82 -1.07,-0.63 -1.69,-0.98 -1.69,-0.98 l 8,-12.7" /><path
         id="path136"
         style="fill:#256c67;fill-opacity:1;fill-rule:nonzero;stroke:none"
         d="m 1815.05,1997.01 c 0,0 -4.74,0.81 -11.86,2.03 -3.57,0.51 -7.68,1.57 -12.18,1.86 -4.51,0.31 -9.31,0.64 -14.11,0.97 -9.6,1.09 -19.23,0.48 -26.45,0.26 -7.22,-0.22 -12.04,-0.37 -12.04,-0.37 l 1.23,-14.95 c 0,0 4.55,0.13 11.38,0.33 6.82,0.21 15.93,0.81 24.99,-0.24 4.54,-0.31 9.08,-0.62 13.33,-0.91 4.26,-0.26 8.13,-1.29 11.5,-1.76 6.72,-1.15 11.2,-1.91 11.2,-1.91 l 3.01,14.69" /><path
         id="path138"
         style="fill:#328079;fill-opacity:1;fill-rule:nonzero;stroke:none"
         d="m 2037.61,1659.89 c 0,0 0.46,1.69 1.28,4.63 0.95,2.92 1.74,7.21 2.57,12.39 0.89,5.17 1.92,11.19 3.02,17.65 0.91,6.48 1.08,13.48 1.66,20.44 0.24,3.49 0.48,6.97 0.72,10.4 -0.1,3.44 -0.21,6.82 -0.3,10.09 -0.21,6.54 -0.4,12.65 -0.57,17.89 -1.1,10.4 -2.16,17.32 -2.16,17.32 l 14.86,2.05 c 0,0 1.11,-7.27 2.25,-18.22 0.18,-5.5 0.39,-11.93 0.62,-18.81 0.09,-3.44 0.19,-7 0.3,-10.61 -0.25,-3.61 -0.49,-7.28 -0.74,-10.95 -0.6,-7.32 -0.81,-14.69 -1.76,-21.52 -1.16,-6.8 -2.24,-13.14 -3.17,-18.58 -0.88,-5.45 -1.72,-9.96 -2.72,-13.03 -0.85,-3.11 -1.33,-4.88 -1.33,-4.88 l -14.53,3.74" /><path
         id="path140"
         style="fill:#205d59;fill-opacity:1;fill-rule:nonzero;stroke:none"
         d="m 1822.41,1452.08 c 0,0 3.3,0.78 8.24,1.96 4.95,1.14 11.57,2.61 17.9,5.07 6.4,2.22 12.81,4.44 17.61,6.11 4.74,1.81 7.75,3.39 7.75,3.39 l 5.94,-13.78 c 0,0 -3.18,-1.64 -8.17,-3.56 -5.05,-1.75 -11.79,-4.09 -18.53,-6.43 -6.67,-2.58 -13.63,-4.14 -18.84,-5.35 -5.2,-1.23 -8.67,-2.06 -8.67,-2.06 l -3.23,14.65" /><path
         id="path142"
         style="fill:#328079;fill-opacity:1;fill-rule:nonzero;stroke:none"
         d="m 1880.06,1471.45 c 0.5,-1.02 44.97,23.68 44.03,25.15 l 8.58,-12.3 c 0,0 -2.7,-1.96 -6.77,-4.89 -4.31,-2.56 -10.06,-5.97 -15.81,-9.38 -5.74,-3.44 -11.52,-6.79 -16.18,-8.7 -4.55,-2.11 -7.58,-3.52 -7.58,-3.52 l -6.27,13.64" /><path
         id="path144"
         style="fill:#193f3d;fill-opacity:1;fill-rule:nonzero;stroke:none"
         d="m 1929.57,1500.58 c 0.62,-0.82 36.81,29.91 35.76,31 l 10.74,-10.48 c 1.09,-1.12 -36.97,-33.48 -37.62,-32.62 l -8.88,12.1" /><path
         id="path146"
         style="fill:#205d59;fill-opacity:1;fill-rule:nonzero;stroke:none"
         d="m 2042.94,1777.41 c 0,0 -0.14,1.05 -0.39,2.88 -0.18,1.85 -0.6,4.46 -1.42,7.53 -1.47,6.18 -3.43,14.42 -5.39,22.66 -2.51,8.08 -5.46,16.03 -7.49,22.04 -1.92,6.07 -3.85,9.85 -3.85,9.85 l 13.82,5.82 c 0,0 2.03,-3.99 4.07,-10.37 2.14,-6.33 5.24,-14.7 7.87,-23.21 2.07,-8.67 4.13,-17.34 5.68,-23.85 0.85,-3.23 1.29,-5.98 1.49,-7.92 0.26,-1.93 0.41,-3.03 0.41,-3.03 l -14.8,-2.4" /><path
         id="path148"
         style="fill:#205d59;fill-opacity:1;fill-rule:nonzero;stroke:none"
         d="m 1969.96,1536.52 c 0,0 1.44,1.55 3.97,4.26 2.6,2.64 6.16,6.56 9.89,11.71 3.8,5.08 8.56,10.78 13.05,17.32 4.22,6.73 8.72,13.9 13.21,21.07 3.81,7.56 7.61,15.13 11.17,22.22 3.4,7.17 5.68,14.26 8.07,20.13 2.41,5.89 4.11,10.9 4.94,14.52 0.99,3.57 1.55,5.61 1.55,5.61 l 14.43,-4.09 c 0,0 -0.59,-2.15 -1.63,-5.91 -0.89,-3.81 -2.68,-9.08 -5.2,-15.28 -2.51,-6.19 -4.93,-13.64 -8.5,-21.19 -3.75,-7.46 -7.76,-15.42 -11.76,-23.38 -4.73,-7.55 -9.47,-15.1 -13.9,-22.17 -4.72,-6.88 -9.72,-12.89 -13.73,-18.23 -3.94,-5.41 -7.67,-9.53 -10.4,-12.32 -2.66,-2.85 -4.18,-4.48 -4.18,-4.48 l -10.98,10.21" /><path
         id="path150"
         style="fill:#256c67;fill-opacity:1;fill-rule:nonzero;stroke:none"
         d="m 1900.32,1981.26 c 0,0 -11.36,5.69 -22.71,11.37 -11.72,4.88 -23.65,9.28 -23.65,9.28 l 4.9,14.18 c 0,0 12.57,-4.61 24.89,-9.77 11.95,-5.99 23.9,-11.97 23.9,-11.97 l -7.33,-13.09" /><path
         id="path152"
         style="fill:#328079;fill-opacity:1;fill-rule:nonzero;stroke:none"
         d="m 1947.37,1948.23 c 0,0 -0.58,0.54 -1.6,1.49 -1.1,0.84 -2.67,2.06 -4.56,3.51 -3.77,2.91 -8.81,6.78 -13.84,10.65 -4.93,4.02 -10.63,6.94 -14.56,9.61 -4.04,2.53 -6.73,4.22 -6.73,4.22 l 7.64,12.91 c 0,0 2.83,-1.78 7.08,-4.44 4.15,-2.8 10.12,-5.9 15.32,-10.12 5.3,-4.07 10.59,-8.14 14.56,-11.2 1.98,-1.53 3.63,-2.81 4.79,-3.7 1.07,-0.99 1.69,-1.56 1.69,-1.56 l -9.79,-11.37" /><path
         id="path154"
         style="fill:#256c67;fill-opacity:1;fill-rule:nonzero;stroke:none"
         d="m 1847.56,2004.1 c 0,0 -6.74,1.85 -16.84,4.64 -2.53,0.68 -5.27,1.42 -8.17,2.19 -2.96,0.51 -6.08,1.05 -9.31,1.61 -6.46,1.01 -13.31,2.49 -20.25,3.24 -13.94,0.92 -27.87,2.37 -38.35,1.49 -10.47,-0.34 -17.45,-0.56 -17.45,-0.56 l -1.23,14.95 c 0,0 7.34,0.24 18.36,0.6 11.01,0.9 25.68,-0.57 40.35,-1.57 7.3,-0.79 14.52,-2.33 21.33,-3.41 3.39,-0.59 6.68,-1.16 9.79,-1.7 3.05,-0.81 5.94,-1.58 8.61,-2.29 10.63,-2.94 17.72,-4.9 17.72,-4.9 l -4.56,-14.29" /><path
         id="path156"
         style="fill:#193f3d;fill-opacity:1;fill-rule:nonzero;stroke:none"
         d="m 2000.74,1887.27 c 0,0 -1.67,2.44 -4.28,6.05 -2.61,3.59 -6.09,8.39 -9.57,13.19 -3.28,4.96 -7.63,9.06 -10.44,12.49 -2.95,3.33 -4.91,5.55 -4.91,5.55 l 11.05,10.14 c 0,0 2.07,-2.33 5.17,-5.84 2.97,-3.6 7.51,-7.94 10.98,-13.15 3.66,-5.05 7.33,-10.1 10.08,-13.88 2.74,-3.8 4.5,-6.37 4.5,-6.37 l -12.58,-8.18" /><path
         id="path158"
         style="fill:#205d59;fill-opacity:1;fill-rule:nonzero;stroke:none"
         d="m 1967.05,1929.62 c 0,0 -0.77,1.03 -2.2,2.29 -1.39,1.3 -3.25,3.03 -5.1,4.77 -3.72,3.47 -7.43,6.93 -7.43,6.93 l 10.05,11.14 c 0,0 3.91,-3.65 7.82,-7.3 1.94,-1.83 3.89,-3.66 5.35,-5.03 1.51,-1.33 2.32,-2.4 2.32,-2.4 l -10.81,-10.4" /><path
         id="path160"
         style="fill:#205d59;fill-opacity:1;fill-rule:nonzero;stroke:none"
         d="m 2021.56,1848.52 c 0,0 -3.77,8.53 -7.96,16.84 -4.71,8.04 -9.42,16.07 -9.42,16.07 l 12.76,7.88 c 0,0 4.96,-8.46 9.92,-16.92 4.42,-8.74 8.39,-17.72 8.39,-17.72 l -13.69,-6.15" /><path
         id="path162"
         style="fill:#328079;fill-opacity:1;fill-rule:nonzero;stroke:none"
         d="m 1489.18,1640.99 c 0,0 0.9,-2.6 2.25,-6.51 1.51,-3.83 2.8,-9.24 5.35,-14.14 4.61,-10 9.23,-19.99 9.23,-19.99 l -13.33,-6.87 c 0,0 -4.87,10.52 -9.73,21.04 -2.66,5.17 -4.05,10.85 -5.64,14.89 -1.42,4.11 -2.37,6.85 -2.37,6.85 l 14.24,4.73" /><path
         id="path164"
         style="fill:#328079;fill-opacity:1;fill-rule:nonzero;stroke:none"
         d="m 1509.28,1594.42 c 0,0 2.14,-3.65 5.36,-9.13 1.61,-2.74 3.48,-5.93 5.49,-9.35 2.12,-3.36 4.76,-6.69 7.19,-10.15 5.04,-6.8 9.72,-13.89 14.19,-18.44 4.2,-4.75 7,-7.93 7,-7.93 l -11.11,-10.07 c 0,0 -2.95,3.34 -7.37,8.35 -4.68,4.8 -9.64,12.23 -14.93,19.4 -2.57,3.64 -5.33,7.15 -7.56,10.68 -2.12,3.6 -4.1,6.96 -5.8,9.84 -3.37,5.77 -5.63,9.62 -5.63,9.62 l 13.17,7.18" /><path
         id="path166"
         style="fill:#205d59;fill-opacity:1;fill-rule:nonzero;stroke:none"
         d="m 1553,1534.35 c 0,0 0.81,-0.91 2.22,-2.5 1.56,-1.46 3.78,-3.54 6.44,-6.04 5.49,-4.81 12.07,-12.07 20.06,-17.69 7.79,-5.84 15.22,-12.18 21.62,-15.75 6.19,-3.88 10.31,-6.47 10.31,-6.47 l -7.71,-12.87 c 0,0 -4.34,2.73 -10.85,6.81 -6.72,3.78 -14.57,10.42 -22.75,16.58 -8.38,5.93 -15.35,13.54 -21.11,18.61 -2.8,2.63 -5.13,4.82 -6.76,6.36 -1.49,1.67 -2.34,2.63 -2.34,2.63 l 10.87,10.33" /><path
         id="path168"
         style="fill:#328079;fill-opacity:1;fill-rule:nonzero;stroke:none"
         d="m 1734.94,1446.45 20.28,-1.36 -0.27,-14.99 -21.34,1.41 1.33,14.94" /><path
         id="path170"
         style="fill:#256c67;fill-opacity:1;fill-rule:nonzero;stroke:none"
         d="m 1619.4,1482.3 c 0,0 1.24,-0.81 3.25,-1.76 1.99,-0.99 4.64,-2.32 7.28,-3.65 5.31,-2.65 10.61,-5.31 10.61,-5.31 l -6.31,-13.6 c 0,0 -5.58,2.78 -11.16,5.57 -2.78,1.4 -5.57,2.8 -7.66,3.85 -2.12,1.01 -3.42,1.86 -3.42,1.86 l 7.41,13.04" /><path
         id="path172"
         style="fill:#1c4e4b;fill-opacity:1;fill-rule:nonzero;stroke:none"
         d="m 1761.99,1445.3 c 0,0 3.38,0.11 8.46,0.26 5.06,0.38 11.88,-0.11 18.57,1.1 6.71,0.89 13.43,1.79 18.46,2.46 5.06,0.54 8.34,1.4 8.34,1.4 l 2.88,-14.72 c 0,0 -3.46,-0.9 -8.78,-1.48 -5.29,-0.71 -12.35,-1.65 -19.41,-2.58 -7.04,-1.25 -14.21,-0.78 -19.54,-1.17 -5.34,-0.16 -8.9,-0.27 -8.9,-0.27 l -0.08,15" /><path
         id="path174"
         style="fill:#328079;fill-opacity:1;fill-rule:nonzero;stroke:none"
         d="m 1704.79,1450.71 c 0,0 5.84,-1 11.68,-2 2.92,-0.5 5.85,-1 8.04,-1.38 2.18,-0.45 3.68,-0.41 3.68,-0.41 l -1.69,-14.9 c 0,0 -1.57,-0.03 -3.87,0.43 -2.31,0.39 -5.38,0.91 -8.46,1.43 -6.15,1.06 -12.3,2.12 -12.3,2.12 l 2.92,14.71" /><path
         id="path176"
         style="fill:#1c4e4b;fill-opacity:1;fill-rule:nonzero;stroke:none"
         d="m 1646.66,1468.7 22.13,-8.51 -4.81,-14.21 -23.3,8.96 5.98,13.76" /><path
         id="path178"
         style="fill:#328079;fill-opacity:1;fill-rule:nonzero;stroke:none"
         d="m 1675.25,1458.16 22.86,-6.3 -3.27,-14.64 -24.07,6.62 4.48,14.32" /><path
         id="path180"
         style="fill:#193f3d;fill-opacity:1;fill-rule:nonzero;stroke:none"
         d="m 1472.62,1643 c 0,0 -1.48,3.8 -2.97,10.77 -1.4,6.97 -4.61,16.71 -6.17,28.8 -4.23,24.02 -5.42,56.74 -1.41,89.05 3.83,32.44 15.04,63.37 24.89,85.59 5.62,10.82 9.61,20.23 13.63,26.11 3.78,6.03 5.94,9.48 5.94,9.48 l 12.65,-8.06 c 0,0 -2.05,-3.27 -5.64,-9 -3.85,-5.58 -7.6,-14.54 -12.96,-24.81 -9.33,-21.12 -20.02,-50.48 -23.64,-81.31 -3.79,-30.68 -2.69,-61.8 1.34,-84.63 1.47,-11.5 4.56,-20.74 5.86,-27.37 1.41,-6.62 2.82,-10.23 2.82,-10.23 l -14.34,-4.39" /><path
         id="path182"
         style="fill:#1c4e4b;fill-opacity:1;fill-rule:nonzero;stroke:none"
         d="m 1510.32,1898.83 c 0,0 1.11,1.73 3.05,4.77 2.19,2.86 5.32,6.95 9.08,11.85 7.16,10.11 18.58,22.06 30.14,33.77 6.17,5.46 12.34,10.91 18.13,16.03 6.01,4.85 12.01,8.89 16.97,12.57 4.98,3.66 9.16,6.68 12.36,8.37 3.11,1.83 4.88,2.88 4.88,2.88 l 7.77,-12.84 c 0,0 -1.69,-0.99 -4.65,-2.73 -3.04,-1.59 -7,-4.47 -11.74,-7.95 -4.7,-3.51 -10.41,-7.33 -16.12,-11.94 -5.5,-4.86 -11.37,-10.05 -17.24,-15.23 -10.97,-11.15 -21.85,-22.48 -28.63,-32.1 -3.58,-4.66 -6.56,-8.54 -8.65,-11.26 -1.84,-2.89 -2.89,-4.54 -2.89,-4.54 l -12.46,8.35" /><path
         id="path184"
         style="fill:#1c4e4b;fill-opacity:1;fill-rule:nonzero;stroke:none"
         d="m 1611.08,1992.68 c 0,0 1.78,1.04 4.9,2.86 3.04,1.96 7.64,4.27 13.3,6.78 5.63,2.57 12.19,5.56 19.23,8.77 7.3,2.53 15.09,5.24 22.88,7.94 7.77,2.81 15.96,4.1 23.43,6.07 3.76,0.88 7.4,1.73 10.85,2.53 3.51,0.48 6.82,0.92 9.88,1.34 12.25,1.61 20.41,2.69 20.41,2.69 l 1.23,-14.95 c 0,0 -7.76,-1.03 -19.41,-2.57 -2.91,-0.39 -6.06,-0.81 -9.39,-1.26 -3.28,-0.77 -6.74,-1.58 -10.31,-2.42 -7.09,-1.88 -14.89,-3.07 -22.26,-5.76 -7.4,-2.57 -14.8,-5.13 -21.74,-7.54 -6.68,-3.05 -12.91,-5.9 -18.25,-8.34 -5.39,-2.37 -9.76,-4.56 -12.64,-6.43 -2.96,-1.74 -4.65,-2.73 -4.65,-2.73 l -7.46,13.02" /></g></g></svg>